<?xml version="1.0" encoding="UTF-8"?>
<svg width="37px" height="46px" viewBox="0 0 37 46" version="1.1" xmlns="http://www.w3.org/2000/svg" xmlns:xlink="http://www.w3.org/1999/xlink">
    <!-- Generator: Sketch 58 (84663) - https://sketch.com -->
    <title>Brand-Apple</title>
    <desc>Created with Sketch.</desc>
    <g id="Page-1" stroke="none" stroke-width="1" fill="none" fill-rule="evenodd">
        <g id="Landing-Page" transform="translate(-407.000000, -5204.000000)" fill="#BCDAF4">
            <g id="Testimonials" transform="translate(-389.000000, 4682.000000)">
                <g id="Logos" transform="translate(589.000000, 522.000000)">
                    <g id="Brand-Apple" transform="translate(206.999935, 0.000488)">
                        <path d="M27.5460646,3.12638804e-13 C27.8380646,2.66054172 26.7700646,5.33448172 25.1830646,7.25528172 C23.5960646,9.17730172 20.9920646,10.6701117 18.4420646,10.4728117 C18.0950646,7.86496172 19.3820646,5.14396172 20.8530646,3.44394172 C22.4930646,1.52419172 25.2590646,0.091930419 27.5460646,3.12638804e-13 Z M36.9900646,33.3314117 C36.7150646,33.2200117 30.9640646,30.8907117 30.9010646,24.1411117 C30.8510646,18.5111117 35.4020646,15.7442117 35.7930646,15.5067117 C35.8010646,15.5017117 35.8080646,15.4978117 35.8120646,15.4950117 C33.1420646,11.5861117 28.9830646,11.0493117 27.5010646,10.9876117 C25.3360646,10.7682117 23.2360646,11.5967117 21.5210646,12.2732117 C20.4320646,12.7027117 19.4990646,13.0709117 18.8020646,13.0709117 C18.0250646,13.0709117 17.0650646,12.6902117 15.9880646,12.2630117 C14.5780646,11.7036117 12.9670646,11.0646117 11.3030646,11.0963117 C7.44406459,11.1524117 3.88906459,13.3389117 1.90006459,16.7916117 C-2.10393541,23.7444117 0.878064586,34.0446117 4.78006459,39.6862117 C6.69006459,42.4442117 8.96606459,45.5507117 11.9550646,45.4376117 C13.2920646,45.3850117 14.2430646,44.9801117 15.2260646,44.5613117 C16.3600646,44.0784117 17.5370646,43.5772117 19.4000646,43.5772117 C21.1790646,43.5772117 22.3040646,44.0640117 23.3860646,44.5321117 C24.4190646,44.9790117 25.4130646,45.4089117 26.8990646,45.3815117 C29.9960646,45.3244117 31.9610646,42.5664117 33.8550646,39.7983117 C35.9760646,36.6993117 36.8900646,33.6959117 36.9920646,33.3599117 C36.9960646,33.3487117 36.9980646,33.3405117 37.0000646,33.3353117 C36.9990646,33.3348117 36.9960646,33.3335117 36.9900646,33.3314117 Z" id="Shape"></path>
                    </g>
                </g>
            </g>
        </g>
    </g>
</svg>