<?xml version="1.0" encoding="UTF-8"?>
<svg width="111px" height="37px" viewBox="0 0 111 37" version="1.1" xmlns="http://www.w3.org/2000/svg" xmlns:xlink="http://www.w3.org/1999/xlink">
    <!-- Generator: Sketch 58 (84663) - https://sketch.com -->
    <title>Brand-Google</title>
    <desc>Created with Sketch.</desc>
    <g id="Page-1" stroke="none" stroke-width="1" fill="none" fill-rule="evenodd">
        <g id="Landing-Page" transform="translate(-200.000000, -5214.000000)" fill="#BCDAF4" fill-rule="nonzero">
            <g id="Testimonials" transform="translate(-389.000000, 4682.000000)">
                <g id="Logos" transform="translate(589.000000, 522.000000)">
                    <g id="Brand-Google" transform="translate(0.000000, 10.000500)">
                        <path d="M47.5015,19.4713 C47.5015,24.7945 43.389,28.7171 38.342,28.7171 C33.2951,28.7171 29.1826,24.7945 29.1826,19.4713 C29.1826,14.1105 33.2951,10.2255 38.342,10.2255 C43.389,10.2255 47.5015,14.1105 47.5015,19.4713 Z M43.4919,19.4713 C43.4919,16.1448 41.1084,13.8688 38.342,13.8688 C35.5757,13.8688 33.1922,16.1448 33.1922,19.4713 C33.1922,22.7644 35.5757,25.0738 38.342,25.0738 C41.1084,25.0738 43.4919,22.7603 43.4919,19.4713 Z" id="Shape"></path>
                        <path d="M67.2611,19.4713 C67.2611,24.7945 63.1486,28.7171 58.1017,28.7171 C53.0547,28.7171 48.9423,24.7945 48.9423,19.4713 C48.9423,14.1147 53.0547,10.2255 58.1017,10.2255 C63.1486,10.2255 67.2611,14.1105 67.2611,19.4713 Z M63.2516,19.4713 C63.2516,16.1448 60.868,13.8688 58.1017,13.8688 C55.3353,13.8688 52.9518,16.1448 52.9518,19.4713 C52.9518,22.7644 55.3353,25.0738 58.1017,25.0738 C60.868,25.0738 63.2516,22.7603 63.2516,19.4713 Z" id="Shape"></path>
                        <path d="M86.1975,10.784 L86.1975,27.3832 C86.1975,34.2113 82.2208,37 77.5197,37 C73.0943,37 70.4309,34.0028 69.4264,31.5517 L72.9173,30.0802 C73.5389,31.5851 75.0621,33.3609 77.5156,33.3609 C80.5248,33.3609 82.3896,31.4809 82.3896,27.9418 L82.3896,26.612 L82.2497,26.612 C81.3522,27.7333 79.6233,28.7129 77.4415,28.7129 C72.8762,28.7129 68.6937,24.6861 68.6937,19.5046 C68.6937,14.2856 72.8762,10.2255 77.4415,10.2255 C79.6192,10.2255 81.3481,11.2051 82.2497,12.293 L82.3896,12.293 L82.3896,10.7882 L86.1975,10.7882 L86.1975,10.784 Z M82.6737,19.5046 C82.6737,16.249 80.5289,13.8688 77.7996,13.8688 C75.0333,13.8688 72.7156,16.249 72.7156,19.5046 C72.7156,22.7269 75.0333,25.0738 77.7996,25.0738 C80.5289,25.0738 82.6737,22.7269 82.6737,19.5046 Z" id="Shape"></path>
                        <polygon id="Path" points="92.4753 1.0547 92.4753 28.1502 88.5645 28.1502 88.5645 1.0547"></polygon>
                        <path d="M107.715,22.5143 L110.827,24.6153 C109.823,26.1201 107.402,28.713 103.22,28.713 C98.0327,28.713 94.159,24.6528 94.159,19.4671 C94.159,13.9688 98.0656,10.2213 102.771,10.2213 C107.509,10.2213 109.827,14.0397 110.584,16.1031 L111,17.1536 L98.7943,22.2726 C99.7288,24.1276 101.182,25.0738 103.22,25.0738 C105.261,25.0738 106.678,24.0567 107.715,22.5143 Z M98.1356,19.1878 L106.295,15.7571 C105.846,14.6024 104.496,13.7979 102.907,13.7979 C100.869,13.7979 98.0327,15.6196 98.1356,19.1878 Z" id="Shape"></path>
                        <path d="M14.3793,17.066 L14.3793,13.1434 L27.433,13.1434 C27.5606,13.827 27.6265,14.6357 27.6265,15.5111 C27.6265,18.4541 26.832,22.0933 24.2715,24.6861 C21.7809,27.3123 18.5988,28.7129 14.3834,28.7129 C6.57009,28.7129 -3.55271368e-15,22.2684 -3.55271368e-15,14.3565 C-3.55271368e-15,6.4446 6.57009,2.22044605e-13 14.3834,2.22044605e-13 C18.7058,2.22044605e-13 21.785,1.7174 24.0986,3.9559 L21.3652,6.7239 C19.7062,5.1481 17.4585,3.9226 14.3793,3.9226 C8.67368,3.9226 4.21128,8.5789 4.21128,14.3565 C4.21128,20.1341 8.67368,24.7903 14.3793,24.7903 C18.0801,24.7903 20.1878,23.2855 21.538,21.9182 C22.6331,20.8094 23.3535,19.2253 23.6375,17.0618 L14.3793,17.066 Z" id="Path"></path>
                    </g>
                </g>
            </g>
        </g>
    </g>
</svg>