<?xml version="1.0" encoding="UTF-8"?>
<svg width="135px" height="43px" viewBox="0 0 135 43" version="1.1" xmlns="http://www.w3.org/2000/svg" xmlns:xlink="http://www.w3.org/1999/xlink">
    <!-- Generator: Sketch 58 (84663) - https://sketch.com -->
    <title>Brand-Airbnb</title>
    <desc>Created with Sketch.</desc>
    <g id="Page-1" stroke="none" stroke-width="1" fill="none" fill-rule="evenodd">
        <g id="Landing-Page" transform="translate(-539.000000, -5210.000000)" fill="#BCDAF4" fill-rule="nonzero">
            <g id="Testimonials" transform="translate(-389.000000, 4682.000000)">
                <g id="Logos" transform="translate(589.000000, 522.000000)">
                    <g id="Brand-Airbnb" transform="translate(339.000108, 6.000490)">
                        <path d="M71.1498918,10.80381 C71.1498918,12.35331 69.9268918,13.60161 68.4078918,13.60161 C66.8898918,13.60161 65.6668918,12.35331 65.6668918,10.80381 C65.6668918,9.25421 66.8478918,8.00601 68.4078918,8.00601 C69.9688918,8.04901 71.1498918,9.29731 71.1498918,10.80381 Z M59.8468918,16.44241 C59.8468918,16.70071 59.8468918,17.13111 59.8468918,17.13111 C59.8468918,17.13111 58.5398918,15.40941 55.7568918,15.40941 C51.1598918,15.40941 47.5748918,18.98201 47.5748918,23.93191 C47.5748918,28.83881 51.1168918,32.45441 55.7568918,32.45441 C58.5818918,32.45441 59.8468918,30.68971 59.8468918,30.68971 L59.8468918,31.42141 C59.8468918,31.76581 60.0998918,32.02401 60.4378918,32.02401 L63.8538918,32.02401 L63.8538918,15.83981 C63.8538918,15.83981 60.7328918,15.83981 60.4378918,15.83981 C60.0998918,15.83981 59.8468918,16.14111 59.8468918,16.44241 Z M59.8468918,26.81581 C59.2148918,27.76281 57.9498918,28.58061 56.4308918,28.58061 C53.7318918,28.58061 51.6658918,26.85881 51.6658918,23.93191 C51.6658918,21.00501 53.7318918,19.28331 56.4308918,19.28331 C57.9068918,19.28331 59.2568918,20.14411 59.8468918,21.04801 L59.8468918,26.81581 Z M66.3838918,15.83981 L70.4328918,15.83981 L70.4328918,32.02401 L66.3838918,32.02401 L66.3838918,15.83981 Z M126.860892,15.40941 C124.076892,15.40941 122.769892,17.13111 122.769892,17.13111 L122.769892,8.04901 L118.720892,8.04901 L118.720892,32.02401 C118.720892,32.02401 121.841892,32.02401 122.136892,32.02401 C122.474892,32.02401 122.727892,31.72271 122.727892,31.42141 L122.727892,30.68971 C122.727892,30.68971 124.034892,32.45441 126.817892,32.45441 C131.414892,32.45441 134.999892,28.83881 134.999892,23.93191 C134.999892,19.02501 131.414892,15.40941 126.860892,15.40941 Z M126.185892,28.53751 C124.624892,28.53751 123.401892,27.71971 122.769892,26.77281 L122.769892,21.00501 C123.401892,20.14411 124.751892,19.24021 126.185892,19.24021 C128.884892,19.24021 130.950892,20.96201 130.950892,23.88891 C130.950892,26.81581 128.884892,28.53751 126.185892,28.53751 Z M116.611892,22.42541 L116.611892,32.06711 L112.563892,32.06711 L112.563892,22.89891 C112.563892,20.23021 111.719892,19.15411 109.442892,19.15411 C108.219892,19.15411 106.954892,19.79981 106.153892,20.74671 L106.153892,32.02401 L102.104892,32.02401 L102.104892,15.83981 L105.309892,15.83981 C105.646892,15.83981 105.899892,16.14111 105.899892,16.44241 L105.899892,17.13111 C107.080892,15.88291 108.641892,15.40941 110.201892,15.40941 C111.972892,15.40941 113.448892,15.92591 114.629892,16.95891 C116.063892,18.16421 116.611892,19.71371 116.611892,22.42541 Z M92.2788918,15.40941 C89.4948918,15.40941 88.1878918,17.13111 88.1878918,17.13111 L88.1878918,8.04901 L84.1388918,8.04901 L84.1388918,32.02401 C84.1388918,32.02401 87.2598918,32.02401 87.5548918,32.02401 C87.8928918,32.02401 88.1458918,31.72271 88.1458918,31.42141 L88.1458918,30.68971 C88.1458918,30.68971 89.4528918,32.45441 92.2358918,32.45441 C96.8328918,32.45441 100.417892,28.83881 100.417892,23.93191 C100.459892,19.02501 96.8748918,15.40941 92.2788918,15.40941 Z M91.6038918,28.53751 C90.0428918,28.53751 88.8198918,27.71971 88.1878918,26.77281 L88.1878918,21.00501 C88.8198918,20.14411 90.1698918,19.24021 91.6038918,19.24021 C94.3028918,19.24021 96.3688918,20.96201 96.3688918,23.88891 C96.3688918,26.81581 94.3028918,28.53751 91.6038918,28.53751 Z M80.6388918,15.40941 C81.8618918,15.40941 82.4938918,15.62461 82.4938918,15.62461 L82.4938918,19.45541 C82.4938918,19.45541 79.1198918,18.29331 77.0118918,20.74671 L77.0118918,32.06711 L72.9628918,32.06711 L72.9628918,15.83981 C72.9628918,15.83981 76.0838918,15.83981 76.3788918,15.83981 C76.7168918,15.83981 76.9698918,16.14111 76.9698918,16.44241 L76.9698918,17.13111 C77.7288918,16.22721 79.3738918,15.40941 80.6388918,15.40941 Z M38.5918918,30.56051 C38.3808918,30.04401 38.1698918,29.48451 37.9588918,29.01101 C37.6218918,28.23621 37.2848918,27.50451 36.9888918,26.81581 L36.9468918,26.77281 C34.0368918,20.31631 30.9158918,13.77381 27.6268918,7.31731 L27.4998918,7.05901 C27.1628918,6.41341 26.8258918,5.72471 26.4878918,5.03601 C26.0668918,4.26121 25.6448918,3.44344 24.9698918,2.66867 C23.6208918,0.94695 21.6808918,-1.27897692e-13 19.6138918,-1.27897692e-13 C17.5048918,-1.27897692e-13 15.6078918,0.94695 14.2158918,2.58258 C13.5828918,3.35736 13.1188918,4.17521 12.6978918,4.94991 C12.3598918,5.63861 12.0228918,6.32731 11.6848918,6.97301 L11.5588918,7.23121 C8.31189181,13.68771 5.14889181,20.23021 2.23889181,26.68671 L2.19689181,26.77281 C1.90089181,27.46141 1.56389181,28.19321 1.22689181,28.96801 C1.01589181,29.44141 0.804891806,29.95791 0.593891806,30.51751 C0.0458918061,32.11011 -0.123108194,33.61661 0.0878918061,35.16621 C0.551891806,38.39441 2.65989181,41.10611 5.56989181,42.31131 C6.66689181,42.78481 7.80589181,43.00001 8.98589181,43.00001 C9.32389181,43.00001 9.74589181,42.95691 10.0828918,42.91391 C11.4748918,42.74171 12.9088918,42.26831 14.2998918,41.45041 C16.0288918,40.46041 17.6738918,39.04001 19.5298918,36.97401 C21.3848918,39.04001 23.0718918,40.46041 24.7588918,41.45041 C26.1508918,42.26831 27.5848918,42.74171 28.9768918,42.91391 C29.3138918,42.95691 29.7358918,43.00001 30.0728918,43.00001 C31.2538918,43.00001 32.4348918,42.78481 33.4888918,42.31131 C36.4408918,41.10611 38.5078918,38.35131 38.9718918,35.16621 C39.3088918,33.65961 39.1398918,32.15311 38.5918918,30.56051 Z M19.5718918,32.79881 C17.2948918,29.87191 15.8178918,27.11711 15.3118918,24.79281 C15.1018918,23.80281 15.0588918,22.94191 15.1858918,22.16721 C15.2698918,21.47851 15.5228918,20.87591 15.8608918,20.35931 C16.6618918,19.19721 18.0108918,18.46551 19.5718918,18.46551 C21.1318918,18.46551 22.5238918,19.15411 23.2828918,20.35931 C23.6208918,20.87591 23.8738918,21.47851 23.9578918,22.16721 C24.0838918,22.94191 24.0418918,23.84581 23.8308918,24.79281 C23.3248918,27.07411 21.8488918,29.82881 19.5718918,32.79881 Z M36.3988918,34.82181 C36.1038918,37.06001 34.6278918,38.99701 32.5608918,39.85781 C31.5488918,40.28831 30.4528918,40.41741 29.3558918,40.28831 C28.3018918,40.15911 27.2468918,39.81481 26.1508918,39.16921 C24.6328918,38.30831 23.1138918,36.97401 21.3428918,34.99401 C24.1268918,31.50751 25.8138918,28.32231 26.4458918,25.48151 C26.7408918,24.14711 26.7838918,22.94191 26.6568918,21.82281 C26.4878918,20.74671 26.1088918,19.75671 25.5178918,18.89591 C24.2108918,16.95891 22.0178918,15.83981 19.5718918,15.83981 C17.1258918,15.83981 14.9328918,17.00201 13.6248918,18.89591 C13.0348918,19.75671 12.6548918,20.74671 12.4868918,21.82281 C12.3178918,22.94191 12.3598918,24.19021 12.6978918,25.48151 C13.3298918,28.32231 15.0588918,31.55051 17.8008918,35.03701 C16.0718918,37.01701 14.5108918,38.35131 12.9928918,39.21221 C11.8958918,39.85781 10.8418918,40.20221 9.78789181,40.33131 C8.64889181,40.46041 7.55289181,40.28831 6.58289181,39.90091 C4.51589181,39.04001 3.03989181,37.10311 2.74489181,34.86491 C2.61789181,33.78881 2.70289181,32.71271 3.12389181,31.50751 C3.25089181,31.07711 3.46189181,30.64661 3.67289181,30.13011 C3.96789181,29.44141 4.30489181,28.70971 4.64289181,27.97801 L4.68489181,27.89191 C7.59489181,21.47851 10.7158918,14.93591 13.9628918,8.56561 L14.0888918,8.30731 C14.4268918,7.66161 14.7638918,6.97301 15.1018918,6.32731 C15.4388918,5.63861 15.8178918,4.99301 16.2818918,4.43341 C17.1678918,3.4004 18.3488918,2.84084 19.6558918,2.84084 C20.9638918,2.84084 22.1438918,3.4004 23.0298918,4.43341 C23.4938918,4.99301 23.8738918,5.63861 24.2108918,6.32731 C24.5478918,6.97301 24.8858918,7.66161 25.2228918,8.30731 L25.3498918,8.56561 C28.5548918,14.97901 31.6758918,21.52151 34.5858918,27.93491 L34.5858918,27.97801 C34.9228918,28.66671 35.2178918,29.44141 35.5558918,30.13011 C35.7658918,30.64661 35.9768918,31.07711 36.1038918,31.50751 C36.4408918,32.62661 36.5678918,33.70271 36.3988918,34.82181 Z" id="Shape"></path>
                    </g>
                </g>
            </g>
        </g>
    </g>
</svg>