<?xml version="1.0" encoding="UTF-8"?>
<svg width="125px" height="25px" viewBox="0 0 125 25" version="1.1" xmlns="http://www.w3.org/2000/svg" xmlns:xlink="http://www.w3.org/1999/xlink">
    <!-- Generator: Sketch 58 (84663) - https://sketch.com -->
    <title>Brand-Facebook</title>
    <desc>Created with Sketch.</desc>
    <g id="Page-1" stroke="none" stroke-width="1" fill="none" fill-rule="evenodd">
        <g id="Landing-Page" transform="translate(-923.000000, -5219.000000)" fill="#BCDAF4">
            <g id="Testimonials" transform="translate(-389.000000, 4682.000000)">
                <g id="Logos" transform="translate(589.000000, 522.000000)">
                    <g id="Brand-Facebook" transform="translate(723.000000, 15.000500)">
                        <path d="M9.763,3.7871 C8.295,3.7871 7.869,4.4404 7.869,5.8767 L7.869,8.2601 L11.788,8.2601 L11.396,12.114 L7.869,12.114 L7.869,23.8041 L3.167,23.8041 L3.167,12.114 L-5.59552404e-14,12.114 L-5.59552404e-14,8.2601 L3.167,8.2601 L3.167,5.9415 C3.167,2.057 4.734,-3.0908609e-13 9.11,-3.0908609e-13 C10.057,-3.0908609e-13 11.167,0.0648 11.853,0.1624 L11.853,3.7871" id="Path"></path>
                        <path d="M16.816,16.5867 C16.816,18.9053 17.666,20.439 19.853,20.439 C21.78,20.439 22.76,19.0352 22.76,16.816 L22.76,15.248 C22.76,13.0268 21.78,11.623 19.853,11.623 C17.666,11.623 16.816,13.1587 16.816,15.477 L16.816,16.5867 Z M12.114,15.5422 C12.114,11.1992 14.171,7.9333 18.482,7.9333 C20.833,7.9333 22.269,9.1424 22.955,10.6433 L22.955,8.26 L27.462,8.26 L27.462,23.8023 L22.955,23.8023 L22.955,21.4532 C22.301,22.9544 20.833,24.1289 18.482,24.1289 C14.171,24.1289 12.114,20.8651 12.114,16.522 L12.114,15.5422 Z" id="Shape"></path>
                        <path d="M37.255,7.9333 C39.083,7.9333 40.815,8.3248 41.761,8.9783 L40.716,12.3089 C39.998,11.9498 38.823,11.5909 37.582,11.5909 C35.034,11.5909 33.924,13.0595 33.924,15.5748 L33.924,16.4875 C33.924,19.0028 35.034,20.4714 37.582,20.4714 C38.823,20.4714 39.998,20.1125 40.716,19.7533 L41.761,23.0843 C40.815,23.7372 39.083,24.1289 37.255,24.1289 C31.738,24.1289 29.223,21.1571 29.223,16.3901 L29.223,15.6721 C29.223,10.9051 31.738,7.9333 37.255,7.9333 Z" id="Path"></path>
                        <path d="M47.083,14.595 L52.765,14.595 L52.765,14.2036 C52.765,12.5057 52.08,11.167 50.023,11.167 C47.899,11.167 47.083,12.5057 47.083,14.595 Z M42.381,16.6194 L42.381,15.2481 C42.381,10.8403 44.895,7.9333 50.023,7.9333 C54.855,7.9333 56.976,10.8726 56.976,15.1833 L56.976,17.664 L47.083,17.664 C47.181,19.7879 48.128,20.7332 50.741,20.7332 C52.504,20.7332 54.366,20.374 55.737,19.7879 L56.585,23.0192 C55.346,23.6724 52.798,24.1614 50.544,24.1614 C44.602,24.1614 42.381,21.1917 42.381,16.6194 Z" id="Shape"></path>
                        <path d="M69.711,15.4427 C69.711,13.2541 68.861,11.623 66.61,11.623 C64.683,11.623 63.638,12.9943 63.638,15.2135 L63.638,16.8465 C63.638,19.0677 64.683,20.439 66.61,20.439 C68.861,20.439 69.711,18.8059 69.711,16.6173 L69.711,15.4427 Z M74.413,16.5201 C74.413,20.8632 72.324,24.129 68.013,24.129 C65.662,24.129 64.03,22.9525 63.376,21.4513 L63.376,23.8024 L58.936,23.8024 L58.936,0.4545 L63.638,0.0305 L63.638,10.4144 C64.324,9.0432 65.825,7.9334 68.013,7.9334 C72.324,7.9334 74.413,11.1976 74.413,15.5403 L74.413,16.5201 Z" id="Shape"></path>
                        <path d="M86.755,15.3128 C86.755,13.2561 85.905,11.623 83.718,11.623 C81.529,11.623 80.681,13.2561 80.681,15.3128 L80.681,16.7492 C80.681,18.8059 81.529,20.439 83.718,20.439 C85.905,20.439 86.755,18.8059 86.755,16.7492 L86.755,15.3128 Z M75.979,16.4227 L75.979,15.6396 C75.979,11.1666 78.525,7.9333 83.718,7.9333 C88.909,7.9333 91.457,11.1666 91.457,15.6396 L91.457,16.4227 C91.457,20.8973 88.909,24.1289 83.718,24.1289 C78.525,24.1289 75.979,20.8973 75.979,16.4227 Z" id="Shape"></path>
                        <path d="M103.798,15.3128 C103.798,13.2561 102.948,11.623 100.762,11.623 C98.573,11.623 97.725,13.2561 97.725,15.3128 L97.725,16.7492 C97.725,18.8059 98.573,20.439 100.762,20.439 C102.948,20.439 103.798,18.8059 103.798,16.7492 L103.798,15.3128 Z M93.023,16.4227 L93.023,15.6396 C93.023,11.1666 95.569,7.9333 100.762,7.9333 C105.953,7.9333 108.5,11.1666 108.5,15.6396 L108.5,16.4227 C108.5,20.8973 105.953,24.1289 100.762,24.1289 C95.569,24.1289 93.023,20.8973 93.023,16.4227 Z" id="Shape"></path>
                        <polyline id="Path" points="114.963 15.6719 119.6 8.2598 124.596 8.2598 119.73 15.9337 124.791 23.8021 119.797 23.8021 114.963 16.1953 114.963 23.8021 110.261 23.8021 110.261 0.4562 114.963 0.0305"></polyline>
                    </g>
                </g>
            </g>
        </g>
    </g>
</svg>