<?xml version="1.0" encoding="UTF-8"?>
<svg width="106px" height="32px" viewBox="0 0 106 32" version="1.1" xmlns="http://www.w3.org/2000/svg" xmlns:xlink="http://www.w3.org/1999/xlink">
    <!-- Generator: Sketch 58 (84663) - https://sketch.com -->
    <title>Brand-Amazon</title>
    <desc>Created with Sketch.</desc>
    <g id="Page-1" stroke="none" stroke-width="1" fill="none" fill-rule="evenodd">
        <g id="Landing-Page" transform="translate(-751.000000, -5224.000000)" fill="#BCDAF4">
            <g id="Testimonials" transform="translate(-389.000000, 4682.000000)">
                <g id="Logos" transform="translate(589.000000, 522.000000)">
                    <g id="Brand-Amazon" transform="translate(551.000000, 20.000500)">
                        <path d="M65.682,24.9561 C59.529,29.4919 50.612,31.9119 42.934,31.9119 C32.168,31.9119 22.476,27.9292 15.144,21.3053 C14.568,20.7844 15.084,20.0745 15.775,20.4802 C23.688,25.0851 33.472,27.8555 43.579,27.8555 C50.395,27.8555 57.893,26.4449 64.788,23.5179 C65.829,23.0754 66.7,24.2001 65.682,24.9561 Z" id="Path"></path>
                        <path d="M68.24,22.0291 C67.456,21.0242 63.041,21.5543 61.059,21.7894 C60.456,21.8632 60.363,21.3377 60.907,20.9597 C64.424,18.4844 70.194,19.1989 70.866,20.0286 C71.539,20.8629 70.691,26.6479 67.387,29.409 C66.88,29.8331 66.396,29.6072 66.622,29.0449 C67.364,27.1918 69.028,23.0386 68.24,22.0291 Z" id="Path"></path>
                        <path d="M61.198,3.4849 L61.198,1.0787 C61.198,0.7145 61.474,0.4702 61.806,0.4702 L72.576,0.4702 C72.922,0.4702 73.198,0.7191 73.198,1.0787 L73.198,3.1391 C73.194,3.4849 72.903,3.9366 72.387,4.6511 L66.806,12.621 C68.88,12.5703 71.069,12.8791 72.95,13.9393 C73.374,14.179 73.489,14.5293 73.521,14.8751 L73.521,17.4426 C73.521,17.7929 73.134,18.2032 72.728,17.9911 C69.415,16.2533 65.014,16.0643 61.35,18.0096 C60.976,18.2124 60.585,17.8067 60.585,17.4564 L60.585,15.018 C60.585,14.6261 60.589,13.9578 60.981,13.3631 L67.447,4.0887 L61.82,4.0887 C61.474,4.0887 61.198,3.8444 61.198,3.4849 Z" id="Path"></path>
                        <path d="M21.909,18.4982 L18.633,18.4982 C18.319,18.4751 18.07,18.24 18.047,17.9404 L18.047,1.1202 C18.047,0.7837 18.328,0.5163 18.679,0.5163 L21.734,0.5163 C22.052,0.5301 22.306,0.7744 22.329,1.0787 L22.329,3.2774 L22.389,3.2774 C23.186,1.1524 24.684,0.1614 26.702,0.1614 C28.753,0.1614 30.034,1.1524 30.956,3.2774 C31.749,1.1524 33.551,0.1614 35.482,0.1614 C36.855,0.1614 38.357,0.7283 39.275,2.0006 C40.311,3.4157 40.099,5.4716 40.099,7.2739 L40.095,17.8897 C40.095,18.2262 39.814,18.4982 39.463,18.4982 L36.191,18.4982 C35.864,18.4751 35.601,18.2124 35.601,17.8897 L35.601,8.9748 C35.601,8.265 35.666,6.4949 35.509,5.8219 C35.265,4.6926 34.532,4.3745 33.583,4.3745 C32.79,4.3745 31.961,4.9046 31.624,5.7528 C31.288,6.6009 31.32,8.0207 31.32,8.9748 L31.32,17.8897 C31.32,18.2262 31.039,18.4982 30.689,18.4982 L27.417,18.4982 C27.085,18.4751 26.827,18.2124 26.827,17.8897 L26.822,8.9748 C26.822,7.0987 27.131,4.3376 24.804,4.3376 C22.449,4.3376 22.541,7.0296 22.541,8.9748 L22.541,17.8897 C22.541,18.2262 22.26,18.4982 21.909,18.4982 Z" id="Path"></path>
                        <path d="M82.471,0.1614 C87.333,0.1614 89.964,4.3376 89.964,9.6478 C89.964,14.7783 87.056,18.8485 82.471,18.8485 C77.696,18.8485 75.097,14.6722 75.097,9.4681 C75.097,4.2316 77.729,0.1614 82.471,0.1614 Z M82.499,3.5954 C80.084,3.5954 79.9319793,6.8867 79.9319793,8.9379 C79.9319793,10.9938 79.899,15.3821 82.471,15.3821 C85.01,15.3821 85.13,11.8419 85.13,9.6847 C85.13,8.2649 85.07,6.5686 84.642,5.2226 C84.273,4.0518 83.54,3.5954 82.499,3.5954 Z" id="Shape"></path>
                        <path d="M96.269,18.4982 L93.006,18.4982 C92.679,18.4751 92.416,18.2124 92.416,17.8897 L92.412,1.0648 C92.439,0.756 92.711,0.5163 93.043,0.5163 L96.08,0.5163 C96.366,0.5301 96.601,0.7237 96.665,0.9865 L96.665,3.5586 L96.725,3.5586 C97.642,1.2584 98.928,0.1614 101.191,0.1614 C102.661,0.1614 104.094,0.6915 105.016,2.1435 C105.873,3.4895 105.873,5.7528 105.873,7.3799 L105.873,17.9681 C105.836,18.2631 105.565,18.4982 105.242,18.4982 L101.956,18.4982 C101.656,18.4751 101.408,18.2539 101.375,17.9681 L101.375,8.8319 C101.375,6.9927 101.587,4.3007 99.325,4.3007 C98.527,4.3007 97.794,4.8355 97.43,5.6467 C96.97,6.6747 96.91,7.698 96.91,8.8319 L96.91,17.8897 C96.905,18.2262 96.619,18.4982 96.269,18.4982" id="Path"></path>
                        <path d="M52.612,10.4638 C52.612,11.7406 52.644,12.8054 51.999,13.9394 C51.478,14.8613 50.649,15.4283 49.731,15.4283 C48.473,15.4283 47.736,14.4695 47.736,13.0543 C47.736,10.2609 50.238,9.7539 52.612,9.7539 L52.612,10.4638 Z M55.916,18.452 C55.7,18.6456 55.386,18.6595 55.142,18.5304 C54.054,17.6269 53.856,17.2075 53.262,16.3455 C51.464,18.1801 50.188,18.7286 47.86,18.7286 C45.1,18.7286 42.957,17.0277 42.957,13.6212 C42.957,10.9615 44.395,9.15 46.45,8.2649 C48.229,7.4813 50.713,7.343 52.612,7.1264 L52.612,6.7023 C52.612,5.9233 52.672,5.0014 52.211,4.3284 C51.814,3.7245 51.049,3.4756 50.372,3.4756 C49.123,3.4756 48.012,4.1163 47.74,5.4439 C47.685,5.7389 47.469,6.0293 47.169,6.0431 L43.994,5.702 C43.726,5.6421 43.427,5.4254 43.505,5.0152 C44.233,1.1616 47.717,1.84741111e-13 50.833,1.84741111e-13 C52.427,1.84741111e-13 54.51,0.4241 55.769,1.6318 C57.363,3.1207 57.211,5.1074 57.211,7.2693 L57.211,12.3766 C57.211,13.9116 57.847,14.5846 58.446,15.4143 C58.654,15.7094 58.7,16.0643 58.432,16.2855 C57.764,16.8433 56.575,17.8805 55.921,18.4613 L55.916,18.452 L55.916,18.452 Z" id="Shape"></path>
                        <path d="M9.655,10.4638 C9.655,11.7406 9.687,12.8054 9.042,13.9394 C8.521,14.8613 7.696,15.4283 6.775,15.4283 C5.517,15.4283 4.784,14.4695 4.784,13.0543 C4.784,10.2609 7.286,9.7539 9.655,9.7539 L9.655,10.4638 Z M12.959,18.452 C12.743,18.6456 12.429,18.6595 12.185,18.5304 C11.098,17.6269 10.904,17.2075 10.305,16.3455 C8.507,18.1801 7.236,18.7286 4.904,18.7286 C2.148,18.7286 -8.8817842e-16,17.0277 -8.8817842e-16,13.6212 C-8.8817842e-16,10.9615 1.442,9.15 3.493,8.2649 C5.272,7.4813 7.756,7.343 9.655,7.1264 L9.655,6.7023 C9.655,5.9233 9.715,5.0014 9.259,4.3284 C8.858,3.7245 8.093,3.4756 7.42,3.4756 C6.171,3.4756 5.056,4.1163 4.784,5.4439 C4.728,5.7389 4.512,6.0293 4.217,6.0431 L1.037,5.702 C0.77,5.6421 0.475,5.4254 0.548,5.0152 C1.281,1.1616 4.761,1.84741111e-13 7.876,1.84741111e-13 C9.471,1.84741111e-13 11.554,0.4241 12.812,1.6318 C14.406,3.1207 14.254,5.1074 14.254,7.2693 L14.254,12.3766 C14.254,13.9116 14.89,14.5846 15.49,15.4143 C15.701,15.7094 15.748,16.0643 15.48,16.2855 C14.812,16.8433 13.623,17.8805 12.969,18.4613 L12.959,18.452 L12.959,18.452 Z" id="Shape"></path>
                    </g>
                </g>
            </g>
        </g>
    </g>
</svg>