<?xml version="1.0" encoding="UTF-8"?>
<svg width="132px" height="32px" viewBox="0 0 132 32" version="1.1" xmlns="http://www.w3.org/2000/svg" xmlns:xlink="http://www.w3.org/1999/xlink">
    <!-- Generator: Sketch 58 (84663) - https://sketch.com -->
    <title>Brand-Square</title>
    <desc>Created with Sketch.</desc>
    <g id="Page-1" stroke="none" stroke-width="1" fill="none" fill-rule="evenodd">
        <g id="Landing-Page" transform="translate(-1109.000000, -5217.000000)" fill="#BCDAF4" fill-rule="nonzero">
            <g id="Testimonials" transform="translate(-389.000000, 4682.000000)">
                <g id="Logos" transform="translate(589.000000, 522.000000)">
                    <g id="Brand-Square" transform="translate(909.000000, 13.000500)">
                        <path d="M65.979,10.9245 C64.673,10.9618 63.429,11.4878 62.407,12.2779 C62.042,12.5375 61.597,12.9664 61.356,13.3549 C60.833,14.0686 60.389,14.8311 60.138,15.683 C59.413,18.0631 59.542,20.7581 60.702,22.9801 C61.153,23.7704 61.637,24.456 62.35,25.0416 C62.929,25.4001 63.602,25.8723 64.319,26.0578 C66.281,26.6771 68.554,26.3588 70.193,25.098 C70.604,24.8445 70.978,24.3568 71.309,23.9513 C71.285,23.8448 71.623,23.408 71.649,23.7483 C71.647,26.1678 71.65,28.6094 71.649,31.038 C72.386,31.038 73.123,31.038 73.86,31.038 C73.86,24.4463 73.86,17.8546 73.86,11.2628 C73.123,11.2628 72.386,11.2628 71.649,11.2628 C71.649,12.1401 71.649,13.0173 71.649,13.8945 C71.253,13.3175 70.903,12.6849 70.345,12.3155 C69.124,11.3416 67.549,10.8021 65.979,10.9245 Z M66.754,12.917 C67.769,12.9145 68.921,13.1994 69.645,13.8381 C70.223,14.3037 70.655,14.7956 70.968,15.4797 C71.794,17.2474 71.868,19.3495 71.222,21.1855 C70.932,22.0734 70.375,22.8235 69.645,23.4062 C68.571,24.3203 67.015,24.4731 65.656,24.2375 C64.756,24.0839 63.992,23.5719 63.415,22.891 C62.339,21.7159 62.032,20.0157 62.051,18.4587 C62.106,17.1074 62.367,15.6897 63.201,14.59 C63.762,13.8993 64.497,13.3023 65.397,13.0908 C65.834,12.9503 66.296,12.9041 66.754,12.917 Z" id="Shape"></path>
                        <path d="M49.736,5.2665 C48.053,5.3335 46.34,5.7723 44.992,6.8079 C44.715,6.9907 44.409,7.3206 44.218,7.6073 C43.395,8.641 42.974,9.9844 43.105,11.3042 C43.153,12.2644 43.509,13.1979 44.16,13.9135 C44.351,14.1993 44.719,14.5238 45.019,14.7112 C46.76,16.0571 49.024,16.3071 51.079,16.9191 C52.362,17.3077 53.847,17.5714 54.687,18.7069 C55.398,19.5707 55.378,20.8691 54.99,21.8837 C54.657,22.7148 53.931,23.3089 53.156,23.7259 C51.535,24.4237 49.656,24.3784 47.978,23.911 C46.714,23.5263 45.593,22.7792 44.772,21.7433 C44.562,21.4029 44.376,21.1837 44.047,21.5769 C43.55,21.9236 43.052,22.2702 42.554,22.6168 C42.954,23.2414 43.426,23.841 43.99,24.271 C44.956,25.0053 46.002,25.6548 47.19,25.9594 C49.411,26.6178 51.877,26.5492 54.026,25.662 C54.893,25.2116 55.721,24.7565 56.334,24.0009 C57.128,23.0683 57.637,21.7601 57.662,20.4854 C57.727,19.2616 57.33,18.0203 56.52,17.0903 C56.366,16.8484 56.087,16.6011 55.82,16.4465 C55.416,16.0893 54.958,15.8652 54.462,15.5984 C52.252,14.4985 49.731,14.2611 47.472,13.2998 C46.781,12.9579 46.088,12.4843 45.729,11.7893 C45.191,10.6026 45.61,9.1006 46.663,8.3479 C47.583,7.6148 48.846,7.3991 50.012,7.3907 C52.036,7.3701 54.089,8.2482 55.311,9.872 C55.916,9.4208 56.52,8.9697 57.125,8.5185 C56.595,7.7839 55.932,7.2148 55.206,6.7282 C53.603,5.68 51.652,5.1683 49.736,5.2665 Z" id="Path"></path>
                        <path d="M77.592,20.8496 C77.594,22.1413 77.858,23.4834 78.65,24.534 C78.997,25.0942 79.68,25.5395 80.287,25.8693 C81.875,26.5997 83.78,26.4881 85.351,25.772 C86.067,25.3867 86.755,24.9073 87.212,24.2896 C87.421,24.0974 87.657,23.5518 87.779,23.5227 C87.779,24.3548 87.779,25.1869 87.779,26.019 C88.516,26.019 89.253,26.019 89.99,26.019 C89.99,21.1003 89.99,16.1815 89.99,11.2628 C89.253,11.2628 88.516,11.2628 87.779,11.2628 C87.763,14.2765 87.814,17.2919 87.741,20.3045 C87.562,21.5175 87.008,22.6889 86.002,23.4249 C84.783,24.3489 83.016,24.5734 81.58,24.0076 C80.573,23.5579 80,22.4598 79.928,21.3811 C79.755,19.4942 79.878,17.595 79.841,15.7028 C79.841,14.2228 79.841,12.7428 79.841,11.2628 C79.091,11.2628 78.341,11.2628 77.592,11.2628 C77.592,14.4584 77.592,17.654 77.592,20.8496 Z" id="Path"></path>
                        <path d="M99.07,10.9245 C97.15,10.9865 95.25,11.6072 93.68,12.7103 C94.01,13.2491 94.33,13.788 94.65,14.3269 C95.95,13.3322 97.63,12.9254 99.25,12.8606 C100.43,12.8446 101.82,13.0691 102.5,14.1105 C102.88,14.8171 102.8,15.8313 102.13,16.3382 C101.58,16.8692 100.63,17.0875 99.83,17.2405 C98.3,17.5199 96.69,17.5799 95.26,18.2235 C94.62,18.5238 94.02,18.9654 93.65,19.5338 C92.85,20.5113 92.8,21.8682 93.03,23.0529 C93.17,23.7215 93.51,24.3048 93.93,24.8348 C94.15,25.1591 94.58,25.3761 94.95,25.6431 C96.33,26.4284 98.03,26.4922 99.57,26.1966 C100.47,25.9915 101.31,25.5295 101.96,24.9428 C102.3,24.7231 102.37,24.3552 102.66,24.1393 C102.94,24.2159 102.72,24.6685 102.79,24.8912 C102.79,25.2671 102.79,25.6431 102.79,26.019 C103.51,26.019 104.22,26.019 104.93,26.019 C104.91,22.1908 104.97,18.3608 104.89,14.5336 C104.72,13.4835 104.16,12.3979 103.23,11.8867 C102.03,11.0999 100.5,10.8441 99.07,10.9245 Z M102.72,17.8796 C102.66,19.42 102.97,21.0839 102.19,22.4987 C101.56,23.6474 100.29,24.3258 98.99,24.4262 C97.84,24.5218 96.49,24.3776 95.71,23.4438 C95.15,22.7665 95.04,21.738 95.31,20.9066 C95.52,20.1854 96.17,19.7392 96.86,19.5133 C98.49,18.9571 100.26,18.9534 101.87,18.3308 C102.19,18.1551 102.48,17.989 102.72,17.7481 C102.72,17.7919 102.72,17.8358 102.72,17.8796 Z" id="Shape"></path>
                        <path d="M115.12,10.981 C113.94,11.0725 112.79,11.6082 111.97,12.376 C111.61,12.7691 111.28,13.2617 110.97,13.7442 C110.97,12.9171 110.97,12.09 110.97,11.2629 C110.23,11.2629 109.49,11.2629 108.76,11.2629 C108.76,16.1817 108.76,21.1004 108.76,26.0191 C109.49,26.0191 110.23,26.0191 110.97,26.0191 C110.99,23.1424 110.92,20.2624 111.01,17.3878 C111.18,15.9958 111.77,14.5788 112.96,13.7631 C114.02,12.9681 115.54,12.9072 116.77,13.3871 C117.03,13.2538 116.93,12.8026 117.07,12.5475 C117.16,12.1819 117.26,11.8164 117.35,11.4509 C116.69,11.0666 115.89,10.9357 115.12,10.981 L115.12,10.981 Z" id="Path"></path>
                        <path d="M124.79,10.9247 C123.5,10.9467 122.25,11.4048 121.18,12.1089 C120.97,12.2718 120.71,12.4594 120.48,12.659 C119.92,13.1919 119.51,13.8477 119.1,14.5338 C118.01,16.6798 117.88,19.2561 118.57,21.5467 C118.87,22.5965 119.51,23.5706 120.19,24.3515 C120.47,24.6359 120.78,24.8713 121.05,25.0606 C122.18,25.8696 123.55,26.3056 124.93,26.3478 C126.78,26.4502 128.72,26.0162 130.16,24.8181 C130.61,24.513 130.99,24.1505 131.35,23.7071 C130.85,23.256 130.35,22.8048 129.86,22.3537 C129.09,23.3334 127.97,24.0123 126.74,24.2273 C125.02,24.5571 123.04,24.1951 121.85,22.8513 C120.86,21.8993 120.53,20.4417 120.5,19.1017 C120.71,18.7624 121.24,19.0471 121.58,18.9513 C125.03,18.9513 128.48,18.9513 131.93,18.9513 C132.18,16.9526 131.72,14.8311 130.45,13.2406 C130.14,12.7697 129.65,12.4286 129.18,12.0901 C127.93,11.2058 126.31,10.8318 124.79,10.9247 Z M125.58,12.8045 C127.06,12.8924 128.49,13.7156 129.17,15.0216 C129.5,15.7176 129.69,16.4887 129.7,17.2595 C126.64,17.2595 123.58,17.2595 120.52,17.2595 C120.66,16.1785 120.92,15.0154 121.73,14.2331 C121.87,13.9857 122.28,13.7431 122.51,13.5084 C123.41,12.9254 124.52,12.7301 125.58,12.8045 Z" id="Shape"></path>
                        <path d="M26.812,0 L5.363,0 C2.414,0 3.55271368e-15,2.4002 3.55271368e-15,5.3341 L3.55271368e-15,26.6677 C3.55271368e-15,29.6002 2.414,32 5.363,32 L26.812,32 C29.761,32 32.175,29.6002 32.175,26.6677 L32.175,5.3341 C32.175,2.4002 29.761,0 26.812,0 Z M26.324,24.4874 C26.324,25.4195 25.557,26.1806 24.619,26.1806 L7.555,26.1806 C6.617,26.1806 5.849,25.4195 5.849,24.4874 L5.849,7.5154 C5.849,6.5828 6.617,5.8194 7.555,5.8194 L24.619,5.8194 C25.557,5.8194 26.324,6.5828 26.324,7.5154 L26.324,24.4874 Z M20.476,19.3938 C20.476,19.9289 20.037,20.364 19.502,20.364 L12.678,20.364 C12.141,20.364 11.704,19.9289 11.704,19.3938 L11.704,12.6066 C11.704,12.0734 12.141,11.6374 12.678,11.6374 L19.502,11.6374 C20.037,11.6374 20.476,12.0734 20.476,12.6066 L20.476,19.3938 Z" id="Shape"></path>
                    </g>
                </g>
            </g>
        </g>
    </g>
</svg>