<?xml version="1.0" encoding="UTF-8"?>
<svg width="28px" height="18px" viewBox="0 0 28 18" version="1.1" xmlns="http://www.w3.org/2000/svg" xmlns:xlink="http://www.w3.org/1999/xlink">
    <!-- Generator: Sketch 58 (84663) - https://sketch.com -->
    <title>Icon-Quote1</title>
    <desc>Created with Sketch.</desc>
    <g id="Page-1" stroke="none" stroke-width="1" fill="none" fill-rule="evenodd">
        <g id="Landing-Page" transform="translate(-82.000000, -5946.000000)" fill="#0091FF" fill-rule="nonzero">
            <g id="Testimonials" transform="translate(-389.000000, 4682.000000)">
                <g id="Testimonial" transform="translate(449.000000, 1242.000000)">
                    <path d="M22,28.0398671 C22,24.5116279 24.7096019,22 28.3629977,22 C32.3512881,22 35,25.1694352 35,29.2358804 C35,36.2923588 29.1545667,40 25.9882904,40 C25.1053864,40 24.4660422,39.4318937 24.4660422,38.6245847 C24.4660422,37.9368771 24.8313817,37.4285714 25.8665105,37.1893688 C28.058548,36.6511628 30.2810304,35.0664452 31.2248244,32.7940199 L30.8899297,32.7940199 C30.0983607,33.7209302 28.8501171,33.9900332 27.5105386,33.9900332 C24.1615925,33.9900332 22,31.4186047 22,28.0398671 Z M37,28.0398671 C37,24.5116279 39.7400468,22 43.3629977,22 C47.3512881,22 50,25.1694352 50,29.2358804 C50,36.2923588 44.1545667,40 40.9882904,40 C40.1053864,40 39.4660422,39.4318937 39.4660422,38.6245847 C39.4660422,37.9368771 39.8313817,37.4285714 40.8665105,37.1893688 C43.058548,36.6511628 45.2810304,35.0664452 46.2248244,32.7940199 L45.8899297,32.7940199 C45.0983607,33.7209302 43.8501171,33.9900332 42.5105386,33.9900332 C39.1615925,33.9900332 37,31.4186047 37,28.0398671 Z" id="Icon-Quote1" transform="translate(36.000000, 31.000000) scale(-1, -1) translate(-36.000000, -31.000000) "></path>
                </g>
            </g>
        </g>
    </g>
</svg>