<?xml version="1.0" encoding="UTF-8"?>
<svg width="20px" height="13px" viewBox="0 0 20 13" version="1.1" xmlns="http://www.w3.org/2000/svg" xmlns:xlink="http://www.w3.org/1999/xlink">
    <!-- Generator: Sketch 58 (84663) - https://sketch.com -->
    <title>Icon-Quote2</title>
    <desc>Created with Sketch.</desc>
    <g id="Page-1" stroke="none" stroke-width="1" fill="none" fill-rule="evenodd">
        <g id="Landing-Page" transform="translate(-406.000000, -6108.000000)" fill="#0091FF" fill-rule="nonzero">
            <g id="Testimonials" transform="translate(-389.000000, 4682.000000)">
                <g id="Testimonial" transform="translate(449.000000, 1242.000000)">
                    <path d="M346,188.362126 C346,185.813953 347.875878,184 350.405152,184 C353.166276,184 355,186.289037 355,189.225914 C355,194.322259 350.953162,197 348.761124,197 C348.149883,197 347.70726,196.589701 347.70726,196.006645 C347.70726,195.509967 347.960187,195.142857 348.676815,194.9701 C350.194379,194.581395 351.733021,193.436877 352.386417,191.795681 L352.154567,191.795681 C351.606557,192.465116 350.742389,192.659468 349.814988,192.659468 C347.496487,192.659468 346,190.802326 346,188.362126 Z M357,188.362126 C357,185.813953 358.896956,184 361.405152,184 C364.166276,184 366,186.289037 366,189.225914 C366,194.322259 361.953162,197 359.761124,197 C359.149883,197 358.70726,196.589701 358.70726,196.006645 C358.70726,195.509967 358.960187,195.142857 359.676815,194.9701 C361.194379,194.581395 362.733021,193.436877 363.386417,191.795681 L363.154567,191.795681 C362.606557,192.465116 361.742389,192.659468 360.814988,192.659468 C358.496487,192.659468 357,190.802326 357,188.362126 Z" id="Icon-Quote2"></path>
                </g>
            </g>
        </g>
    </g>
</svg>