<?xml version="1.0" encoding="UTF-8"?>
<svg width="20px" height="19px" viewBox="0 0 20 19" version="1.1" xmlns="http://www.w3.org/2000/svg" xmlns:xlink="http://www.w3.org/1999/xlink">
    <!-- Generator: Sketch 58 (84663) - https://sketch.com -->
    <title>Icon-Chat</title>
    <desc>Created with Sketch.</desc>
    <g id="Page-1" stroke="none" stroke-width="1" fill="none" fill-rule="evenodd">
        <g id="Landing-Page" transform="translate(-638.000000, -5777.000000)">
            <g id="Testimonials" transform="translate(-389.000000, 4682.000000)">
                <g id="Tweets" transform="translate(449.000000, 638.000000)">
                    <g id="Button" transform="translate(568.000000, 448.000000)">
                        <g id="Icon-Chat" transform="translate(8.000000, 6.000000)">
                            <rect id="Rectangle" x="0" y="0" width="24" height="24"></rect>
                            <path d="M3,3 C2.44772,3 2,3.44772 2,4 L2,16 C2,16.5523 2.44772,17 3,17 L7,17 L7,20.6284 C7,21.0351 7.45968,21.2717 7.79062,21.0353 L13.44,17 L21,17 C21.5523,17 22,16.5523 22,16 L22,4 C22,3.44772 21.5523,3 21,3 L3,3 Z" id="Path" fill="#BCDAF4"></path>
                            <path d="M5,6.16666667 C5,6.07461667 5.08954,6 5.2,6 L11.8,6 C11.9105,6 12,6.07461667 12,6.16666667 L12,6.83333333 C12,6.92538333 11.9105,7 11.8,7 L5.2,7 C5.08954,7 5,6.92538333 5,6.83333333 L5,6.16666667 Z M5,9.46672361 C5,9.37466978 5.08954,9.30005 5.2,9.30005 L18.8,9.30005 C18.9105,9.30005 19,9.37466978 19,9.46672361 L19,10.1333764 C19,10.2254636 18.9105,10.30005 18.8,10.30005 L5.2,10.30005 C5.08954,10.30005 5,10.2254636 5,10.1333764 L5,9.46672361 Z M5.2,12.3 C5.08954,12.3 5,12.3746667 5,12.4666667 L5,13.1333333 C5,13.2254167 5.08954,13.3 5.2,13.3 L14.8,13.3 C14.9105,13.3 15,13.2254167 15,13.1333333 L15,12.4666667 C15,12.3746667 14.9105,12.3 14.8,12.3 L5.2,12.3 Z" id="Shape" fill="#0091FF"></path>
                        </g>
                    </g>
                </g>
            </g>
        </g>
    </g>
</svg>