<?xml version="1.0" encoding="UTF-8"?>
<svg width="20px" height="14px" viewBox="0 0 20 14" version="1.1" xmlns="http://www.w3.org/2000/svg" xmlns:xlink="http://www.w3.org/1999/xlink">
    <!-- Generator: Sketch 57.1 (83088) - https://sketch.com -->
    <title>Icon-Card</title>
    <desc>Created with Sketch.</desc>
    <g id="Page-1" stroke="none" stroke-width="1" fill="none" fill-rule="evenodd">
        <g id="Landing-Page" transform="translate(-209.000000, -541.000000)">
            <g id="Hero" transform="translate(-294.000000, -380.012887)">
                <g id="Button" transform="translate(469.000000, 894.012887)">
                    <g id="Icon-Card" transform="translate(32.000000, 22.000000)">
                        <rect id="Rectangle" x="0" y="0" width="24" height="24"></rect>
                        <path d="M14,14.5 C14,13.6716 14.6716,13 15.5,13 L17.5,13 C18.3284,13 19,13.6716 19,14.5 C19,15.3284 18.3284,16 17.5,16 L15.5,16 C14.6716,16 14,15.3284 14,14.5 Z M5,15.6 C5,15.2686 5.26863,15 5.6,15 L11.4,15 C11.7314,15 12,15.2686 12,15.6 C12,15.9314 11.7314,16.2 11.4,16.2 L5.6,16.2 C5.26863,16.2 5,15.9314 5,15.6 Z M5.6,13 C5.26863,13 5,13.2686 5,13.6 C5,13.9314 5.26863,14.2 5.6,14.2 L8.4,14.2 C8.73137,14.2 9,13.9314 9,13.6 C9,13.2686 8.73137,13 8.4,13 L5.6,13 Z" id="Shape" fill="#2249B3"></path>
                        <path d="M2,7 C2,5.89543 2.89543,5 4,5 L20,5 C21.1046,5 22,5.89543 22,7 L22,8 L2,8 L2,7 Z M2,11 L22,11 L22,17 C22,18.1046 21.1046,19 20,19 L4,19 C2.89543,19 2,18.1046 2,17 L2,11 Z M15.5,13 C14.6716,13 14,13.6716 14,14.5 C14,15.3284 14.6716,16 15.5,16 L17.5,16 C18.3284,16 19,15.3284 19,14.5 C19,13.6716 18.3284,13 17.5,13 L15.5,13 Z M5.6,15 C5.26863,15 5,15.2686 5,15.6 C5,15.9314 5.26863,16.2 5.6,16.2 L11.4,16.2 C11.7314,16.2 12,15.9314 12,15.6 C12,15.2686 11.7314,15 11.4,15 L5.6,15 Z M5,13.6 C5,13.2686 5.26863,13 5.6,13 L8.4,13 C8.73137,13 9,13.2686 9,13.6 C9,13.9314 8.73137,14.2 8.4,14.2 L5.6,14.2 C5.26863,14.2 5,13.9314 5,13.6 Z" id="Shape" fill="#FCAACF"></path>
                        <path d="M5.6,13 C5.26863,13 5,13.2686 5,13.6 C5,13.9314 5.26863,14.2 5.6,14.2 L8.4,14.2 C8.73137,14.2 9,13.9314 9,13.6 C9,13.2686 8.73137,13 8.4,13 L5.6,13 Z M5.6,15 C5.26863,15 5,15.2686 5,15.6 C5,15.9314 5.26863,16.2 5.6,16.2 L11.4,16.2 C11.7314,16.2 12,15.9314 12,15.6 C12,15.2686 11.7314,15 11.4,15 L5.6,15 Z" id="Shape" fill-opacity="0.3" fill="#000000"></path>
                    </g>
                </g>
            </g>
        </g>
    </g>
</svg>