<?xml version="1.0" encoding="UTF-8"?>
<svg width="18px" height="18px" viewBox="0 0 18 18" version="1.1" xmlns="http://www.w3.org/2000/svg" xmlns:xlink="http://www.w3.org/1999/xlink">
    <!-- Generator: Sketch 57.1 (83088) - https://sketch.com -->
    <title>Icon-Download</title>
    <desc>Created with Sketch.</desc>
    <g id="Page-1" stroke="none" stroke-width="1" fill="none" fill-rule="evenodd">
        <g id="Landing-Page" transform="translate(-200.000000, -705.000000)">
            <g id="Hero" transform="translate(-294.000000, -380.012887)">
                <g id="Download" transform="translate(483.000000, 1076.012887)">
                    <g id="Icon-Download" transform="translate(8.000000, 6.000000)">
                        <rect id="Rectangle" x="0" y="0" width="24" height="24"></rect>
                        <path d="M3,19.5 C3,18.6716 3.67157,18 4.5,18 L11,18 L19.5,18 C20.3284,18 21,18.6716 21,19.5 C21,20.3284 20.3284,21 19.5,21 L13,21 L4.5,21 C3.67157,21 3,20.3284 3,19.5 Z" id="Path" fill="#AFA0F6"></path>
                        <path d="M11,4 C11,3.44772 11.4477,3 12,3 C12.5523,3 13,3.44772 13,4 L13,13.2469 L15.5397,10.7071 C15.9303,10.3166 16.5634,10.3166 16.954,10.7071 C17.3445,11.0976 17.3445,11.7308 16.954,12.1213 L12.7113,16.364 C12.619,16.4563 12.513,16.5268 12.4,16.5755 C12.0364,16.7375 11.5951,16.6693 11.2968,16.371 L7.0471,12.1213 C6.65658,11.7308 6.65658,11.0976 7.0471,10.7071 C7.43763,10.3166 8.07079,10.3166 8.46132,10.7071 L11,13.2458 L11,4 Z" id="Path" fill="#DF9EFD"></path>
                        <path d="M7.0471,10.7071 C7.43763,10.3166 8.07079,10.3166 8.46132,10.7071 L12.0005,14.2463 L15.5397,10.7071 C15.9303,10.3166 16.5634,10.3166 16.954,10.7071 C17.3445,11.0976 17.3445,11.7308 16.954,12.1213 L12.7113,16.3639 C12.619,16.4563 12.513,16.5268 12.4,16.5755 C12.0364,16.7374 11.5951,16.6693 11.2968,16.371 L7.0471,12.1213 C6.65658,11.7308 6.65658,11.0976 7.0471,10.7071 Z" id="Path" fill="#DF9EFD"></path>
                    </g>
                </g>
            </g>
        </g>
    </g>
</svg>