<?xml version="1.0" encoding="UTF-8"?>
<svg width="18px" height="18px" viewBox="0 0 18 18" version="1.1" xmlns="http://www.w3.org/2000/svg" xmlns:xlink="http://www.w3.org/1999/xlink">
    <!-- Generator: Sketch 57.1 (83088) - https://sketch.com -->
    <title>Icon-Shadow</title>
    <desc>Created with Sketch.</desc>
    <g id="Page-1" stroke="none" stroke-width="1" fill="none" fill-rule="evenodd">
        <g id="Landing-Page" transform="translate(-963.000000, -493.000000)">
            <g id="Hero" transform="translate(-294.000000, -380.012887)">
                <g id="Option-1" transform="translate(1196.000000, 738.012887)">
                    <g id="Icon-Shadow" transform="translate(58.000000, 132.000000)">
                        <rect id="Rectangle" x="0" y="0" width="24" height="24"></rect>
                        <path d="M13,13 C12.4477,13 12,13.4477 12,14 L12,15 L4,15 C3.44772,15 3,15.4477 3,16 L3,18 C3,18.5523 3.44772,19 4,19 L12,19 L12,20 C12,20.5523 12.4477,21 13,21 L16,21 C16.5523,21 17,20.5523 17,20 L17,19 L20,19 C20.5523,19 21,18.5523 21,18 L21,16 C21,15.4477 20.5523,15 20,15 L17,15 L17,14 C17,13.4477 16.5523,13 16,13 L13,13 Z M17,17.8 L17,16.2 L19.3,16.2 C19.5761,16.2 19.8,16.4239 19.8,16.7 L19.8,17.3 C19.8,17.5761 19.5761,17.8 19.3,17.8 L17,17.8 Z" id="Shape" fill="#2249B3"></path>
                        <path d="M7,3 C6.44772,3 6,3.44772 6,4 L6,5 L4,5 C3.44772,5 3,5.44772 3,6 L3,8 C3,8.55228 3.44772,9 4,9 L6,9 L6,10 C6,10.5523 6.44772,11 7,11 L10,11 C10.5523,11 11,10.5523 11,10 L11,9 L20,9 C20.5523,9 21,8.55228 21,8 L21,6 C21,5.44772 20.5523,5 20,5 L11,5 L11,4 C11,3.44772 10.5523,3 10,3 L7,3 Z M11,7.8 L11,6.2 L19.3,6.2 C19.5761,6.2 19.8,6.42386 19.8,6.7 L19.8,7.3 C19.8,7.57614 19.5761,7.8 19.3,7.8 L11,7.8 Z" id="Shape" fill="#FCAACF"></path>
                        <path d="M7,3 C6.44772,3 6,3.44772 6,4 L6,10 C6,10.5523 6.44772,11 7,11 L10,11 C10.5523,11 11,10.5523 11,10 L11,4 C11,3.44772 10.5523,3 10,3 L7,3 Z M13,13 C12.4477,13 12,13.4477 12,14 L12,20 C12,20.5523 12.4477,21 13,21 L16,21 C16.5523,21 17,20.5523 17,20 L17,14 C17,13.4477 16.5523,13 16,13 L13,13 Z" id="Shape" fill-opacity="0.4" fill="#000000"></path>
                    </g>
                </g>
            </g>
        </g>
    </g>
</svg>