<?xml version="1.0" encoding="UTF-8"?>
<svg width="12px" height="20px" viewBox="0 0 12 20" version="1.1" xmlns="http://www.w3.org/2000/svg" xmlns:xlink="http://www.w3.org/1999/xlink">
    <!-- Generator: Sketch 57.1 (83088) - https://sketch.com -->
    <title>Group</title>
    <desc>Created with Sketch.</desc>
    <g id="Page-1" stroke="none" stroke-width="1" fill="none" fill-rule="evenodd">
        <g id="Landing-Page" transform="translate(-629.000000, -651.000000)">
            <g id="Hero" transform="translate(-294.000000, -380.012887)">
                <g id="Option-2" transform="translate(889.000000, 993.012887)">
                    <g id="Group" transform="translate(28.000000, 36.000000)">
                        <rect id="Rectangle" x="0" y="0" width="24" height="24"></rect>
                        <path d="M6,4 C6,2.89543 6.89543,2 8,2 L16,2 C17.1046,2 18,2.89543 18,4 L18,17 L18,20 C18,21.1046 17.1046,22 16,22 L8,22 C6.89543,22 6,21.1046 6,20 L6,8 L6,4 Z" id="Path" fill="#2249B3"></path>
                        <path d="M8,4.5 C8,4.22386 8.22386,4 8.5,4 L15.5,4 C15.7761,4 16,4.22386 16,4.5 L16,13.5 L16,16.5 C16,16.7761 15.7761,17 15.5,17 L8.5,17 C8.22386,17 8,16.7761 8,16.5 L8,7.5 L8,4.5 Z" id="Path" fill="#FCAACF"></path>
                        <path d="M12,20.4 C12.3113,20.4 12.5894,20.2578 12.7728,20.0347 C12.9148,19.8621 13,19.641 13,19.4 C13,19.1009 12.8686,18.8324 12.6605,18.6492 C12.4843,18.4941 12.2531,18.4 12,18.4 C11.4477,18.4 11,18.8477 11,19.4 C11,19.6746 11.1107,19.9234 11.2898,20.1041 C11.471,20.2868 11.7223,20.4 12,20.4 Z" id="Path" fill-opacity="0.5" fill="#000000"></path>
                    </g>
                </g>
            </g>
        </g>
    </g>
</svg>