<?xml version="1.0" encoding="UTF-8"?>
<svg width="20px" height="20px" viewBox="0 0 20 20" version="1.1" xmlns="http://www.w3.org/2000/svg" xmlns:xlink="http://www.w3.org/1999/xlink">
    <!-- Generator: Sketch 57.1 (83088) - https://sketch.com -->
    <title>Icon-Style</title>
    <desc>Created with Sketch.</desc>
    <g id="Page-1" stroke="none" stroke-width="1" fill="none" fill-rule="evenodd">
        <g id="Landing-Page" transform="translate(-962.000000, -454.000000)">
            <g id="Hero" transform="translate(-294.000000, -380.012887)">
                <g id="Option-1" transform="translate(1196.000000, 738.012887)">
                    <g id="Icon-Style" transform="translate(58.000000, 94.000000)">
                        <rect id="Rectangle" x="0" y="0" width="24" height="24"></rect>
                        <path d="M8,4 C8,2.89543 8.89543,2 10,2 L20,2 C21.1046,2 22,2.89543 22,4 L22,14 C22,15.1046 21.1046,16 20,16 L15.9951,16 L15.9951,10 C15.9951,8.89543 15.0997,8 13.9951,8 L8,8 L8,4 Z" id="Path" fill="#2249B3"></path>
                        <path d="M2,10 C2,8.89543 2.89543,8 4,8 L14,8 C15.1046,8 16,8.89543 16,10 L16,14 L16,20 C16,21.1046 15.1046,22 14,22 L4,22 C2.89543,22 2,21.1046 2,20 L2,17 L2,10 Z" id="Path" fill="#FCAACF"></path>
                        <path d="M8,4 C8,2.89543 8.89543,2 10,2 L20,2 C21.1046,2 22,2.89543 22,4 L22,14 C22,15.1046 21.1046,16 20,16 L15.9951,16 L15.9951,10 C15.9951,8.89543 15.0997,8 13.9951,8 L8,8 L8,4 Z" id="Path" fill-opacity="0.01" fill="#000000"></path>
                    </g>
                </g>
            </g>
        </g>
    </g>
</svg>