<?xml version="1.0" encoding="UTF-8"?>
<svg width="543px" height="379px" viewBox="0 0 543 379" version="1.1" xmlns="http://www.w3.org/2000/svg" xmlns:xlink="http://www.w3.org/1999/xlink">
    <!-- Generator: Sketch 57.1 (83088) - https://sketch.com -->
    <title>Illustration3</title>
    <desc>Created with Sketch.</desc>
    <defs>
        <rect id="path-1" x="0.27011311" y="0.436926003" width="17.2572265" height="15.7653712"></rect>
        <path d="M2.82118137,2.98941468 C1.42034477,4.39178199 1.42034477,6.66424764 2.82118137,8.06586422 L3.77783197,9.02304747 L3.77333008,9.02755186 L8.84695466,14.1040014 L8.85145655,14.099497 L8.85595843,14.1040014 L13.929583,9.02755186 L13.9250811,9.02304747 L14.8809814,8.06586422 C16.2825683,6.66424764 16.2825683,4.39178199 14.8809814,2.98941468 C13.4801448,1.5877981 11.2089437,1.5877981 9.80810714,2.98941468 L8.85145655,3.94659793 L7.89480595,2.98941468 C6.49396935,1.5877981 4.22276828,1.5877981 2.82118137,2.98941468 Z" id="path-3"></path>
    </defs>
    <g id="Page-1" stroke="none" stroke-width="1" fill="none" fill-rule="evenodd">
        <g id="Landing-Page" transform="translate(-199.000000, -3603.000000)">
            <g id="All-Mockups" transform="translate(-314.000000, 3501.000000)">
                <g id="Illustration3" transform="translate(484.000000, 66.000000)">
                    <g id="Group" transform="translate(29.262254, 36.785866)">
                        <path d="M429.472342,300.632116 C444.17925,302.896324 473.932959,299.160682 475.290278,266.108206 C476.987489,224.792423 456.623961,156.310653 481.512633,138.199244 C506.401306,120.088586 521.673951,64.6237582 512.623661,49.9079102" id="Path" stroke="#7BCFF1" stroke-width="1.49812734"></path>
                        <path d="M64.8098891,193.159581 C86.0070154,147.207277 35.8438596,144.012913 25.2732832,101.932134" id="Path" stroke="#7BCFF1" stroke-width="0.74906367"></path>
                        <path d="M99.6957476,318.743525 C76.1268781,310.065063 30.4599051,286.596432 36.3426685,262.146593 C43.6961978,231.584295 83.2923787,231.018243 71.4134044,204.983609 C59.53443,178.948975 31.1959633,169.319336 29.5548761,138.765296 C27.6273189,102.877305 72.1899796,94.2025975 78.2007466,60.6613949 C83.17608,32.901579 69.533117,18.5697305 64.8196432,17.0604589" id="Path" stroke="#7BCFF1" stroke-width="1.49812734"></path>
                        <path d="M505.060494,46.0131128 C504.724353,52.4829208 510.450001,52.2802232 513.354467,51.3695853 C513.354467,50.5295163 515.55889,50.1091064 516.398492,46.0131128 C517.070773,42.735417 509.119694,38.2047496 505.060494,36.3489402 C505.200803,36.8744526 505.396635,39.542554 505.060494,46.0131128 Z" id="Path" fill="#B9DEFC" fill-rule="nonzero"></path>
                        <path d="M495.385943,97.8263807 C495.717582,104.29694 504.106845,105.038663 504.106845,105.038663 C504.106845,105.038663 506.249742,100.819549 506.663165,96.6582418 C506.994054,93.3294963 498.619797,89.6419009 494.391026,88.2140087 C494.584607,88.7222542 495.053554,91.3558219 495.385943,97.8263807 Z" id="Path" fill="#B9DEFC" fill-rule="nonzero"></path>
                        <ellipse id="Oval" fill="#B9DEFC" fill-rule="nonzero" cx="65.3426122" cy="14.7587898" rx="3.51818574" ry="3.52014464"></ellipse>
                        <ellipse id="Oval" fill="#B9DEFC" fill-rule="nonzero" cx="23.6927463" cy="100.709942" rx="3.51818574" ry="3.52014464"></ellipse>
                        <path d="M31.1277597,368.008058 L157.308623,368.008058" id="Path" stroke="#8BADFF" stroke-width="0.692403745"></path>
                        <path d="M31.1277597,363.363279 L157.308623,363.363279" id="Path" stroke="#8BADFF" stroke-width="0.692403745"></path>
                        <path d="M31.1277597,358.71775 L157.308623,358.71775" id="Path" stroke="#8BADFF" stroke-width="0.692403745"></path>
                        <path d="M162.719139,55.6706789 C174.06141,55.6706789 183.256139,46.4708313 183.256139,35.1222442 C183.256139,23.7736571 174.06141,14.5738095 162.719139,14.5738095 C151.376867,14.5738095 142.182139,23.7736571 142.182139,35.1222442 C142.182139,46.4708313 151.376867,55.6706789 162.719139,55.6706789 Z" id="Oval" stroke="#00257E" stroke-width="1.49812734" stroke-dasharray="1.520599229505446"></path>
                        <path d="M90.8645495,371.611872 C95.4180006,371.611872 99.109302,367.918515 99.109302,363.362528 C99.109302,358.806542 95.4180006,355.113185 90.8645495,355.113185 C86.3110985,355.113185 82.619797,358.806542 82.619797,363.362528 C82.619797,367.918515 86.3110985,371.611872 90.8645495,371.611872 Z" id="Oval" stroke="#00257E" stroke-width="0.692403745" stroke-dasharray="1.520599229505446"></path>
                        <rect id="Rectangle" stroke="#185BFF" stroke-width="1.49812734" x="75.0359213" y="292.94312" width="413.106488" height="47.2573759" rx="13.6915356"></rect>
                        <path d="M483.022266,311.540252 C481.621429,312.942619 481.621429,315.215085 483.022266,316.616701 L483.978916,317.573885 L483.974414,317.578389 L489.048039,322.654838 L489.052541,322.650334 L489.057043,322.654838 L494.130667,317.578389 L494.126165,317.573885 L495.082066,316.616701 C496.483653,315.215085 496.483653,312.942619 495.082066,311.540252 C493.681229,310.138635 491.410028,310.138635 490.009191,311.540252 L489.052541,312.497435 L488.09589,311.540252 C486.695054,310.138635 484.423852,310.138635 483.022266,311.540252 Z" id="Path" fill="#185BFF"></path>
                        <g id="Clipped" transform="translate(480.201084, 308.550837)">
                            <mask id="mask-2" fill="white">
                                <use xlink:href="#path-1"></use>
                            </mask>
                            <g id="Rectangle"></g>
                            <path d="M2.82118137,8.06586422 L1.84052072,9.04782163 L1.84052072,9.04782163 L2.82118137,8.06586422 Z M2.82118137,2.98941468 L3.80259234,3.97137209 L2.82118137,2.98941468 Z M3.77783197,9.02304747 L4.75849262,10.0042541 L5.73915327,9.02304747 L4.75849262,8.04184079 L3.77783197,9.02304747 Z M3.77333008,9.02755186 L2.79266943,8.04634519 L1.81125846,9.02755186 L2.79266943,10.0087585 L3.77333008,9.02755186 Z M8.84695466,14.1040014 L7.8655437,15.0852081 L8.84695466,16.0671655 L9.82761531,15.0852081 L8.84695466,14.1040014 Z M8.85145655,14.099497 L9.8321172,13.1182903 L8.85145655,12.1363329 L7.8707959,13.1182903 L8.85145655,14.099497 Z M8.85595843,14.1040014 L7.87529778,15.0852081 L8.85595843,16.0671655 L9.83661908,15.0852081 L8.85595843,14.1040014 Z M13.929583,9.02755186 L14.9102437,10.0087585 L15.8909043,9.02755186 L14.9102437,8.04634519 L13.929583,9.02755186 Z M13.9250811,9.02304747 L12.9436702,8.04184079 L11.9630095,9.02304747 L12.9436702,10.0042541 L13.9250811,9.02304747 Z M14.8809814,8.06586422 L15.8623924,9.04782163 L15.8623924,9.04782163 L14.8809814,8.06586422 Z M14.8809814,2.98941468 L15.8623924,2.008208 L15.8623924,2.008208 L14.8809814,2.98941468 Z M9.80810714,2.98941468 L8.82669618,2.008208 L8.82669618,2.008208 L9.80810714,2.98941468 Z M8.85145655,3.94659793 L7.8707959,4.92780461 L8.85145655,5.90976202 L9.8321172,4.92780461 L8.85145655,3.94659793 Z M7.89480595,2.98941468 L6.9141453,3.97137209 L6.9141453,3.97137209 L7.89480595,2.98941468 Z M3.80259234,7.08465754 C2.94273227,6.22506944 2.94273227,4.83096019 3.80259234,3.97137209 L1.84052072,2.008208 C-0.10204273,3.95185306 -0.10204273,7.10342584 1.84052072,9.04782163 L3.80259234,7.08465754 Z M4.75849262,8.04184079 L3.80259234,7.08465754 L1.84052072,9.04782163 L2.79717132,10.0042541 L4.75849262,8.04184079 Z M2.79717132,8.04184079 L2.79266943,8.04634519 L4.75399073,10.0087585 L4.75849262,10.0042541 L2.79717132,8.04184079 Z M2.79266943,10.0087585 L7.8655437,15.0852081 L9.82761531,13.1227947 L4.75399073,8.04634519 L2.79266943,10.0087585 Z M9.82761531,15.0852081 L9.8321172,15.0807037 L7.8707959,13.1182903 L7.8655437,13.1227947 L9.82761531,15.0852081 Z M9.83661908,13.1227947 L9.8321172,13.1182903 L7.8707959,15.0807037 L7.87529778,15.0852081 L9.83661908,13.1227947 Z M12.9489224,8.04634519 L7.87529778,13.1227947 L9.83661908,15.0852081 L14.9102437,10.0087585 L12.9489224,8.04634519 Z M12.9436702,10.0042541 L12.9489224,10.0087585 L14.9102437,8.04634519 L14.9057418,8.04184079 L12.9436702,10.0042541 Z M14.9057418,10.0042541 L15.8623924,9.04782163 L13.9003208,7.08465754 L12.9436702,8.04184079 L14.9057418,10.0042541 Z M15.8623924,9.04782163 C17.8049558,7.10342584 17.8049558,3.95185306 15.8623924,2.008208 L13.9003208,3.97137209 C14.7594305,4.83096019 14.7594305,6.22506944 13.9003208,7.08465754 L15.8623924,9.04782163 Z M15.8623924,2.008208 C13.9190786,0.0645629489 10.7700099,0.0645629489 8.82669618,2.008208 L10.7887678,3.97137209 C11.6478775,3.11103326 13.041211,3.11103326 13.9003208,3.97137209 L15.8623924,2.008208 Z M8.82669618,2.008208 L7.8707959,2.96539126 L9.8321172,4.92780461 L10.7887678,3.97137209 L8.82669618,2.008208 Z M6.9141453,3.97137209 L7.8707959,4.92780461 L9.8321172,2.96539126 L8.8754666,2.008208 L6.9141453,3.97137209 Z M3.80259234,3.97137209 C4.66170209,3.11103326 6.05503555,3.11103326 6.9141453,3.97137209 L8.8754666,2.008208 C6.93290315,0.0645629489 3.78308417,0.0645629489 1.84052072,2.008208 L3.80259234,3.97137209 Z" id="Shape" fill="#6EC5E9" fill-rule="nonzero" mask="url(#mask-2)"></path>
                            <mask id="mask-4" fill="white">
                                <use xlink:href="#path-3"></use>
                            </mask>
                            <g id="Path"></g>
                        </g>
                        <path d="M488.522819,272.991667 C485.862955,276.098196 481.383579,273.23115 481.383579,273.23115 C481.383579,273.23115 482.109133,271.475939 483.506218,269.235755 C484.623436,267.443758 490.060963,267.652461 492.724578,268.569856 C492.431956,268.749281 491.182683,269.884387 488.522819,272.991667 Z" id="Path" fill="#B9DEFC" fill-rule="nonzero"></path>
                        <ellipse id="Oval" stroke="#E9E9E9" stroke-width="0.692403745" cx="458.810377" cy="338.97425" rx="7.73243796" ry="7.73674332"></ellipse>
                        <ellipse id="Oval" fill-opacity="0.4" fill="#E9E9E9" fill-rule="nonzero" cx="458.810377" cy="338.97425" rx="6.03957157" ry="6.04293436"></ellipse>
                        <ellipse id="Oval" fill="#185BFF" fill-rule="nonzero" cx="244.586671" cy="340.547784" rx="2.95363433" ry="2.9552789"></ellipse>
                        <rect id="Rectangle" fill="#185BFF" fill-rule="nonzero" x="92.245878" y="50.9544306" width="378.730844" height="273.10728" rx="15.3139326"></rect>
                        <path d="M207.42736,50.9544306 L293.234042,50.9544306 L293.234042,163.128801 C293.234042,165.811166 291.061132,167.986036 288.379509,167.986036 L212.282643,167.986036 C209.60102,167.986036 207.42736,165.811166 207.42736,163.128801 L207.42736,50.9544306 Z" id="Path" fill="#87AAFF" fill-rule="nonzero"></path>
                        <ellipse id="Oval" stroke-opacity="0.2" stroke="#00257E" stroke-width="0.692403745" cx="172.725329" cy="281.109332" rx="15.0704357" ry="15.0788269"></ellipse>
                        <ellipse id="Oval" stroke-opacity="0.2" stroke="#00257E" stroke-width="0.692403745" cx="172.725329" cy="281.109332" rx="11.1782559" ry="11.1844799"></ellipse>
                        <path d="M170.796271,50.9544306 L170.796271,308.713746 C170.796271,317.190261 163.928645,324.06171 155.456848,324.06171 L99.9088368,324.06171 C91.4370393,324.06171 84.5694134,317.190261 84.5694134,308.713746 L84.5694134,66.3023948 C84.5694134,57.8258802 91.4370393,50.9544306 99.9088368,50.9544306 L170.796271,50.9544306 Z" id="Path" fill="#00257E" fill-rule="nonzero"></path>
                        <path d="M173.501154,50.9544306 L173.501154,308.713746 C173.501154,317.190261 166.633528,324.06171 158.16173,324.06171 L107.539532,324.06171 C99.0677346,324.06171 92.1993585,317.190261 92.1993585,308.713746 L92.1993585,66.3023948 C92.1993585,57.8258802 99.0677346,50.9544306 107.539532,50.9544306 L173.501154,50.9544306 Z" id="Path" fill="#0035B7" fill-rule="nonzero"></path>
                        <rect id="Rectangle" fill="#87AAFF" fill-rule="nonzero" x="304.083585" y="111.790746" width="133.554426" height="199.374891" rx="4.84682397"></rect>
                        <rect id="Rectangle" fill="#185BFF" fill-rule="nonzero" x="100.13243" y="195.213583" width="65.4369267" height="115.368735" rx="4.84682397"></rect>
                        <ellipse id="Oval" fill-opacity="0.5" fill="#001956" fill-rule="nonzero" cx="132.473223" cy="296.090188" rx="18.5900096" ry="1.34638523"></ellipse>
                        <path d="M118.649434,291.606817 C114.88886,291.606817 111.829078,288.278071 111.829078,284.187333 L111.829078,215.779135 C111.829078,211.687645 114.88886,208.359651 118.649434,208.359651 L147.051828,208.359651 C150.812403,208.359651 153.871434,211.687645 153.871434,215.779135 L153.871434,284.187333 C153.871434,288.278071 150.812403,291.606817 147.051828,291.606817 L118.649434,291.606817 Z" id="Path" fill="#00257E" fill-rule="nonzero"></path>
                        <path d="M147.051828,289.650409 L118.649434,289.650409 C115.928795,289.650409 113.722871,287.250319 113.722871,284.290934 L113.722871,215.881985 C113.722871,212.9226 115.928795,210.52326 118.649434,210.52326 L147.051828,210.52326 C149.772467,210.52326 151.977641,212.9226 151.977641,215.881985 L151.977641,284.290934 C151.977641,287.250319 149.772467,289.650409 147.051828,289.650409 Z" id="Path" fill="#E6E6E6" fill-rule="nonzero"></path>
                        <path d="M147.621316,289.650409 L118.079946,289.650409 C116.1794,289.650409 114.638255,287.973274 114.638255,285.905007 L114.638255,214.267911 C114.638255,212.199645 116.1794,210.52326 118.079946,210.52326 L147.621316,210.52326 C149.521862,210.52326 151.063008,212.199645 151.063008,214.267911 L151.063008,285.905007 C151.063008,287.973274 149.521862,289.650409 147.621316,289.650409 Z" id="Path" fill="#FFFFFF" fill-rule="nonzero"></path>
                        <path d="M136.911332,287.170741 L128.789931,287.170741 C128.518317,287.170741 128.297725,286.930507 128.297725,286.634719 C128.297725,286.33893 128.518317,286.098696 128.789931,286.098696 L136.911332,286.098696 C137.182945,286.098696 137.403538,286.33893 137.403538,286.634719 C137.403538,286.930507 137.182945,287.170741 136.911332,287.170741 Z" id="Path" fill="#E6E6E6" fill-rule="nonzero"></path>
                        <path d="M142.259571,215.648507 L123.440941,215.648507 C122.157153,215.648507 121.116468,214.516403 121.116468,213.120042 L121.116468,209.772528 L144.583294,209.772528 L144.583294,213.120042 C144.583294,214.516403 143.543359,215.648507 142.259571,215.648507 Z" id="Path" fill="#00257E" fill-rule="nonzero"></path>
                        <path d="M138.346683,213.831736 C138.661815,213.831736 138.917672,213.553214 138.917672,213.21013 C138.917672,212.867045 138.661815,212.588524 138.346683,212.588524 C138.0308,212.588524 137.775694,212.867045 137.775694,213.21013 C137.775694,213.553214 138.0308,213.831736 138.346683,213.831736 Z" id="Path" fill="#FFF170" fill-rule="nonzero"></path>
                        <path d="M141.68258,213.831736 C141.997712,213.831736 142.253569,213.553214 142.253569,213.21013 C142.253569,212.867045 141.997712,212.588524 141.68258,212.588524 C141.366697,212.588524 141.11084,212.867045 141.11084,213.21013 C141.11084,213.553214 141.366697,213.831736 141.68258,213.831736 Z" id="Path" fill="#FFF170" fill-rule="nonzero"></path>
                        <rect id="Rectangle" fill="#B9DEFC" fill-rule="nonzero" x="128.712648" y="219.900653" width="20.5892217" height="10.452291" rx="4.54802247"></rect>
                        <rect id="Rectangle" fill="#B9DEFC" fill-rule="nonzero" x="128.712648" y="242.125322" width="20.5892217" height="10.452291" rx="4.54802247"></rect>
                        <rect id="Rectangle" fill="#6EC5E9" fill-rule="nonzero" x="116.814166" y="233.377043" width="20.5892217" height="5.72346037" rx="2.85537079"></rect>
                        <rect id="Rectangle" fill="#6EC5E9" fill-rule="nonzero" x="116.814166" y="255.602462" width="20.5892217" height="10.452291" rx="4.54802247"></rect>
                        <rect id="Rectangle" fill="#B9DEFC" fill-rule="nonzero" x="128.712648" y="270.197443" width="20.5892217" height="5.72346037" rx="2.85537079"></rect>
                        <rect id="Rectangle" fill="#87AAFF" fill-rule="nonzero" x="206.23211" y="181.103576" width="85.8066815" height="129.478742" rx="4.84682397"></rect>
                        <rect id="Rectangle" fill="#185BFF" fill-rule="nonzero" x="100.13243" y="66.3226646" width="65.4369267" height="115.368735" rx="4.84682397"></rect>
                        <path d="M118.648684,157.744551 C114.888109,157.744551 111.829078,154.798679 111.829078,151.178649 L111.829078,90.6403744 C111.829078,87.0195941 114.888109,84.0744726 118.648684,84.0744726 L147.051078,84.0744726 C150.811652,84.0744726 153.871434,87.0195941 153.871434,90.6403744 L153.871434,151.178649 C153.871434,154.798679 150.811652,157.744551 147.051078,157.744551 L118.648684,157.744551 Z" id="Path" fill="#00257E" fill-rule="nonzero"></path>
                        <path d="M147.051828,156.012612 L118.649434,156.012612 C115.928795,156.012612 113.722871,153.889542 113.722871,151.270238 L113.722871,90.7319637 C113.722871,88.1126598 115.928795,85.9895899 118.649434,85.9895899 L147.051828,85.9895899 C149.772467,85.9895899 151.977641,88.1126598 151.977641,90.7319637 L151.977641,151.270238 C151.977641,153.889542 149.772467,156.012612 147.051828,156.012612 Z" id="Path" fill="#E6E6E6" fill-rule="nonzero"></path>
                        <path d="M147.621316,156.012612 L118.079946,156.012612 C116.1794,156.012612 114.638255,154.529166 114.638255,152.698881 L114.638255,89.3033207 C114.638255,87.4730362 116.1794,85.9895899 118.079946,85.9895899 L147.621316,85.9895899 C149.521862,85.9895899 151.063008,87.4730362 151.063008,89.3033207 L151.063008,152.698881 C151.063008,154.529166 149.521862,156.012612 147.621316,156.012612 Z" id="Path" fill="#FFFFFF" fill-rule="nonzero"></path>
                        <path d="M136.911332,153.818223 L128.789931,153.818223 C128.518317,153.818223 128.297725,153.605766 128.297725,153.344511 C128.297725,153.082505 128.518317,152.870048 128.789931,152.870048 L136.911332,152.870048 C137.182945,152.870048 137.403538,153.082505 137.403538,153.344511 C137.403538,153.605766 137.182945,153.818223 136.911332,153.818223 Z" id="Path" fill="#E6E6E6" fill-rule="nonzero"></path>
                        <path d="M142.259571,91.1891594 L123.440941,91.1891594 C122.157153,91.1891594 121.116468,90.187683 121.116468,88.9519782 C121.116468,87.3153825 122.442273,85.9895899 124.077958,85.9895899 L141.622554,85.9895899 C143.258239,85.9895899 144.584045,87.3153825 144.584045,88.9519782 C144.584045,90.187683 143.543359,91.1891594 142.259571,91.1891594 Z" id="Path" fill="#F2F2F2" fill-rule="nonzero"></path>
                        <path d="M138.346683,88.9166938 C138.661815,88.9166938 138.917672,88.6704537 138.917672,88.367158 C138.917672,88.0631115 138.661815,87.8168714 138.346683,87.8168714 C138.0308,87.8168714 137.775694,88.0631115 137.775694,88.367158 C137.775694,88.6704537 138.0308,88.9166938 138.346683,88.9166938 Z" id="Path" fill="#185BFF" fill-rule="nonzero"></path>
                        <path d="M141.68258,88.9166938 C141.997712,88.9166938 142.253569,88.6704537 142.253569,88.367158 C142.253569,88.0631115 141.997712,87.8168714 141.68258,87.8168714 C141.366697,87.8168714 141.11084,88.0631115 141.11084,88.367158 C141.11084,88.6704537 141.366697,88.9166938 141.68258,88.9166938 Z" id="Path" fill="#185BFF" fill-rule="nonzero"></path>
                        <path d="M146.280505,96.5583944 L119.420757,96.5583944 C118.37707,96.5583944 117.530716,95.7438503 117.530716,94.7386202 L117.530716,94.4676059 C117.530716,93.4623758 118.37707,92.6478316 119.420757,92.6478316 L146.280505,92.6478316 C147.324192,92.6478316 148.169796,93.4623758 148.169796,94.4676059 L148.169796,94.7386202 C148.169796,95.7438503 147.324192,96.5583944 146.280505,96.5583944 Z" id="Path" fill="#B9DEFC" fill-rule="nonzero"></path>
                        <path d="M121.167489,145.31318 L120.985913,145.31318 C119.705127,145.31318 118.667442,146.352193 118.667442,147.633693 C118.667442,148.914442 119.705127,149.953455 120.985913,149.953455 L121.167489,149.953455 C122.448275,149.953455 123.48671,148.914442 123.48671,147.633693 C123.48671,146.352193 122.448275,145.31318 121.167489,145.31318 Z" id="Path" fill="#B9DEFC" fill-rule="nonzero"></path>
                        <path d="M129.016526,145.31318 L128.834199,145.31318 C127.554163,145.31318 126.515728,146.352193 126.515728,147.633693 C126.515728,148.914442 127.554163,149.953455 128.834199,149.953455 L129.016526,149.953455 C130.296562,149.953455 131.334997,148.914442 131.334997,147.633693 C131.334997,146.352193 130.296562,145.31318 129.016526,145.31318 Z" id="Path" fill="#B9DEFC" fill-rule="nonzero"></path>
                        <path d="M136.866313,145.31318 L136.683986,145.31318 C135.40395,145.31318 134.365516,146.352193 134.365516,147.633693 C134.365516,148.914442 135.40395,149.953455 136.683986,149.953455 L136.866313,149.953455 C138.146349,149.953455 139.184784,148.914442 139.184784,147.633693 C139.184784,146.352193 138.146349,145.31318 136.866313,145.31318 Z" id="Path" fill="#B9DEFC" fill-rule="nonzero"></path>
                        <path d="M144.714599,145.31318 L144.533023,145.31318 C143.252237,145.31318 142.214552,146.352193 142.214552,147.633693 C142.214552,148.914442 143.252237,149.953455 144.533023,149.953455 L144.714599,149.953455 C145.995386,149.953455 147.03307,148.914442 147.03307,147.633693 C147.03307,146.352193 145.995386,145.31318 144.714599,145.31318 Z" id="Path" fill="#B9DEFC" fill-rule="nonzero"></path>
                        <path d="M120.842603,122.844523 L119.037347,122.844523 C118.205248,122.844523 117.530716,122.19514 117.530716,121.393359 L117.530716,119.655414 C117.530716,118.854383 118.205248,118.205 119.037347,118.205 L120.842603,118.205 C121.674701,118.205 122.349234,118.854383 122.349234,119.655414 L122.349234,121.393359 C122.349234,122.19514 121.674701,122.844523 120.842603,122.844523 Z" id="Path" fill="#6EC5E9" fill-rule="nonzero"></path>
                        <path d="M146.662415,122.844523 L144.857159,122.844523 C144.02506,122.844523 143.350528,122.19514 143.350528,121.393359 L143.350528,119.655414 C143.350528,118.854383 144.02506,118.205 144.857159,118.205 L146.662415,118.205 C147.494513,118.205 148.169046,118.854383 148.169046,119.655414 L148.169046,121.393359 C148.169046,122.19514 147.494513,122.844523 146.662415,122.844523 Z" id="Path" fill="#6EC5E9" fill-rule="nonzero"></path>
                        <path d="M140.328262,122.844523 L138.523007,122.844523 C137.690908,122.844523 137.016376,122.19514 137.016376,121.393359 L137.016376,119.655414 C137.016376,118.854383 137.690908,118.205 138.523007,118.205 L140.328262,118.205 C141.160361,118.205 141.835644,118.854383 141.835644,119.655414 L141.835644,121.393359 C141.835644,122.19514 141.160361,122.844523 140.328262,122.844523 Z" id="Path" fill="#6EC5E9" fill-rule="nonzero"></path>
                        <path d="M146.086174,116.746328 L119.613588,116.746328 C118.463357,116.746328 117.530716,115.848452 117.530716,114.740372 L117.530716,101.480944 C117.530716,100.373614 118.463357,99.4757388 119.613588,99.4757388 L146.086174,99.4757388 C147.237156,99.4757388 148.169796,100.373614 148.169796,101.480944 L148.169796,114.740372 C148.169796,115.848452 147.237156,116.746328 146.086174,116.746328 Z" id="Path" fill="#B9DEFC" fill-rule="nonzero"></path>
                        <path d="M146.086924,142.819999 L119.613588,142.819999 C118.463357,142.819999 117.530716,141.886089 117.530716,140.733715 L117.530716,126.942018 C117.530716,125.790396 118.463357,124.855734 119.613588,124.855734 L146.086924,124.855734 C147.237156,124.855734 148.169796,125.790396 148.169796,126.942018 L148.169796,140.733715 C148.169796,141.886089 147.237156,142.819999 146.086924,142.819999 Z" id="Path" fill="#B9DEFC" fill-rule="nonzero"></path>
                        <ellipse id="Oval" fill-opacity="0.5" fill="#001956" fill-rule="nonzero" cx="132.850631" cy="162.508696" rx="19.7559228" ry="1.43082756"></ellipse>
                        <ellipse id="Oval" fill-opacity="0.5" fill="#0035B7" fill-rule="nonzero" cx="249.191349" cy="296.535372" rx="23.6804412" ry="1.51116338"></ellipse>
                        <rect id="Rectangle" fill="#5A1DFF" fill-rule="nonzero" x="269.447581" y="216.57416" width="4.16762769" height="11.8469258" rx="1.15388015"></rect>
                        <rect id="Rectangle" fill="#5A1DFF" fill-rule="nonzero" x="224.767872" y="231.196166" width="4.16762769" height="11.8469258" rx="1.15388015"></rect>
                        <rect id="Rectangle" fill="#5A1DFF" fill-rule="nonzero" x="224.767872" y="216.57416" width="4.16762769" height="11.8469258" rx="1.15388015"></rect>
                        <path d="M209.557217,219.099216 L288.958361,219.099216 C294.056508,219.099216 298.189372,223.23208 298.189372,228.330227 L298.189372,256.813038 C298.189372,261.911184 294.056508,266.044049 288.958361,266.044049 L209.557217,266.044049 C204.45907,266.044049 200.326206,261.911184 200.326206,256.813038 L200.326206,228.330227 C200.326206,223.23208 204.45907,219.099216 209.557217,219.099216 Z" id="Rectangle" fill="#5AE8AD" fill-rule="nonzero" transform="translate(249.257789, 242.571632) rotate(90.000000) translate(-249.257789, -242.571632) "></path>
                        <path d="M210.991731,220.943451 L287.523772,220.943451 C292.515723,220.943451 296.562499,224.990226 296.562499,229.982177 L296.562499,255.161088 C296.562499,260.153038 292.515723,264.199814 287.523772,264.199814 L210.991731,264.199814 C205.99978,264.199814 201.953005,260.153038 201.953005,255.161088 L201.953005,229.982177 C201.953005,224.990226 205.99978,220.943451 210.991731,220.943451 Z" id="Rectangle" stroke="#46BE8C" stroke-width="0.5" transform="translate(249.257752, 242.571632) rotate(90.000000) translate(-249.257752, -242.571632) "></path>
                        <ellipse id="Oval" fill="#46BE8C" fill-rule="nonzero" cx="249.258127" cy="281.254974" rx="3.4428767" ry="3.44479367"></ellipse>
                        <path d="M241.319803,195.073947 L257.195701,195.073947 L257.195701,197.464278 C257.195701,198.315608 256.505412,199.00553 255.654555,199.00553 L242.860948,199.00553 C242.010092,199.00553 241.319803,198.315608 241.319803,197.464278 L241.319803,195.073947 Z" id="Path" fill="#46BE8C" fill-rule="nonzero"></path>
                        <path d="M157.721296,323.875529 C157.529215,323.875529 157.3739,324.03093 157.3739,324.222367 C157.3739,324.413803 157.529215,324.569205 157.721296,324.569205 L157.721296,323.875529 Z M173.573184,50.9401667 L173.573184,308.87215 L174.266474,308.87215 L174.266474,50.9401667 L173.573184,50.9401667 Z M158.578155,323.875529 L157.721296,323.875529 L157.721296,324.569205 L158.578155,324.569205 L158.578155,323.875529 Z M173.573184,308.87215 C173.573184,317.15873 166.859372,323.875529 158.578155,323.875529 L158.578155,324.569205 C167.242783,324.569205 174.266474,317.541603 174.266474,308.87215 L173.573184,308.87215 Z" id="Shape" fill="#FFFFFF" fill-rule="nonzero"></path>
                        <path d="M281.622179,160.967443 L281.62443,160.965942 L281.626681,160.967443 L283.717057,158.875904 L283.714806,158.874403 L284.108721,158.480268 C284.108721,158.480268 284.108721,158.480268 284.108721,158.480268 C284.685712,157.902205 284.685712,156.966042 284.108721,156.388729 C283.531729,155.811416 282.595337,155.811416 282.018345,156.388729 L281.62443,156.782863 L281.230515,156.388729 C280.653524,155.811416 279.717132,155.811416 279.14014,156.388729 C278.563148,156.966042 278.563148,157.902205 279.14014,158.480268 L279.534055,158.874403 L279.532554,158.875904 L281.622179,160.967443 Z M278.556395,158.8714 L278.551143,158.875904 L281.622179,161.949401 L281.62443,161.947148 L281.626681,161.949401 L284.697717,158.875904 L284.692465,158.8714 C285.44578,158.017817 285.415018,156.713796 284.599426,155.89775 C283.782334,155.080954 282.477537,155.050174 281.62443,155.806912 C280.771323,155.050174 279.466527,155.080954 278.649434,155.89775 C277.833843,156.713796 277.80308,158.017817 278.556395,158.8714 Z" id="Shape" fill="#5AE8AD"></path>
                        <rect id="Rectangle" fill="#0035B7" fill-rule="nonzero" x="214.840464" y="161.362328" width="7.7112791" height="1.00653637"></rect>
                        <polygon id="Rectangle" fill="#0035B7" fill-rule="nonzero" transform="translate(215.169380, 160.635916) rotate(-90.000000) translate(-215.169380, -160.635916) " points="213.436987 160.132928 216.901773 160.132928 216.901773 161.138904 213.436987 161.138904"></polygon>
                        <polygon id="Rectangle" fill="#0035B7" fill-rule="nonzero" transform="translate(222.222333, 160.635916) rotate(-90.000000) translate(-222.222333, -160.635916) " points="220.48994 160.132928 223.954726 160.132928 223.954726 161.138904 220.48994 161.138904"></polygon>
                        <path d="M217.132674,156.64623 C216.941344,156.454793 216.631464,156.454793 216.440134,156.64623 C216.248804,156.837667 216.248804,157.14847 216.440134,157.339906 L217.132674,156.64623 Z M218.696329,158.903681 L218.349684,159.250519 L218.696329,159.597357 L219.042224,159.250519 L218.696329,158.903681 Z M220.952524,157.339906 C221.143854,157.14847 221.143854,156.837667 220.952524,156.64623 C220.761194,156.454793 220.450564,156.454793 220.259234,156.64623 L220.952524,157.339906 Z M216.440134,157.339906 L218.349684,159.250519 L219.042224,158.557594 L217.132674,156.64623 L216.440134,157.339906 Z M219.042224,159.250519 L220.952524,157.339906 L220.259234,156.64623 L218.349684,158.557594 L219.042224,159.250519 Z" id="Shape" fill="#0035B7" fill-rule="nonzero"></path>
                        <path d="M218.712836,158.741523 L218.712836,154.842221" id="Path" stroke="#0035B7" stroke-width="0.978149813" stroke-linecap="round"></path>
                        <path d="M281.622179,303.629789 L281.62443,303.627537 L281.626681,303.629789 L283.717057,301.53825 L283.714806,301.536748 L284.108721,301.141863 C284.685712,300.56455 284.685712,299.628388 284.108721,299.051075 C283.531729,298.473011 282.595337,298.473011 282.018345,299.051075 L281.62443,299.445209 L281.230515,299.051075 C280.653524,298.473011 279.717132,298.473011 279.14014,299.051075 C278.563148,299.628388 278.563148,300.56455 279.14014,301.141863 L279.534055,301.536748 L279.532554,301.53825 L281.622179,303.629789 Z M278.556395,301.533745 L278.551143,301.53825 L281.622179,304.610996 L281.62443,304.609494 L281.626681,304.610996 L284.697717,301.53825 L284.692465,301.533745 C285.44578,300.680163 285.415018,299.376142 284.599426,298.560096 C283.782334,297.7433 282.477537,297.71252 281.62443,298.469258 C280.771323,297.71252 279.466527,297.7433 278.649434,298.560096 C277.833843,299.376142 277.80308,300.680163 278.556395,301.533745 Z" id="Shape" fill="#5AE8AD"></path>
                        <path d="M281.622179,303.629789 L281.62443,303.627537 L281.626681,303.629789 L283.717057,301.53825 L283.714806,301.536748 L284.108721,301.141863 C284.685712,300.56455 284.685712,299.628388 284.108721,299.051075 C283.531729,298.473011 282.595337,298.473011 282.018345,299.051075 L281.62443,299.445209 L281.230515,299.051075 C280.653524,298.473011 279.717132,298.473011 279.14014,299.051075 C278.563148,299.628388 278.563148,300.56455 279.14014,301.141863 L279.534055,301.536748 L279.532554,301.53825 L281.622179,303.629789 Z" id="Path" fill="#5AE8AD" fill-rule="nonzero"></path>
                        <rect id="Rectangle" fill="#0035B7" fill-rule="nonzero" x="214.840464" y="304.024674" width="7.7112791" height="1.00653637"></rect>
                        <polygon id="Rectangle" fill="#0035B7" fill-rule="nonzero" transform="translate(215.169380, 303.298262) rotate(-90.000000) translate(-215.169380, -303.298262) " points="213.436987 302.795274 216.901773 302.795274 216.901773 303.80125 213.436987 303.80125"></polygon>
                        <polygon id="Rectangle" fill="#0035B7" fill-rule="nonzero" transform="translate(222.222333, 303.298262) rotate(-90.000000) translate(-222.222333, -303.298262) " points="220.48994 302.795274 223.954726 302.795274 223.954726 303.80125 220.48994 303.80125"></polygon>
                        <path d="M217.132674,299.308576 C216.941344,299.117139 216.631464,299.117139 216.440134,299.308576 C216.248804,299.500013 216.248804,299.810816 216.440134,300.002252 L217.132674,299.308576 Z M218.696329,301.566027 L218.349684,301.912865 L218.696329,302.259703 L219.042224,301.912865 L218.696329,301.566027 Z M220.952524,300.002252 C221.143854,299.810816 221.143854,299.500013 220.952524,299.308576 C220.761194,299.117139 220.450564,299.117139 220.259234,299.308576 L220.952524,300.002252 Z M216.440134,300.002252 L218.349684,301.912865 L219.042224,301.219939 L217.132674,299.308576 L216.440134,300.002252 Z M219.042224,301.912865 L220.952524,300.002252 L220.259234,299.308576 L218.349684,301.219939 L219.042224,301.912865 Z" id="Shape" fill="#0035B7" fill-rule="nonzero"></path>
                        <path d="M218.712836,301.403118 L218.712836,297.504567" id="Path" stroke="#0035B7" stroke-width="0.978149813" stroke-linecap="round"></path>
                        <path d="M304.083585,50.9544306 L437.638761,50.9544306 L437.638761,97.4029679 C437.638761,100.086084 435.465101,102.260954 432.783478,102.260954 L308.938868,102.260954 C306.257245,102.260954 304.083585,100.086084 304.083585,97.4029679 L304.083585,50.9544306 Z" id="Path" fill="#87AAFF" fill-rule="nonzero"></path>
                        <path d="M427.408227,304.212357 L427.410478,304.210856 L427.412729,304.212357 L429.502354,302.121569 L429.500853,302.119316 L429.894768,301.725182 C429.894768,301.725182 429.894768,301.725182 429.894768,301.725182 C430.47176,301.147118 430.47176,300.210956 429.894768,299.633643 C429.317777,299.05633 428.381385,299.05633 427.804393,299.633643 L427.410478,300.027777 L427.016563,299.633643 C426.438821,299.05633 425.503179,299.05633 424.926188,299.633643 C424.349196,300.210956 424.349196,301.147869 424.926188,301.725182 L425.320103,302.119316 L425.317852,302.121569 L427.408227,304.212357 Z M424.342443,302.116313 L424.337191,302.121569 L427.408227,305.194314 L427.410478,305.192062 L427.412729,305.194314 L430.483765,302.121569 L430.478513,302.116313 C431.231828,301.262731 431.201065,299.95871 430.384724,299.142664 C429.568382,298.325868 428.263585,298.295838 427.410478,299.051826 C426.557371,298.295838 425.252575,298.325868 424.435482,299.142664 C423.619891,299.95871 423.589128,301.262731 424.342443,302.116313 Z" id="Shape" fill="#5AE8AD"></path>
                        <rect id="Rectangle" fill="#0035B7" fill-rule="nonzero" x="310.875429" y="304.607242" width="7.7112791" height="1.00653637"></rect>
                        <polygon id="Rectangle" fill="#0035B7" fill-rule="nonzero" transform="translate(311.204344, 303.880830) rotate(-90.000000) translate(-311.204344, -303.880830) " points="309.471951 303.377842 312.936737 303.377842 312.936737 304.383818 309.471951 304.383818"></polygon>
                        <polygon id="Rectangle" fill="#0035B7" fill-rule="nonzero" transform="translate(318.257298, 303.880830) rotate(-90.000000) translate(-318.257298, -303.880830) " points="316.524905 303.377842 319.989691 303.377842 319.989691 304.383818 316.524905 304.383818"></polygon>
                        <path d="M313.167639,299.891144 C312.976309,299.699707 312.665679,299.699707 312.474349,299.891144 C312.283019,300.082581 312.283019,300.392633 312.474349,300.584069 L313.167639,299.891144 Z M314.730543,302.148595 L314.384649,302.495433 L314.730543,302.84152 L315.077189,302.495433 L314.730543,302.148595 Z M316.986738,300.584069 C317.178068,300.392633 317.178068,300.082581 316.986738,299.891144 C316.795408,299.699707 316.485528,299.699707 316.294198,299.891144 L316.986738,300.584069 Z M312.474349,300.584069 L314.384649,302.495433 L315.077189,301.801757 L313.167639,299.891144 L312.474349,300.584069 Z M315.077189,302.495433 L316.986738,300.584069 L316.294198,299.891144 L314.384649,301.801757 L315.077189,302.495433 Z" id="Shape" fill="#0035B7" fill-rule="nonzero"></path>
                        <path d="M314.747801,301.986437 L314.747801,298.087135" id="Path" stroke="#0035B7" stroke-width="0.978149813" stroke-linecap="round"></path>
                        <path d="M427.408227,95.4428067 L427.410478,95.4405545 L427.412729,95.4428067 L429.502354,93.3512675 L429.500853,93.3490153 L429.894768,92.954881 C429.894768,92.954881 429.894768,92.954881 429.894768,92.954881 C430.47176,92.3775681 430.47176,91.4406546 429.894768,90.8633418 C429.317777,90.2860289 428.381385,90.2860289 427.804393,90.8633418 L427.410478,91.257476 L427.016563,90.8633418 C426.438821,90.2860289 425.503179,90.2860289 424.926188,90.8633418 C424.349196,91.4406546 424.349196,92.3775681 424.926188,92.954881 L425.320103,93.3490153 L425.317852,93.3512675 L427.408227,95.4428067 Z M424.342443,93.3460124 L424.337191,93.3512675 L427.408227,96.4240134 L427.410478,96.4217612 L427.412729,96.4240134 L430.483765,93.3512675 L430.478513,93.3460124 C431.231828,92.4924301 431.201065,91.1891594 430.384724,90.3723631 C429.568382,89.5555667 428.263585,89.5255374 427.410478,90.2815245 C426.557371,89.5255374 425.252575,89.5555667 424.435482,90.3723631 C423.619891,91.1891594 423.589128,92.4924301 424.342443,93.3460124 Z" id="Shape" fill="#5AE8AD"></path>
                        <rect id="Rectangle" fill="#0035B7" fill-rule="nonzero" x="310.875429" y="95.8376917" width="7.7112791" height="1.00653637"></rect>
                        <polygon id="Rectangle" fill="#0035B7" fill-rule="nonzero" transform="translate(311.204344, 95.111280) rotate(-90.000000) translate(-311.204344, -95.111280) " points="309.471951 94.6082916 312.936737 94.6082916 312.936737 95.6142679 309.471951 95.6142679"></polygon>
                        <polygon id="Rectangle" fill="#0035B7" fill-rule="nonzero" transform="translate(318.257298, 95.111280) rotate(-90.000000) translate(-318.257298, -95.111280) " points="316.524905 94.6082916 319.989691 94.6082916 319.989691 95.6142679 316.524905 95.6142679"></polygon>
                        <path d="M313.167639,91.1215936 C312.976309,90.9301569 312.665679,90.9301569 312.474349,91.1215936 C312.283019,91.3130302 312.283019,91.6230825 312.474349,91.8145192 L313.167639,91.1215936 Z M314.730543,93.3790446 L314.384649,93.725132 L314.730543,94.0719702 L315.077189,93.725132 L314.730543,93.3790446 Z M316.986738,91.8145192 C317.178068,91.6230825 317.178068,91.3130302 316.986738,91.1215936 C316.795408,90.9301569 316.485528,90.9301569 316.294198,91.1215936 L316.986738,91.8145192 Z M312.474349,91.8145192 L314.384649,93.725132 L315.077189,93.0322064 L313.167639,91.1215936 L312.474349,91.8145192 Z M315.077189,93.725132 L316.986738,91.8145192 L316.294198,91.1215936 L314.384649,93.0322064 L315.077189,93.725132 Z" id="Shape" fill="#0035B7" fill-rule="nonzero"></path>
                        <path d="M314.747801,93.2161357 L314.747801,89.3168339" id="Path" stroke="#0035B7" stroke-width="0.978149813" stroke-linecap="round"></path>
                        <path d="M157.306372,303.629789 L157.308623,303.627537 L157.310124,303.629789 L159.400499,301.53825 L159.398248,301.536748 L159.792163,301.141863 C159.792163,301.142614 159.792913,301.141863 159.792163,301.141863 C160.369155,300.56455 160.369905,299.628388 159.792163,299.051075 C159.215171,298.473011 158.27953,298.473011 157.702538,299.051075 L157.308623,299.445209 L156.913958,299.051075 C156.336966,298.473011 155.401324,298.473011 154.824333,299.051075 C154.246591,299.628388 154.246591,300.56455 154.824333,301.141863 L155.218248,301.536748 L155.215997,301.53825 L157.306372,303.629789 Z M154.239838,301.533745 L154.235336,301.53825 L157.306372,304.610996 L157.308623,304.609494 L157.310124,304.610996 L160.38116,301.53825 L160.376658,301.533745 C161.129973,300.680163 161.09846,299.376142 160.282868,298.560096 C159.466527,297.7433 158.16098,297.71252 157.308623,298.469258 C156.455516,297.71252 155.149969,297.7433 154.333627,298.560096 C153.518036,299.376142 153.486522,300.680163 154.239838,301.533745 Z" id="Shape" fill="#5AE8AD"></path>
                        <rect id="Rectangle" fill="#00257E" fill-rule="nonzero" x="104.9562" y="304.024674" width="7.7112791" height="1.00653637"></rect>
                        <polygon id="Rectangle" fill="#00257E" fill-rule="nonzero" transform="translate(105.285116, 303.298262) rotate(-90.000000) translate(-105.285116, -303.298262) " points="103.552723 302.795274 107.017508 302.795274 107.017508 303.80125 103.552723 303.80125"></polygon>
                        <polygon id="Rectangle" fill="#00257E" fill-rule="nonzero" transform="translate(112.338819, 303.298262) rotate(-90.000000) translate(-112.338819, -303.298262) " points="110.606427 302.795274 114.071212 302.795274 114.071212 303.80125 110.606427 303.80125"></polygon>
                        <path d="M107.24841,299.308576 C107.05708,299.117139 106.7472,299.117139 106.55587,299.308576 C106.36454,299.500013 106.36454,299.810816 106.55587,300.002252 L107.24841,299.308576 Z M108.812065,301.566027 L108.46542,301.912865 L108.812065,302.259703 L109.15871,301.912865 L108.812065,301.566027 Z M111.06826,300.002252 C111.25959,299.810816 111.25959,299.500013 111.06826,299.308576 C110.87693,299.117139 110.56705,299.117139 110.37572,299.308576 L111.06826,300.002252 Z M106.55587,300.002252 L108.46542,301.912865 L109.15871,301.219939 L107.24841,299.308576 L106.55587,300.002252 Z M109.15871,301.912865 L111.06826,300.002252 L110.37572,299.308576 L108.46542,301.219939 L109.15871,301.912865 Z" id="Shape" fill="#00257E" fill-rule="nonzero"></path>
                        <path d="M108.829322,301.403118 L108.829322,297.504567" id="Path" stroke="#00257E" stroke-width="0.978149813" stroke-linecap="round"></path>
                        <path d="M157.306372,174.672806 L157.308623,174.670554 L157.310874,174.672806 L159.401249,172.581267 L159.398998,172.579765 L159.792913,172.185631 C159.792913,172.185631 159.792913,172.18488 159.792913,172.185631 C160.369905,171.607567 160.369905,170.671405 159.792913,170.094092 C159.215922,169.516028 158.27953,169.516028 157.702538,170.094092 L157.308623,170.488226 L156.914708,170.094092 C156.337716,169.516028 155.401324,169.516028 154.824333,170.094092 C154.247341,170.671405 154.247341,171.607567 154.824333,172.185631 L155.218248,172.579765 L155.215997,172.581267 L157.306372,174.672806 Z M154.240588,172.576762 L154.235336,172.581267 L157.306372,175.654013 L157.308623,175.652511 L157.310874,175.654013 L160.38191,172.581267 L160.376658,172.576762 C161.129973,171.72318 161.09921,170.419159 160.283619,169.603113 C159.466527,168.786317 158.16173,168.755537 157.308623,169.512274 C156.455516,168.755537 155.150719,168.786317 154.333627,169.603113 C153.518036,170.419159 153.487273,171.72318 154.240588,172.576762 Z" id="Shape" fill="#5AE8AD"></path>
                        <rect id="Rectangle" fill="#00257E" fill-rule="nonzero" x="104.9562" y="175.067691" width="7.7112791" height="1.00653637"></rect>
                        <polygon id="Rectangle" fill="#00257E" fill-rule="nonzero" transform="translate(105.285116, 174.341279) rotate(-90.000000) translate(-105.285116, -174.341279) " points="103.552723 173.838291 107.017508 173.838291 107.017508 174.844267 103.552723 174.844267"></polygon>
                        <polygon id="Rectangle" fill="#00257E" fill-rule="nonzero" transform="translate(112.338819, 174.341279) rotate(-90.000000) translate(-112.338819, -174.341279) " points="110.606427 173.838291 114.071212 173.838291 114.071212 174.844267 110.606427 174.844267"></polygon>
                        <path d="M107.249161,170.351593 C107.05783,170.160156 106.7472,170.160156 106.55587,170.351593 C106.36454,170.543029 106.36454,170.853832 106.55587,171.045269 L107.249161,170.351593 Z M108.812065,172.609044 L108.46617,172.955882 L108.812065,173.30272 L109.15871,172.955882 L108.812065,172.609044 Z M111.06826,171.045269 C111.25959,170.853832 111.25959,170.543029 111.06826,170.351593 C110.87693,170.160156 110.56705,170.160156 110.37572,170.351593 L111.06826,171.045269 Z M106.55587,171.045269 L108.46617,172.955882 L109.15871,172.262956 L107.249161,170.351593 L106.55587,171.045269 Z M109.15871,172.955882 L111.06826,171.045269 L110.37572,170.351593 L108.46617,172.262956 L109.15871,172.955882 Z" id="Shape" fill="#00257E" fill-rule="nonzero"></path>
                        <path d="M108.829322,172.446135 L108.829322,168.547584" id="Path" stroke="#00257E" stroke-width="0.978149813" stroke-linecap="round"></path>
                        <rect id="Rectangle" stroke="#0035B7" stroke-width="0.692403745" fill-opacity="0.63" fill="#FFFFFF" fill-rule="nonzero" x="70.5835569" y="42.1723681" width="418.3872" height="36.6312905" rx="6.57783521"></rect>
                        <rect id="Rectangle" fill="#0035B7" fill-rule="nonzero" x="443.542984" y="52.6623458" width="15.973814" height="2.9997973" rx="1.38480899"></rect>
                        <rect id="Rectangle" fill="#0035B7" fill-rule="nonzero" x="443.542984" y="57.6967543" width="15.973814" height="2.9997973" rx="1.38480899"></rect>
                        <rect id="Rectangle" fill="#0035B7" fill-rule="nonzero" x="443.542984" y="62.7319136" width="15.973814" height="2.9997973" rx="1.38480899"></rect>
                        <ellipse id="Oval" fill-opacity="0.3" fill="#0035B7" fill-rule="nonzero" cx="285.190674" cy="56.7583394" rx="1.36248054" ry="1.36323916"></ellipse>
                        <ellipse id="Oval" fill-opacity="0.3" fill="#0035B7" fill-rule="nonzero" cx="279.749395" cy="56.7583394" rx="1.36248054" ry="1.36323916"></ellipse>
                        <ellipse id="Oval" fill-opacity="0.3" fill="#0035B7" fill-rule="nonzero" cx="274.307366" cy="56.7583394" rx="1.36248054" ry="1.36323916"></ellipse>
                        <ellipse id="Oval" fill-opacity="0.3" fill="#0035B7" fill-rule="nonzero" transform="translate(190.854420, 120.219964) rotate(90.000000) translate(-190.854420, -120.219964) " cx="190.85442" cy="120.219964" rx="1.36323916" ry="1.36248054"></ellipse>
                        <ellipse id="Oval" fill-opacity="0.3" fill="#0035B7" fill-rule="nonzero" transform="translate(190.854420, 114.775656) rotate(90.000000) translate(-190.854420, -114.775656) " cx="190.85442" cy="114.775656" rx="1.36323916" ry="1.36248054"></ellipse>
                        <ellipse id="Oval" fill-opacity="0.3" fill="#0035B7" fill-rule="nonzero" transform="translate(190.854420, 109.330597) rotate(90.000000) translate(-190.854420, -109.330597) " cx="190.85442" cy="109.330597" rx="1.36323916" ry="1.36248054"></ellipse>
                        <ellipse id="Oval" fill-opacity="0.3" fill="#0035B7" fill-rule="nonzero" cx="285.190674" cy="189.036561" rx="1.36248054" ry="1.36323916"></ellipse>
                        <ellipse id="Oval" fill-opacity="0.3" fill="#0035B7" fill-rule="nonzero" cx="279.748645" cy="189.036561" rx="1.36248054" ry="1.36323916"></ellipse>
                        <ellipse id="Oval" fill-opacity="0.3" fill="#0035B7" fill-rule="nonzero" cx="274.307366" cy="189.036561" rx="1.36248054" ry="1.36323916"></ellipse>
                        <ellipse id="Oval" fill-opacity="0.3" fill="#0035B7" fill-rule="nonzero" cx="429.241245" cy="118.856635" rx="1.36248054" ry="1.36323916"></ellipse>
                        <ellipse id="Oval" fill-opacity="0.3" fill="#0035B7" fill-rule="nonzero" cx="423.799966" cy="118.856635" rx="1.36248054" ry="1.36323916"></ellipse>
                        <ellipse id="Oval" fill-opacity="0.3" fill="#0035B7" fill-rule="nonzero" cx="418.357937" cy="118.857386" rx="1.36248054" ry="1.36323916"></ellipse>
                        <path d="M414.035377,288.157954 C414.035377,288.858387 394.705783,289.42594 370.860798,289.42594 C347.016563,289.42594 327.686969,288.858387 327.686969,288.157954 C327.686969,287.458272 347.016563,286.889968 370.860798,286.889968 C394.705783,286.889968 414.035377,287.458272 414.035377,288.157954 Z" id="Path" fill-opacity="0.5" fill="#0035B7" fill-rule="nonzero"></path>
                        <rect id="Rectangle" fill="#5AE8AD" fill-rule="nonzero" x="415.213371" y="164.386277" width="4.93670725" height="14.0330572" rx="1.60617228"></rect>
                        <path d="M342.509669,134.093635 L344.236781,134.093635 C345.123845,134.093635 345.842953,134.812742 345.842953,135.699807 L345.842953,146.51271 C345.842953,147.399775 345.123845,148.118883 344.236781,148.118883 L342.509669,148.118883 C341.622605,148.118883 340.903497,147.399775 340.903497,146.51271 L340.903497,135.699807 C340.903497,134.812742 341.622605,134.093635 342.509669,134.093635 Z" id="Rectangle" fill="#FBFAFF" fill-rule="nonzero" transform="translate(343.373225, 141.106259) rotate(-90.000000) translate(-343.373225, -141.106259) "></path>
                        <rect id="Rectangle" fill="#5AE8AD" fill-rule="nonzero" x="415.213371" y="180.963189" width="4.93670725" height="14.0330572" rx="1.60617228"></rect>
                        <path d="M313.65288,160.307016 L427.349915,160.307016 C434.446464,160.307016 440.199353,166.059906 440.199353,173.156455 L440.199353,245.316557 C440.199353,252.413105 434.446464,258.165995 427.349915,258.165995 L313.65288,258.165995 C306.556331,258.165995 300.803442,252.413105 300.803442,245.316557 L300.803442,173.156455 C300.803442,166.059906 306.556331,160.307016 313.65288,160.307016 Z" id="Rectangle" fill="#0035B7" fill-rule="nonzero" transform="translate(370.501397, 209.236506) rotate(90.000000) translate(-370.501397, -209.236506) "></path>
                        <path d="M313.257585,165.945628 L427.745961,165.945628 C432.710318,165.945628 436.734725,169.970034 436.734725,174.934392 L436.734725,243.53937 C436.734725,248.503727 432.710318,252.528134 427.745961,252.528134 L313.257585,252.528134 C308.293227,252.528134 304.26882,248.503727 304.26882,243.53937 L304.26882,174.934392 C304.26882,169.970034 308.293227,165.945628 313.257585,165.945628 Z" id="Rectangle" fill="#FFFFFF" fill-rule="nonzero" transform="translate(370.501773, 209.236881) rotate(90.000000) translate(-370.501773, -209.236881) "></path>
                        <path d="M315.047389,164.068717 L425.955406,164.068717 C432.56189,164.068717 437.917503,169.42433 437.917503,176.030814 L437.917503,242.442948 C437.917503,249.049432 432.56189,254.405045 425.955406,254.405045 L315.047389,254.405045 C308.440905,254.405045 303.085292,249.049432 303.085292,242.442948 L303.085292,176.030814 C303.085292,169.42433 308.440905,164.068717 315.047389,164.068717 Z" id="Rectangle" stroke="#8A8A8A" stroke-width="0.5" opacity="0.4" transform="translate(370.501397, 209.236881) rotate(90.000000) translate(-370.501397, -209.236881) "></path>
                        <rect id="Rectangle" fill="#5AE8AD" fill-rule="nonzero" x="335.541258" y="169.290058" width="26.9776219" height="7.41043768" rx="2.32389513"></rect>
                        <path d="M367.221024,171.618828 C367.221024,170.332825 368.26321,169.290058 369.549249,169.290058 L403.889629,169.290058 C405.174917,169.290058 406.217103,170.332825 406.217103,171.618828 L406.217103,211.378344 C406.217103,212.665098 405.174917,213.707865 403.889629,213.707865 L369.549249,213.707865 C368.26321,213.707865 367.221024,212.665098 367.221024,211.378344 L367.221024,171.618828 Z" id="Path" fill="#185BFF" fill-rule="nonzero"></path>
                        <path d="M336.193281,222.863041 C336.193281,221.577038 337.235467,220.534271 338.521506,220.534271 L403.889629,220.534271 C405.174917,220.534271 406.217103,221.577038 406.217103,222.863041 L406.217103,262.622557 C406.217103,263.909312 405.174917,264.952078 403.889629,264.952078 L338.521506,264.952078 C337.235467,264.952078 336.193281,263.909312 336.193281,262.622557 L336.193281,222.863041 Z" id="Path" fill="#185BFF" fill-rule="nonzero"></path>
                        <rect id="Rectangle" fill="#185BFF" fill-rule="nonzero" x="335.504493" y="150.426416" width="70.7121607" height="7.41043768" rx="2.32389513"></rect>
                        <rect id="Rectangle" fill="#5AE8AD" fill-rule="nonzero" x="335.541258" y="181.626085" width="26.9776219" height="7.41043768" rx="2.32389513"></rect>
                        <rect id="Rectangle" fill="#5AE8AD" fill-rule="nonzero" x="335.541258" y="193.961362" width="26.9776219" height="7.41043768" rx="2.32389513"></rect>
                        <rect id="Rectangle" fill="#5AE8AD" fill-rule="nonzero" x="335.541258" y="206.296639" width="26.9776219" height="7.41043768" rx="2.32389513"></rect>
                        <rect id="Rectangle" fill-opacity="0.4" fill="#FFFFFF" fill-rule="nonzero" x="341.979704" y="227.09792" width="58.4517267" height="2.64642026"></rect>
                        <rect id="Rectangle" fill-opacity="0.4" fill="#FFFFFF" fill-rule="nonzero" x="341.979704" y="236.073672" width="27.6094615" height="2.64642026"></rect>
                        <rect id="Rectangle" fill-opacity="0.4" fill="#FFFFFF" fill-rule="nonzero" x="341.979704" y="241.248467" width="27.6094615" height="2.64642026"></rect>
                        <rect id="Rectangle" fill-opacity="0.4" fill="#FFFFFF" fill-rule="nonzero" x="341.979704" y="246.423263" width="27.6094615" height="2.64642026"></rect>
                        <rect id="Rectangle" fill-opacity="0.4" fill="#FFFFFF" fill-rule="nonzero" x="341.979704" y="251.598058" width="27.6094615" height="2.64642026"></rect>
                        <rect id="Rectangle" fill-opacity="0.4" fill="#FFFFFF" fill-rule="nonzero" x="372.822119" y="176.701284" width="27.6094615" height="2.64642026"></rect>
                        <rect id="Rectangle" fill-opacity="0.4" fill="#FFFFFF" fill-rule="nonzero" x="372.822119" y="185.676284" width="27.6094615" height="2.64642026"></rect>
                        <rect id="Rectangle" fill-opacity="0.4" fill="#FFFFFF" fill-rule="nonzero" x="372.822119" y="190.85108" width="27.6094615" height="2.64642026"></rect>
                        <rect id="Rectangle" fill-opacity="0.4" fill="#FFFFFF" fill-rule="nonzero" x="372.822119" y="196.025875" width="27.6094615" height="2.64642026"></rect>
                        <rect id="Rectangle" fill-opacity="0.4" fill="#FFFFFF" fill-rule="nonzero" x="372.822119" y="201.200671" width="27.6094615" height="2.64642026"></rect>
                        <rect id="Rectangle" fill-opacity="0.4" fill="#FFFFFF" fill-rule="nonzero" x="372.822119" y="236.073672" width="27.6094615" height="18.1707164"></rect>
                        <rect id="Rectangle" fill="#185BFF" fill-rule="nonzero" x="4.35827503" y="191.749706" width="1.23443942" height="8.55181302"></rect>
                        <polygon id="Rectangle" fill="#185BFF" fill-rule="nonzero" transform="translate(4.975371, 196.025586) rotate(90.000000) translate(-4.975371, -196.025586) " points="4.35780756 191.752059 5.59293431 191.752059 5.59293431 200.299113 4.35780756 200.299113"></polygon>
                        <path d="M527.92782,331.426391 L527.92782,335.344461 C527.92782,346.459048 518.923299,355.468582 507.814897,355.468582 L433.374726,355.468582" id="Path" stroke="#8BADFF" stroke-width="1.49812734"></path>
                        <path d="M359.071861,377.525087 L355.543134,374.054453 C352.138958,370.706939 346.660914,370.742974 343.286001,374.120518 L343.286001,374.120518 C339.904335,377.503316 334.409034,377.516829 331.028118,374.13328 L331.028118,374.13328 C327.646452,370.750482 322.164656,370.750482 318.78299,374.13328 L318.78299,374.13328 C315.402075,377.516829 309.919529,377.516829 306.538613,374.13328 L306.538613,374.13328 C303.157697,370.750482 297.675151,370.750482 294.294236,374.13328 L294.294236,374.13328 C290.91257,377.516829 285.430774,377.516829 282.049108,374.13328 L282.049108,374.13328 C278.668192,370.750482 273.185646,370.750482 269.804731,374.13328 L269.804731,374.13328 C266.423065,377.516829 260.941269,377.516829 257.560353,374.13328 L257.560353,374.13328 C254.178687,370.750482 248.696892,370.750482 245.315226,374.13328 L245.315226,374.13328 C241.93431,377.516829 236.451764,377.516829 233.070848,374.13328 L233.070848,374.13328 C229.689182,370.750482 224.207387,370.750482 220.825721,374.13328 L220.668905,374.290934 C217.326255,377.635445 211.950254,377.77433 208.440284,374.60549 L204.104969,370.692675" id="Path" stroke="#A4D3FF" stroke-width="0.63808015"></path>
                        <path d="M72.7519649,179.126899 L76.1561404,175.675784 C79.1296355,172.660844 83.9879199,172.645079 86.9809233,175.639749 L88.4005177,177.060884 C91.3800154,180.042041 96.2105382,180.042041 99.1900358,177.060884 L100.645645,175.604464 C103.625143,172.623308 108.455666,172.623308 111.435163,175.604464 L112.890023,177.060884 C115.86952,180.042041 120.700043,180.042041 123.679541,177.060884 L123.993922,176.746328 C124.268537,176.470809 124.522894,176.175021 124.75249,175.860464 L126.16083,173.93859" id="Path" stroke="#A4D3FF" stroke-width="0.692403745" stroke-linecap="round"></path>
                        <path d="M399.362233,127.522334 L402.767159,124.070469 C405.740654,121.05628 410.598188,121.040515 413.591191,124.035184 L415.011536,125.455569 C417.991034,128.436726 422.821557,128.436726 425.800304,125.455569 L427.255913,123.9999 C430.235411,121.018743 435.065934,121.018743 438.045432,123.9999 L439.501041,125.455569 C442.479788,128.436726 447.310311,128.436726 450.289809,125.455569 L450.604191,125.141763 C450.879556,124.866245 451.133162,124.569705 451.363508,124.2559 L452.771098,122.333275" id="Path" stroke="#A4D3FF" stroke-width="0.692403745" stroke-linecap="round"></path>
                        <path d="M190.855171,245.351968 L194.259346,241.900103 C197.232841,238.885914 202.091126,238.870148 205.084129,241.864818 L206.503723,243.285954 C209.483221,246.26636 214.313744,246.26636 217.293242,243.285954 L218.748851,241.829534 C221.727598,238.848377 226.558121,238.848377 229.537619,241.829534 L230.993228,243.285954 C233.972726,246.26636 238.803249,246.26636 241.782747,243.285954 L242.096378,242.971397 C242.371743,242.695878 242.625349,242.40009 242.855696,242.085533 L244.263285,240.162909" id="Path" stroke="#A4D3FF" stroke-width="0.692403745" stroke-linecap="round"></path>
                        <path d="M188.263585,140.582818 L191.71278,143.988889 C194.725291,146.96404 194.741798,151.825029 191.748044,154.819699 L190.32845,156.240084 C187.348952,159.221241 187.348952,164.054453 190.32845,167.03561 L191.78406,168.49203 C194.762807,171.473186 194.762807,176.306399 191.78406,179.286805 L190.32845,180.743225 C187.348952,183.724381 187.348952,188.557594 190.32845,191.53875 L190.642832,191.852556 C190.918197,192.128075 191.213821,192.382573 191.527452,192.612297 L193.449007,194.021421" id="Path" stroke="#0035B7" stroke-width="0.692403745" stroke-linecap="round"></path>
                        <path d="M449.751834,273.24091 L453.201028,276.647732 C456.21429,279.622882 456.230046,284.483121 453.237043,287.477791 L451.816698,288.898926 C448.837201,291.880083 448.837201,296.713295 451.816698,299.694452 L453.272308,301.150121 C456.251805,304.131278 456.251805,308.96449 453.272308,311.945647 L451.816698,313.402067 C448.837201,316.382473 448.837201,321.215685 451.816698,324.196842 L452.13108,324.511399 C452.406445,324.786917 452.702069,325.040665 453.016451,325.271139 L454.937255,326.679513" id="Path" stroke="#0035B7" stroke-width="0.692403745" stroke-linecap="round"></path>
                        <ellipse id="Oval" fill="#185BFF" fill-rule="nonzero" cx="433.374726" cy="355.15853" rx="2.95363433" ry="2.9552789"></ellipse>
                        <ellipse id="Oval" fill="#185BFF" fill-rule="nonzero" cx="229.805481" cy="21.0538275" rx="2.95363433" ry="2.9552789"></ellipse>
                        <path d="M429.716944,4.21273241 L428.411397,2.82650584 C425.112266,-0.67573384 419.573446,-0.757788844 416.172272,2.64527915 L416.172272,2.64527915 C412.840877,5.97837892 407.395097,5.933335 404.063702,2.6003103 L404.063702,2.6003103 C400.682786,-0.782863292 395.154471,-0.828507795 391.773555,2.55459073 L391.773555,2.55459073 C388.391889,5.93776432 382.910094,5.93776432 379.528428,2.55459073 L379.528428,2.55459073 C376.147512,-0.828507795 370.665716,-0.828507795 367.28405,2.5546658 L367.28405,2.5546658 C363.903134,5.93776432 358.420589,5.93776432 355.039673,2.5546658 L355.039673,2.5546658 C351.658007,-0.828507795 346.176211,-0.828507795 342.794545,2.5546658 L342.794545,2.5546658 C339.413629,5.93776432 333.931084,5.93776432 330.550168,2.5546658 L330.550168,2.5546658 C327.169252,-0.828507795 321.686706,-0.828507795 318.305791,2.5546658 L318.305791,2.5546658 C314.924124,5.93776432 309.442329,5.93776432 306.060663,2.5546658 L306.060663,2.5546658 C302.679747,-0.828507795 297.197201,-0.828507795 293.816286,2.5546658 L293.490649,2.88078376 C290.193769,6.17889943 284.94232,6.45862216 281.31455,3.52941618 L280.869614,3.16959035" id="Path" stroke="#B5DBFF" stroke-width="0.63808015"></path>
                        <path d="M284.807263,4.20274768 C284.807263,5.83483897 283.484459,7.15800405 281.853276,7.15800405 C280.222093,7.15800405 278.899289,5.83483897 278.899289,4.20274768 C278.899289,2.57058132 280.222093,1.24741623 281.853276,1.24741623 C283.484459,1.24741623 284.807263,2.57058132 284.807263,4.20274768 Z" id="Path" fill="#B5DBFF" fill-rule="nonzero"></path>
                        <ellipse id="Oval" fill="#B5DBFF" fill-rule="nonzero" cx="429.716944" cy="4.48457246" rx="2.95363433" ry="2.9552789"></ellipse>
                        <rect id="Rectangle" fill="#185BFF" fill-rule="nonzero" x="114.65101" y="16.1605565" width="1.23443942" height="8.55181302"></rect>
                        <polygon id="Rectangle" fill="#185BFF" fill-rule="nonzero" transform="translate(115.268031, 20.436437) rotate(90.000000) translate(-115.268031, -20.436437) " points="114.650468 16.1629097 115.885594 16.1629097 115.885594 24.7099638 114.650468 24.7099638"></polygon>
                        <rect id="Rectangle" fill="#185BFF" fill-rule="nonzero" x="536.910581" y="155.387253" width="1.23443942" height="8.55181302"></rect>
                        <polygon id="Rectangle" fill="#185BFF" fill-rule="nonzero" transform="translate(537.527602, 159.663133) rotate(90.000000) translate(-537.527602, -159.663133) " points="536.910039 155.389606 538.145166 155.389606 538.145166 163.93666 536.910039 163.93666"></polygon>
                        <ellipse id="Oval" stroke="#E9E9E9" stroke-width="0.692403745" cx="465.184296" cy="188.908185" rx="27.1985144" ry="27.2136583"></ellipse>
                        <ellipse id="Oval" fill-opacity="0.6" fill="#FFFFFF" fill-rule="nonzero" cx="465.184296" cy="188.908185" rx="20.5913226" ry="20.6027877"></ellipse>
                        <g id="Group-2" transform="translate(213.817743, 86.593178)">
                            <path d="M7.71777525,2.35654763 C7.71777525,1.05477841 8.77271701,-5.68434189e-14 10.0730115,-5.68434189e-14 L62.9521546,-5.68434189e-14 C64.2531995,-5.68434189e-14 65.3081412,1.05477841 65.3081412,2.35654763 L65.3081412,41.3585746 L7.71777525,41.3585746 L7.71777525,2.35654763 Z" id="Path" fill="#0035B7" fill-rule="nonzero"></path>
                            <polygon id="Path" fill="#5AE8AD" fill-rule="nonzero" points="9.58005508 3.23790696 63.4458614 3.23790696 63.4458614 41.3585746 9.58005508 41.3585746"></polygon>
                            <polygon id="Path" fill="#2061FF" fill-rule="nonzero" points="9.58005508 39.6393984 63.4458614 39.6393984 63.4458614 41.3585746 9.58005508 41.3585746"></polygon>
                            <polygon id="Path" fill="#0035B7" fill-rule="nonzero" points="33.2097 39.6386477 28.4864721 28.4767648 26.0817152 22.7929731 22.5702447 32.7146468 9.65808776 6.15374991 9.65808776 39.6386477"></polygon>
                            <polygon id="Path" fill="#0035B7" points="63.4743733 23.7231301 55.7273793 12.9749005 45.5388628 23.1886089 47.8768419 28.7875679 42.5571142 39.6386477 63.4743733 39.6386477"></polygon>
                            <polygon id="Path" fill="#0035B7" fill-rule="nonzero" points="41.5757033 13.6986061 37.5555198 26.1630089 33.2097 39.6386477 42.5571142 39.6386477 45.5388628 23.1886089"></polygon>
                            <polygon id="Path" fill="#0035B7" fill-rule="nonzero" points="42.5571142 39.6386477 47.8768419 28.7875679 45.5388628 23.1886089"></polygon>
                            <polygon id="Path" fill="#0035B7" fill-rule="nonzero" points="33.2097 39.6386477 37.5555198 26.1630089 36.4112907 23.7231301 33.2097 30.3378294 30.1101521 25.8934962 28.4864721 28.4767648"></polygon>
                            <polygon id="Path" fill="#46BE8C" fill-rule="nonzero" points="9.58005508 3.23790696 63.4458614 3.23790696 63.4458614 5.92552739 9.58005508 5.92552739"></polygon>
                            <rect id="Rectangle" fill-opacity="0.9" fill="#7099FF" fill-rule="nonzero" x="12.7141175" y="34.2566502" width="47.598732" height="4.25551663" rx="1.56786517"></rect>
                            <path d="M0.495250818,42.8743024 C-0.308335684,42.5537399 -0.0787395402,41.3593253 0.786372726,41.3593253 L72.0767256,41.3593253 C72.9478403,41.3593253 73.1706837,42.5672531 72.3573431,42.8788068 L64.975752,45.7030605 C64.8864646,45.7368434 64.7911747,45.754861 64.6951345,45.754861 L7.86408652,45.754861 C7.76429473,45.754861 7.66600357,45.735342 7.57371493,45.6985561 L0.495250818,42.8743024 Z" id="Path" fill="#0035B7" fill-rule="nonzero"></path>
                            <rect id="Rectangle" fill="#5AE8AD" fill-rule="nonzero" x="30.4695526" y="41.3593253" width="12.0872615" height="1.19573584"></rect>
                            <ellipse id="Oval" fill-opacity="0.2" fill="#0035B7" fill-rule="nonzero" cx="17.8890345" cy="36.3842246" rx="1.2143235" ry="1.21499962"></ellipse>
                            <ellipse id="Oval" fill-opacity="0.2" fill="#0035B7" fill-rule="nonzero" cx="22.0277676" cy="36.3842246" rx="1.2143235" ry="1.21499962"></ellipse>
                            <ellipse id="Oval" fill-opacity="0.2" fill="#0035B7" fill-rule="nonzero" cx="26.1657503" cy="36.3842246" rx="1.2143235" ry="1.21499962"></ellipse>
                            <ellipse id="Oval" fill-opacity="0.2" fill="#0035B7" fill-rule="nonzero" cx="30.3052337" cy="36.3842246" rx="1.2143235" ry="1.21499962"></ellipse>
                            <ellipse id="Oval" fill-opacity="0.2" fill="#0035B7" fill-rule="nonzero" cx="34.4432165" cy="36.3842246" rx="1.2143235" ry="1.21499962"></ellipse>
                            <ellipse id="Oval" fill-opacity="0.2" fill="#0035B7" fill-rule="nonzero" cx="38.5819496" cy="36.3842246" rx="1.2143235" ry="1.21499962"></ellipse>
                            <ellipse id="Oval" fill-opacity="0.2" fill="#0035B7" fill-rule="nonzero" cx="42.7206827" cy="36.3842246" rx="1.2143235" ry="1.21499962"></ellipse>
                            <ellipse id="Oval" fill-opacity="0.2" fill="#0035B7" fill-rule="nonzero" cx="46.8594158" cy="36.3842246" rx="1.2143235" ry="1.21499962"></ellipse>
                            <ellipse id="Oval" fill-opacity="0.2" fill="#0035B7" fill-rule="nonzero" cx="50.9981489" cy="36.3842246" rx="1.2143235" ry="1.21499962"></ellipse>
                            <ellipse id="Oval" fill-opacity="0.2" fill="#0035B7" fill-rule="nonzero" cx="55.136882" cy="36.3842246" rx="1.2143235" ry="1.21499962"></ellipse>
                            <ellipse id="Oval" fill="#0035B7" fill-rule="nonzero" cx="20.5331417" cy="11.2459648" rx="4.41881788" ry="4.42127825"></ellipse>
                        </g>
                    </g>
                </g>
            </g>
        </g>
    </g>
</svg>