<?xml version="1.0" encoding="UTF-8"?>
<svg width="509px" height="376px" viewBox="0 0 509 376" version="1.1" xmlns="http://www.w3.org/2000/svg" xmlns:xlink="http://www.w3.org/1999/xlink">
    <!-- Generator: Sketch 57.1 (83088) - https://sketch.com -->
    <title>Illustration2</title>
    <desc>Created with Sketch.</desc>
    <g id="Page-1" stroke="none" stroke-width="1" fill="none" fill-rule="evenodd">
        <g id="Landing-Page" transform="translate(-713.000000, -2405.000000)">
            <g id="Illustration2" transform="translate(670.000000, 2367.000000)">
                <ellipse id="Oval" fill-opacity="0.1" fill="#002B6C" fill-rule="nonzero" cx="508.404" cy="412.130565" rx="23.38035" ry="1.41525303"></ellipse>
                <ellipse id="Oval" fill-opacity="0.1" fill="#002B6C" fill-rule="nonzero" cx="300.675" cy="411.778785" rx="122.6055" ry="1.7669278"></ellipse>
                <path d="M425.6115,167.684807 L418.707,160.929578 C415.01625,157.318572 409.09425,157.374195 405.447,161.02955 L405.447,161.02955 C401.79075,164.693925 395.8425,164.713468 392.1855,161.049093 L392.1855,161.049093 C388.52925,157.384718 382.60125,157.384718 378.945,161.049093 L378.945,161.049093 C375.288,164.713468 369.36,164.713468 365.70375,161.049093 L365.70375,161.049093 C362.0475,157.384718 356.11875,157.384718 352.4625,161.049093 L352.4625,161.049093 C348.80625,164.713468 342.8775,164.713468 339.22125,161.049093 L339.22125,161.049093 C335.565,157.384718 329.637,157.384718 325.98,161.049093 L325.98,161.049093 C322.32375,164.713468 316.39575,164.713468 312.7395,161.049093 L312.7395,161.049093 C309.0825,157.384718 303.1545,157.384718 299.49825,161.049093 L299.49825,161.049093 C295.842,164.713468 289.91325,164.713468 286.257,161.049093 L286.257,161.049093 C282.60075,157.384718 276.672,157.384718 273.01575,161.049093 L273.01575,161.049093 C269.3595,164.713468 263.4315,164.713468 259.7745,161.049093 L250.08975,151.342822" id="Path" stroke="#FFE170" stroke-width="0.69115725"></path>
                <rect id="Rectangle" fill="#000000" fill-rule="nonzero" x="515.06475" y="71.7551523" width="6.3623625" height="18.115768" rx="2.0734725"></rect>
                <path d="M420.614272,32.6628815 L422.843828,32.6628815 C423.988975,32.6628815 424.917301,33.5912067 424.917301,34.736354 L424.917301,48.665009 C424.917301,49.8101562 423.988975,50.7384815 422.843828,50.7384815 L420.614272,50.7384815 C419.469125,50.7384815 418.540799,49.8101562 418.540799,48.665009 L418.540799,34.736354 C418.540799,33.5912067 419.469125,32.6628815 420.614272,32.6628815 Z" id="Rectangle" fill="#000000" fill-rule="nonzero" transform="translate(421.729050, 41.700681) rotate(-90.000000) translate(-421.729050, -41.700681) "></path>
                <rect id="Rectangle" fill="#000000" fill-rule="nonzero" x="515.06475" y="93.15405" width="6.3623625" height="18.115768" rx="2.0734725"></rect>
                <path d="M383.303623,66.5935543 L530.078627,66.5935543 C539.239788,66.5935543 546.666377,74.020143 546.666377,83.1813043 L546.666377,176.125054 C546.666377,185.286216 539.239788,192.712804 530.078627,192.712804 L383.303623,192.712804 C374.142462,192.712804 366.715873,185.286216 366.715873,176.125054 L366.715873,83.1813043 C366.715873,74.020143 374.142462,66.5935543 383.303623,66.5935543 Z" id="Rectangle" fill="#B9DEFC" fill-rule="nonzero" transform="translate(456.691125, 129.653179) rotate(90.000000) translate(-456.691125, -129.653179) "></path>
                <path d="M383.309014,69.1889302 L530.073236,69.1889302 C537.801218,69.1889302 544.065986,75.4536977 544.065986,83.1816802 L544.065986,176.12543 C544.065986,183.853413 537.801218,190.11818 530.073236,190.11818 L383.309014,190.11818 C375.581032,190.11818 369.316264,183.853413 369.316264,176.12543 L369.316264,83.1816802 C369.316264,75.4536977 375.581032,69.1889302 383.309014,69.1889302 Z" id="Rectangle" stroke="#000000" stroke-width="5.19" transform="translate(456.691125, 129.653555) rotate(90.000000) translate(-456.691125, -129.653555) "></path>
                <path d="M399.32325,167.804322 L517.31475,167.804322 L517.31475,202.588448 C517.31475,209.279785 511.902,214.705315 505.22475,214.705315 L411.41325,214.705315 C404.736,214.705315 399.32325,209.279785 399.32325,202.588448 L399.32325,167.804322 Z" id="Path" fill="#B9DEFC" fill-rule="nonzero"></path>
                <rect id="Rectangle" fill-opacity="0.8" fill="#FFFFFF" fill-rule="nonzero" x="410.05725" y="178.426875" width="94.944" height="22.0364613" rx="3.75"></rect>
                <rect id="Rectangle" fill="#7BCFF1" fill-rule="nonzero" x="415.92225" y="182.40244" width="14.053425" height="14.0846548" rx="3"></rect>
                <rect id="Rectangle" fill="#7BCFF1" fill-rule="nonzero" x="438.97575" y="182.40244" width="14.053425" height="14.0846548" rx="3"></rect>
                <rect id="Rectangle" fill="#7BCFF1" fill-rule="nonzero" x="462.02925" y="182.40244" width="14.053425" height="14.0846548" rx="3"></rect>
                <rect id="Rectangle" fill-opacity="0.7" fill="#1B00B0" fill-rule="nonzero" x="485.08275" y="182.40244" width="14.053425" height="14.0846548" rx="3"></rect>
                <polygon id="Path" fill="#6EC5E9" fill-rule="nonzero" points="398.87775 134.851255 398.87775 170.124717 454.89075 170.124717"></polygon>
                <polygon id="Path" fill="#6EC5E9" fill-rule="nonzero" points="454.85175 106.294687 425.72175 170.124717 481.73475 170.124717"></polygon>
                <polygon id="Path" fill="#6EC5E9" fill-rule="nonzero" points="404.307 156.718742 461.0805 170.125468 449.99025 142.697152 420.58125 122.380353"></polygon>
                <polygon id="Path" fill="#6EC5E9" fill-rule="nonzero" points="399.7185 152.770988 422.3745 152.770988 420.3525 145.075425 411.97725 132.050545"></polygon>
                <polygon id="Path" fill="#6EC5E9" fill-rule="nonzero" points="451.61925 135.924635 474.12075 141.321602 472.254 128.229823 463.87875 115.204943"></polygon>
                <polygon id="Path" fill="#6EC5E9" fill-rule="nonzero" points="428.337 148.98334 450.8385 154.380307 448.97175 141.288528 440.5965 128.263648"></polygon>
                <polygon id="Path" fill="#6EC5E9" fill-rule="nonzero" points="482.85825 106.294687 453.72825 170.124717 509.74125 170.124717"></polygon>
                <polygon id="Path" fill="#6EC5E9" fill-rule="nonzero" points="515.06475 111.48269 459.05175 170.12622 515.06475 170.12622"></polygon>
                <ellipse id="Oval" fill="#7BCFF1" fill-rule="nonzero" cx="416.3295" cy="74.4670905" rx="11.2617" ry="11.286726"></ellipse>
                <rect id="Rectangle" fill="#F5F8FC" fill-rule="nonzero" x="415.92225" y="63.1803645" width="14.053425" height="14.0846548" rx="3"></rect>
                <rect id="Rectangle" fill="#F5F8FC" fill-rule="nonzero" x="438.97575" y="63.1803645" width="14.053425" height="14.0846548" rx="3"></rect>
                <rect id="Rectangle" fill="#F5F8FC" fill-rule="nonzero" x="462.02925" y="63.1803645" width="14.053425" height="14.0846548" rx="3"></rect>
                <rect id="Rectangle" fill="#F5F8FC" fill-rule="nonzero" x="485.08275" y="63.1803645" width="14.053425" height="14.0846548" rx="3"></rect>
                <rect id="Rectangle" fill="#F5F8FC" fill-rule="nonzero" x="415.92225" y="88.54032" width="14.053425" height="14.0846548" rx="3"></rect>
                <rect id="Rectangle" fill="#F5F8FC" fill-rule="nonzero" x="438.97575" y="88.54032" width="14.053425" height="14.0846548" rx="3"></rect>
                <rect id="Rectangle" fill="#F5F8FC" fill-rule="nonzero" x="462.02925" y="88.54032" width="14.053425" height="14.0846548" rx="3"></rect>
                <rect id="Rectangle" fill="#F5F8FC" fill-rule="nonzero" x="485.08275" y="88.54032" width="14.053425" height="14.0846548" rx="3"></rect>
                <rect id="Rectangle" fill="#F5F8FC" fill-rule="nonzero" x="415.92225" y="113.899298" width="14.053425" height="14.0846548" rx="3"></rect>
                <rect id="Rectangle" fill="#F5F8FC" fill-rule="nonzero" x="438.97575" y="113.899298" width="14.053425" height="14.0846548" rx="3"></rect>
                <rect id="Rectangle" fill="#F5F8FC" fill-rule="nonzero" x="462.02925" y="113.899298" width="14.053425" height="14.0846548" rx="3"></rect>
                <rect id="Rectangle" fill="#F5F8FC" fill-rule="nonzero" x="485.08275" y="113.899298" width="14.053425" height="14.0846548" rx="3"></rect>
                <path d="M157.3215,273.038407 C157.3215,313.35931 205.42725,308.221668 238.52925,302.820943 C291.18525,294.228642 264.27075,177.775932 311.45775,187.049243" id="Path" stroke="#4E2EFF" stroke-width="28.337475"></path>
                <polygon id="Path" fill="#1D06A0" fill-rule="nonzero" points="293.8755 226.93869 269.2365 207.705795 296.12625 217.519555"></polygon>
                <path d="M311.45775,187.049243 C295.683,183.94937 285.63825,195.203323 278.1405,211.779828" id="Path" stroke="#3119BF" stroke-width="39.396"></path>
                <path d="M101.2515,267.373847 C101.2515,264.077037 104.2485,261.404862 107.946,261.404862 L158.37225,261.404862 C165.71475,261.404862 171.61575,266.79807 171.435,273.342832 L107.946,273.342832 C104.2485,273.342832 101.2515,270.670657 101.2515,267.373847 Z" id="Path" fill="#4E2EFF" fill-rule="nonzero"></path>
                <path d="M181.917,265.28271 C181.917,263.141212 179.96925,261.404862 177.56775,261.404862 L144.80775,261.404862 C140.037,261.404862 136.203,264.90838 136.32075,269.160558 L177.56775,269.160558 C179.96925,269.160558 181.917,267.424208 181.917,265.28271 Z" id="Path" fill="#4E2EFF" fill-rule="nonzero"></path>
                <path d="M274.55025,188.44133 C276.84,188.30603 277.37025,188.036933 278.841,185.006965 C279.14325,187.840748 279.01125,188.10759 281.523,190.454293 C278.9355,190.31749 277.41,191.638168 276.9075,192.911492 C276.999,190.772248 276.50925,189.521475 274.55025,188.44133 Z" id="Path" fill="#7F63FF" fill-rule="nonzero"></path>
                <ellipse id="Oval" fill="#4E2EFF" fill-rule="nonzero" cx="283.938" cy="204.091782" rx="1.3088625" ry="1.31177108"></ellipse>
                <ellipse id="Oval" fill="#4E2EFF" fill-rule="nonzero" cx="289.45125" cy="178.688455" rx="1.3088625" ry="1.31177108"></ellipse>
                <path d="M218.21025,334.277442 C218.21025,346.71076 228.267,356.79061 240.67275,356.79061 C253.0785,356.79061 263.13525,346.71076 263.13525,334.277442 L218.21025,334.277442 Z M263.13525,334.277442 C263.13525,323.805973 261.4455,313.254828 259.7355,304.329538 C257.81025,294.287272 256.233,287.866535 255.10275,280.902343 C253.8705,273.31051 254.70375,272.685123 253.98675,274.716878 C253.239,276.836578 251.19675,280.343103 247.0125,282.571043 C243.348,284.52237 240.6285,284.0849 241.02375,284.132255 L246.3345,239.42237 C240.56625,238.734595 233.13075,238.976632 225.9315,242.810883 C218.21325,246.921748 213.81675,253.512362 211.632,259.706847 C208.04025,269.885917 209.6625,281.36537 210.7605,288.13037 C211.95975,295.523012 214.25325,305.71035 215.61675,312.823372 C217.194,321.05337 218.21025,328.205478 218.21025,334.277442 L263.13525,334.277442 Z M241.02375,284.132255 C248.06025,284.971867 259.146,289.869727 271.9395,298.041847 C284.0535,305.779503 295.032,314.706297 301.173,320.321247 L331.45125,287.057742 C323.652,279.927432 310.6395,269.36877 296.085,260.072157 C282.21,251.209255 263.949,241.52403 246.3345,239.42237 L241.02375,284.132255 Z" id="Shape" fill="#FCD74C" fill-rule="nonzero"></path>
                <path d="M300.534,263.499757 L395.53125,281.238338 C390.06225,305.054145 365.94975,319.552292 342.4095,313.17891 L303.9075,302.754045 L300.534,263.499757 Z" id="Path" fill="#FCD74C" fill-rule="nonzero"></path>
                <polygon id="Path" fill="#E7C74F" fill-rule="nonzero" points="292.03875 312.664018 281.83725 304.76325 325.08225 280.874532 325.08225 281.466845"></polygon>
                <path d="M241.0485,342.02036 C240.231,339.56241 233.6475,339.568423 230.4585,339.878862 C230.4585,344.440727 231.276,353.956075 234.546,355.520293 C238.63275,357.475378 242.16375,357.103303 250.803,354.403317 C257.71425,352.243027 261.672,342.702873 262.7865,338.202645 C259.566,342.640485 251.93625,351.72137 247.17975,352.540687 C241.2345,353.565208 242.07075,345.092422 241.0485,342.02036 Z" id="Path" fill="#E7C74F" fill-rule="nonzero"></path>
                <path d="M323.16675,268.508112 L395.53125,281.238338 C390.0405,305.149607 365.97675,319.83567 342.26025,313.749425 L324.14475,309.100367 L323.16675,268.508112 Z" id="Path" fill="#FFE170" fill-rule="nonzero"></path>
                <path d="M378.91125,262.930745 L302.41875,330.685978 C301.962,331.090375 302.21325,331.846552 302.8215,331.89541 L392.4855,339.055787" id="Path" stroke="#FFE170" stroke-width="44.925225" stroke-linecap="round"></path>
                <path d="M301.96125,346.491273 C288.6105,344.488833 281.72475,328.739162 282.1155,320.786528 C275.9625,333.629505 282.01275,343.88299 288.138,349.176978 C293.33025,353.664428 300.1695,354.346942 304.49775,354.590482 L347.60625,357.973733 L373.887,360.05585 L386.87625,357.186738 C364.134,354.455933 315.31125,348.494465 301.96125,346.491273 Z" id="Path" fill="#E7C74F" fill-rule="nonzero"></path>
                <path d="M385.41825,341.38896 C383.3385,339.967558 378.02325,341.05522 376.21125,342.515708 L387.95925,360.081407 C390.3225,360.950333 393.5055,362.738548 399.65025,360.654177 C407.331,358.0489 411.525,350.929865 411.525,350.929865 C411.525,350.929865 401.0655,358.532973 394.7265,356.445595 C388.0095,354.23344 388.01775,343.165148 385.41825,341.38896 Z" id="Path" fill="#E7C74F" fill-rule="nonzero"></path>
                <path d="M392.6085,289.896787 L325.40625,269.861112 C329.3325,269.861112 394.12575,283.367058 394.3935,284.798232 C394.60725,285.94302 393.2925,288.674577 392.6085,289.896787 Z" id="Path" fill="#E7C74F" fill-rule="nonzero"></path>
                <path d="M196.353,370.191323 C196.446,368.889437 198.246,368.218198 198.63225,368.76015 L198.63225,370.603237 L204.43125,373.857953 L216.60975,376.415123 L254.76825,374.904273 C257.5515,371.726978 264.834,370.191323 264.834,370.191323 C265.69275,370.41532 265.95525,379.631505 261.546,380.957445 C250.68075,384.224188 217.4445,382.630655 206.751,381.994745 C193.065,381.18069 196.2375,371.818682 196.353,370.191323 Z" id="Path" fill="#4E2EFF" fill-rule="nonzero"></path>
                <path d="M196.65525,369.789182 C196.65525,364.623728 218.51475,360.436945 223.66875,360.436945 L255.3255,360.436945 C260.4795,360.436945 264.65775,364.623728 264.65775,369.789182 C264.65775,374.954635 260.4795,379.14217 255.3255,379.14217 L205.9875,379.14217 C200.8335,379.14217 196.65525,374.954635 196.65525,369.789182 Z" id="Path" fill="#1D06A0" fill-rule="nonzero"></path>
                <path d="M218.07675,339.972068 C215.805,341.395725 232.11825,357.709898 219.1005,360.861637 L237.534,363.576657 C238.00725,358.951652 238.6695,344.827835 237.534,342.170693 C236.1135,338.850582 220.917,338.192873 218.07675,339.972068 Z" id="Path" fill="#1D06A0" fill-rule="nonzero"></path>
                <path d="M247.0425,359.944603 C239.2065,360.85412 237.21675,354.855068 234.945,354.03049 L233.97375,370.392018 C243.59025,372.80111 264.70425,370.392018 264.70425,370.392018 C265.13475,361.63886 264.2745,354.597998 262.0605,351.13056 C262.0605,351.13056 254.8785,359.035087 247.0425,359.944603 Z" id="Path" fill="#1D06A0" fill-rule="nonzero"></path>
                <path d="M203.85375,346.365745 C199.14375,350.39994 214.95075,358.703602 223.44225,362.350688 C228.438,358.202992 237.57225,349.69187 231.68475,346.366497 C225.12525,342.66078 222.729,353.303628 223.44225,361.599773 C219.2325,355.019683 208.56375,342.332302 203.85375,346.365745 Z" id="Path" stroke="#4E2EFF" stroke-width="2.0734725"></path>
                <path d="M347.32575,370.190572 C347.418,368.888685 349.218,368.217447 349.605,368.76015 L349.605,370.602485 L355.404,373.857202 L367.58175,376.414372 L405.74025,374.903522 C408.52425,371.726227 415.80675,370.190572 415.80675,370.190572 C416.66475,370.414568 416.92725,379.630753 412.518,380.956693 C401.65275,384.223437 368.4165,382.629903 357.723,381.993993 C344.037,381.18069 347.2095,371.81793 347.32575,370.190572 Z" id="Path" fill="#4E2EFF" fill-rule="nonzero"></path>
                <path d="M347.62725,369.78843 C347.62725,364.622977 369.4875,360.436193 374.6415,360.436193 L406.2975,360.436193 C411.4515,360.436193 415.62975,364.622977 415.62975,369.78843 C415.62975,374.953883 414.8985,377.776392 411.15975,378.443872 C391.97625,381.867713 356.9595,379.141418 356.9595,379.141418 C351.8055,379.141418 347.62725,374.953883 347.62725,369.78843 Z" id="Path" fill="#1D06A0" fill-rule="nonzero"></path>
                <path d="M398.0145,359.944603 C390.1785,360.85412 388.18875,354.855068 385.917,354.03049 L384.94575,370.392018 C394.56225,372.80111 415.67625,370.392018 415.67625,370.392018 C416.10675,361.63886 415.2465,354.597998 413.0325,351.13056 C413.0325,351.13056 405.8505,359.035087 398.0145,359.944603 Z" id="Path" fill="#1D06A0" fill-rule="nonzero"></path>
                <path d="M364.278,347.837508 C362.7735,350.059435 384.273,358.376627 373.63575,366.530707 L391.59225,361.550915 C390.1605,357.128108 385.0725,343.939365 382.96275,341.969998 C380.325,339.507538 366.159,345.0601 364.278,347.837508 Z" id="Path" fill="#1D06A0" fill-rule="nonzero"></path>
                <path d="M374.56575,359.677762 C366.07425,356.030675 350.95425,358.520947 355.66425,354.486752 C361.587,349.414505 378.0315,356.800382 374.56575,359.677762 Z" id="Path" stroke="#4E2EFF" stroke-width="2.0734725"></path>
                <path d="M374.76075,359.886725 C368.7195,366.892258 354.03825,371.288757 360.0345,372.848465 C367.57575,374.809563 379.13325,360.95334 374.76075,359.886725 Z" id="Path" stroke="#4E2EFF" stroke-width="2.0734725"></path>
                <path d="M296.3985,166.912093 C303.03825,158.710658 343.6995,164.471432 373.284,169.727837 C399.03225,174.30248 406.31775,187.997847 403.9395,208.362 C402.8985,217.276015 405.2685,277.827275 398.16975,286.465428 L300.5085,264.009387 C290.91375,216.289077 288.76725,176.339497 296.3985,166.912093 Z" id="Path" fill="#1D06A1" fill-rule="nonzero"></path>
                <path d="M365.37975,199.002247 C364.272,188.155697 381.29025,176.17413 381.29025,176.17413 L399.708,214.995458 C399.708,214.995458 400.19475,249.369927 403.392,252.796775 L402.84825,260.963633 C398.24925,256.034203 389.97075,248.836243 386.6205,242.573357 L380.59875,246.436923 C372.23325,233.255697 367.24725,217.297062 365.37975,199.002247 Z" id="Path" fill="#12007B" fill-rule="evenodd"></path>
                <path d="M307.50075,183.287903 C304.74525,185.653398 304.3335,186.500527 305.3715,191.72912 C302.28675,188.447343 302.1975,187.984317 296.79375,187.4356 C300.18525,185.127983 300.84675,182.00105 300.2655,179.915175 C302.19075,182.697845 304.002,183.804298 307.50075,183.287903 Z" id="Path" fill="#7F63FF" fill-rule="nonzero"></path>
                <path d="M341.94375,239.822257 C338.6805,238.233985 337.7415,238.193395 333.37125,241.233135 C335.1435,237.088445 335.53125,236.822355 333.8775,231.636607 C337.3425,233.832977 340.467,233.19406 342.144,231.82753 C340.365,234.707165 340.0755,236.813335 341.94375,239.822257 Z" id="Path" fill="#7F63FF" fill-rule="nonzero"></path>
                <path d="M354.276,192.373298 C356.08875,190.414455 356.31825,189.761257 355.12125,186.031487 C357.64875,188.166972 357.753,188.497705 361.7445,188.442082 C359.46225,190.412952 359.24175,192.752138 359.841,194.225405 C358.20225,192.35601 356.78625,191.701308 354.276,192.373298 Z" id="Path" fill="#7F63FF" fill-rule="nonzero"></path>
                <path d="M378.693,265.335327 C380.50575,263.375732 380.73525,262.722533 379.53825,258.992763 C382.0665,261.129 382.17,261.458982 386.1615,261.40411 C383.87925,263.37498 383.65875,265.713415 384.25875,267.187433 C382.61925,265.317287 381.204,264.662585 378.693,265.335327 Z" id="Path" fill="#7F63FF" fill-rule="nonzero"></path>
                <path d="M306.921,252.454767 C309.582,252.296917 310.1985,251.984975 311.90925,248.461913 C312.26025,251.75722 312.10725,252.066907 315.027,254.794705 C312.01875,254.635352 310.245,256.171007 309.66075,257.651038 C309.768,255.164525 309.198,253.71005 306.921,252.454767 Z" id="Path" fill="#7F63FF" fill-rule="nonzero"></path>
                <path d="M311.48625,212.693855 C313.77525,212.557803 314.3055,212.289458 315.777,209.258738 C316.07925,212.093273 315.94725,212.360115 318.459,214.706818 C315.8715,214.569263 314.34525,215.890693 313.84275,217.163265 C313.935,215.024773 313.4445,213.773248 311.48625,212.693855 Z" id="Path" fill="#7F63FF" fill-rule="nonzero"></path>
                <path d="M351.048,209.152753 C353.337,209.016702 353.86725,208.748357 355.33875,205.718388 C355.641,208.552172 355.509,208.819013 358.02075,211.165717 C355.43325,211.028162 353.907,212.349592 353.4045,213.622163 C353.49675,211.483672 353.00625,210.232898 351.048,209.152753 Z" id="Path" fill="#7F63FF" fill-rule="nonzero"></path>
                <path d="M326.511,192.720568 C327.93975,193.845062 328.395,193.964577 330.85575,192.941558 C329.55,194.781638 329.33175,194.871087 329.592,197.584603 C328.1295,196.141403 326.532,196.12186 325.56675,196.612698 C326.742,195.391992 327.10725,194.392275 326.511,192.720568 Z" id="Path" fill="#7F63FF" fill-rule="nonzero"></path>
                <path d="M356.433,231.573467 C357.86175,232.69796 358.317,232.817475 360.77775,231.794457 C359.472,233.634537 359.25375,233.723985 359.514,236.437502 C358.0515,234.994302 356.454,234.974758 355.48875,235.465597 C356.664,234.24489 357.02925,233.245173 356.433,231.573467 Z" id="Path" fill="#7F63FF" fill-rule="nonzero"></path>
                <path d="M349.5795,261.816775 C351.8685,261.681475 352.39875,261.412378 353.87025,258.38241 C354.1725,261.216945 354.0405,261.483787 356.55225,263.829738 C353.96475,263.692935 352.4385,265.013613 351.936,266.286937 C352.02825,264.147693 351.53775,262.89692 349.5795,261.816775 Z" id="Path" fill="#7F63FF" fill-rule="nonzero"></path>
                <ellipse id="Oval" fill="#4E2EFF" fill-rule="nonzero" cx="319.56375" cy="171.684425" rx="1.3088625" ry="1.31177108"></ellipse>
                <ellipse id="Oval" fill="#4E2EFF" fill-rule="nonzero" cx="302.421" cy="171.953522" rx="1.3088625" ry="1.31177108"></ellipse>
                <ellipse id="Oval" fill="#4E2EFF" fill-rule="nonzero" cx="334.20075" cy="206.71585" rx="1.3088625" ry="1.31177108"></ellipse>
                <ellipse id="Oval" fill="#4E2EFF" fill-rule="nonzero" cx="344.53725" cy="225.03096" rx="1.3088625" ry="1.31177108"></ellipse>
                <ellipse id="Oval" fill="#4E2EFF" fill-rule="nonzero" cx="365.25225" cy="172.995332" rx="1.3088625" ry="1.31177108"></ellipse>
                <ellipse id="Oval" fill="#4E2EFF" fill-rule="nonzero" cx="367.8705" cy="244.29317" rx="1.3088625" ry="1.31177108"></ellipse>
                <ellipse id="Oval" fill="#4E2EFF" fill-rule="nonzero" cx="328.86525" cy="261.618335" rx="1.3088625" ry="1.31177108"></ellipse>
                <ellipse id="Oval" fill="#4E2EFF" fill-rule="nonzero" cx="345.61875" cy="248.84376" rx="1.3088625" ry="1.31177108"></ellipse>
                <ellipse id="Oval" fill="#4E2EFF" fill-rule="nonzero" cx="299.80275" cy="214.702308" rx="1.3088625" ry="1.31177108"></ellipse>
                <ellipse id="Oval" fill="#4E2EFF" fill-rule="nonzero" cx="316.31175" cy="234.39372" rx="1.3088625" ry="1.31177108"></ellipse>
                <ellipse id="Oval" fill="#4E2EFF" fill-rule="nonzero" cx="386.8755" cy="275.702313" rx="1.3088625" ry="1.31177108"></ellipse>
                <ellipse id="Oval" fill="#4E2EFF" fill-rule="nonzero" cx="366.561" cy="261.675462" rx="1.3088625" ry="1.31177108"></ellipse>
                <path d="M178.8645,385.94325 L421.1355,385.942498" id="Path" stroke="#4E2EFF" stroke-width="6.2204175" stroke-linecap="round"></path>
                <ellipse id="Oval" fill="#4E2EFF" fill-rule="nonzero" cx="225.48" cy="399.111698" rx="8.226225" ry="7.85995283"></ellipse>
                <path d="M223.164,404.417713 C227.7075,404.417713 231.39,400.899162 231.39,396.558287 C231.39,395.200777 231.03,393.923695 230.39625,392.808973 C232.4055,394.242402 233.70675,396.531978 233.70675,399.11245 C233.70675,403.453325 230.0235,406.971877 225.48,406.971877 C222.35775,406.971877 219.64125,405.309942 218.2485,402.861012 C219.6195,403.83893 221.32125,404.417713 223.164,404.417713 Z" id="Path" fill="#3119BF" fill-rule="evenodd"></path>
                <ellipse id="Oval" fill="#4E2EFF" fill-rule="nonzero" cx="374.52075" cy="399.11245" rx="8.226225" ry="7.85995283"></ellipse>
                <path d="M372.204,404.417713 C376.7475,404.417713 380.43075,400.899162 380.43075,396.558287 C380.43075,395.200777 380.07075,393.923695 379.43625,392.808973 C381.4455,394.242402 382.74675,396.531978 382.74675,399.11245 C382.74675,403.453325 379.0635,406.971877 374.52075,406.971877 C371.39775,406.971877 368.682,405.309942 367.2885,402.861012 C368.6595,403.83893 370.36125,404.417713 372.204,404.417713 Z" id="Path" fill="#3119BF" fill-rule="evenodd"></path>
                <path d="M469.05975,264.432575 L467.99475,250.272678 L469.05975,264.432575 Z M376.8795,203.917395 C375.5715,196.185 380.76525,188.853995 388.47975,187.542337 C396.195,186.23143 403.50975,191.43597 404.8185,199.168365 L376.8795,203.917395 Z M530.69025,199.876435 C534.8055,224.1921 527.397,243.784292 514.54425,257.355633 C502.14075,270.452673 485.172,277.455952 470.12475,278.592472 L467.99475,250.272678 C476.55825,249.625493 486.78375,245.413905 493.9905,237.804783 C500.748,230.669212 505.36425,220.062443 502.752,204.624713 L530.69025,199.876435 Z M470.12475,278.592472 C447.9315,280.26944 426.69,276.239003 409.6065,263.512535 C392.3985,250.693612 381.3825,230.525643 376.8795,203.917395 L404.8185,199.168365 C408.438,220.55704 416.6055,233.339883 426.51075,240.718995 C436.5405,248.190562 450.3435,251.606135 467.99475,250.272678 L470.12475,278.592472 Z" id="Shape" fill="#4E2EFF" fill-rule="nonzero"></path>
                <polygon id="Path" fill="#1D06A0" fill-rule="nonzero" points="412.323 223.426903 389.85675 241.452622 387.6165 237.373327 411.7545 221.940858"></polygon>
                <path d="M382.70175,171.664882 C371.87925,172.775093 365.6835,183.646448 366.79125,194.492998 C368.6595,212.787813 373.64475,228.746448 382.01025,241.927675 L419.11425,218.12164 C414.723,211.202548 411.039,200.408615 405.81075,189.083253 C400.84875,178.335923 393.52425,170.55467 382.70175,171.664882 Z" id="Path" fill="#3119BF" fill-rule="evenodd"></path>
                <path d="M385.791,180.427812 C387.9945,179.791902 388.45275,179.413062 389.2245,176.132788 C390.14025,178.831272 390.06975,179.120663 393.0345,180.857013 C390.48,181.292228 389.2815,182.917332 389.07,184.26958 C388.69125,182.162658 387.93825,181.050192 385.791,180.427812 Z" id="Path" fill="#7F63FF" fill-rule="nonzero"></path>
                <path d="M390.6825,206.209227 C391.13925,203.957233 391.01625,203.374692 388.47225,201.170805 C391.28325,201.606772 391.50675,201.802957 394.4145,199.972648 C393.61725,202.444128 394.49925,204.260907 395.598,205.074962 C393.55875,204.436045 392.22675,204.589385 390.6825,206.209227 Z" id="Path" fill="#7F63FF" fill-rule="nonzero"></path>
                <path d="M381.501,222.27535 C383.7045,221.638688 384.16275,221.259848 384.93375,217.979575 C385.8495,220.678058 385.77975,220.96745 388.7445,222.7038 C386.19,223.139767 384.99075,224.764118 384.78,226.117118 C384.4005,224.010197 383.64825,222.89773 381.501,222.27535 Z" id="Path" fill="#7F63FF" fill-rule="nonzero"></path>
                <ellipse id="Oval" fill="#4E2EFF" fill-rule="nonzero" transform="translate(376.540500, 189.784558) rotate(-12.688600) translate(-376.540500, -189.784558) " cx="376.5405" cy="189.784558" rx="1.30900298" ry="1.3116309"></ellipse>
                <ellipse id="Oval" fill="#4E2EFF" fill-rule="nonzero" transform="translate(380.907000, 209.221155) rotate(-12.688600) translate(-380.907000, -209.221155) " cx="380.907" cy="209.221155" rx="1.30900298" ry="1.3116309"></ellipse>
                <ellipse id="Oval" fill="#4E2EFF" fill-rule="nonzero" transform="translate(397.967250, 193.224937) rotate(-12.688600) translate(-397.967250, -193.224937) " cx="397.96725" cy="193.224937" rx="1.30900298" ry="1.3116309"></ellipse>
                <ellipse id="Oval" fill="#4E2EFF" fill-rule="nonzero" transform="translate(405.381750, 214.284382) rotate(-12.688600) translate(-405.381750, -214.284382) " cx="405.38175" cy="214.284382" rx="1.30900298" ry="1.3116309"></ellipse>
                <path d="M489.9795,240.953515 C484.602,240.953515 480.2265,236.31498 480.2265,230.613588 L480.2265,135.280457 C480.2265,129.579065 484.602,124.94053 489.9795,124.94053 L530.598,124.94053 C535.9755,124.94053 540.351,129.579065 540.351,135.280457 L540.351,230.613588 C540.351,236.31498 535.9755,240.953515 530.598,240.953515 L489.9795,240.953515 Z" id="Path" fill="#1D06A0" fill-rule="nonzero"></path>
                <path d="M530.598,238.22722 L489.98025,238.22722 C486.08925,238.22722 482.9355,234.883055 482.9355,230.75866 L482.9355,135.424777 C482.9355,131.300382 486.08925,127.956217 489.98025,127.956217 L530.598,127.956217 C534.48825,127.956217 537.64275,131.300382 537.64275,135.424777 L537.64275,230.75866 C537.64275,234.883055 534.48825,238.22722 530.598,238.22722 Z" id="Path" fill="#E6E6E6" fill-rule="nonzero"></path>
                <path d="M531.41175,238.22722 L489.16575,238.22722 C486.447,238.22722 484.24275,235.89104 484.24275,233.008398 L484.24275,133.175038 C484.24275,130.293148 486.447,127.956217 489.16575,127.956217 L531.41175,127.956217 C534.1305,127.956217 536.334,130.293148 536.334,133.175038 L536.334,233.008398 C536.334,235.89104 534.1305,238.22722 531.41175,238.22722 Z" id="Path" fill="#FFFFFF" fill-rule="nonzero"></path>
                <path d="M516.09525,234.771808 L504.4815,234.771808 C504.09225,234.771808 503.77725,234.437317 503.77725,234.024652 C503.77725,233.611987 504.09225,233.278247 504.4815,233.278247 L516.09525,233.278247 C516.4845,233.278247 516.7995,233.611987 516.7995,234.024652 C516.7995,234.437317 516.4845,234.771808 516.09525,234.771808 Z" id="Path" fill="#E6E6E6" fill-rule="nonzero"></path>
                <path d="M523.74525,135.393207 L496.833,135.393207 C494.997,135.393207 493.509,133.81621 493.509,131.870145 L493.509,127.20455 L527.06925,127.20455 L527.06925,131.870145 C527.06925,133.81621 525.58125,135.393207 523.74525,135.393207 Z" id="Path" fill="#1D06A0" fill-rule="nonzero"></path>
                <path d="M518.148,132.566188 C518.5995,132.566188 518.9655,132.178328 518.9655,131.700268 C518.9655,131.222208 518.5995,130.834348 518.148,130.834348 C517.69725,130.834348 517.33125,131.222208 517.33125,131.700268 C517.33125,132.178328 517.69725,132.566188 518.148,132.566188 Z" id="Path" fill="#7F63FF" fill-rule="nonzero"></path>
                <path d="M522.9195,132.566188 C523.371,132.566188 523.73625,132.178328 523.73625,131.700268 C523.73625,131.222208 523.371,130.834348 522.9195,130.834348 C522.46875,130.834348 522.10275,131.222208 522.10275,131.700268 C522.10275,132.178328 522.46875,132.566188 522.9195,132.566188 Z" id="Path" fill="#7F63FF" fill-rule="nonzero"></path>
                <path d="M529.49475,144.59962 L491.08275,144.59962 C489.59025,144.59962 488.3805,143.317277 488.3805,141.735018 L488.3805,141.30732 C488.3805,139.725062 489.59025,138.441967 491.08275,138.441967 L529.49475,138.441967 C530.98725,138.441967 532.197,139.725062 532.197,141.30732 L532.197,141.735018 C532.197,143.317277 530.98725,144.59962 529.49475,144.59962 Z" id="Path" fill="#B9DEFC" fill-rule="nonzero"></path>
                <polygon id="Path" fill="#B9DEFC" fill-rule="nonzero" points="496.89675 221.37786 490.005 221.37786 490.005 228.68406 496.89675 228.68406"></polygon>
                <polygon id="Path" fill="#B9DEFC" fill-rule="nonzero" points="508.122 221.37786 501.23025 221.37786 501.23025 228.68406 508.122 228.68406"></polygon>
                <polygon id="Path" fill="#B9DEFC" fill-rule="nonzero" points="519.3465 221.37786 512.45475 221.37786 512.45475 228.68406 519.3465 228.68406"></polygon>
                <polygon id="Path" fill="#B9DEFC" fill-rule="nonzero" points="530.57175 221.37786 523.68 221.37786 523.68 228.68406 530.57175 228.68406"></polygon>
                <path d="M493.11675,185.995407 L490.53525,185.995407 C489.345,185.995407 488.3805,184.972388 488.3805,183.71034 L488.3805,180.973522 C488.3805,179.711473 489.345,178.689207 490.53525,178.689207 L493.11675,178.689207 C494.307,178.689207 495.27225,179.711473 495.27225,180.973522 L495.27225,183.71034 C495.27225,184.972388 494.307,185.995407 493.11675,185.995407 Z" id="Path" fill="#7F63FF" fill-rule="nonzero"></path>
                <path d="M530.04225,185.994655 L527.46075,185.994655 C526.2705,185.994655 525.30525,184.971637 525.30525,183.709588 L525.30525,180.97277 C525.30525,179.711473 526.2705,178.688455 527.46075,178.688455 L530.04225,178.688455 C531.2325,178.688455 532.197,179.711473 532.197,180.97277 L532.197,183.709588 C532.197,184.971637 531.2325,185.994655 530.04225,185.994655 Z" id="Path" fill="#7F63FF" fill-rule="nonzero"></path>
                <path d="M520.98375,185.994655 L518.40225,185.994655 C517.212,185.994655 516.2475,184.971637 516.2475,183.709588 L516.2475,180.97277 C516.2475,179.711473 517.212,178.688455 518.40225,178.688455 L520.98375,178.688455 C522.174,178.688455 523.13925,179.711473 523.13925,180.97277 L523.13925,183.709588 C523.13925,184.971637 522.174,185.994655 520.98375,185.994655 Z" id="Path" fill="#7F63FF" fill-rule="nonzero"></path>
                <path d="M493.11675,218.355408 L490.53525,218.355408 C489.345,218.355408 488.3805,217.33239 488.3805,216.070342 L488.3805,213.333523 C488.3805,212.072227 489.345,211.049208 490.53525,211.049208 L493.11675,211.049208 C494.307,211.049208 495.27225,212.072227 495.27225,213.333523 L495.27225,216.070342 C495.27225,217.33239 494.307,218.355408 493.11675,218.355408 Z" id="Path" fill="#B9DEFC" fill-rule="nonzero"></path>
                <path d="M530.04225,218.355408 L527.46075,218.355408 C526.2705,218.355408 525.30525,217.33239 525.30525,216.070342 L525.30525,213.333523 C525.30525,212.072227 526.2705,211.049208 527.46075,211.049208 L530.04225,211.049208 C531.2325,211.049208 532.197,212.072227 532.197,213.333523 L532.197,216.070342 C532.197,217.33239 531.2325,218.355408 530.04225,218.355408 Z" id="Path" fill="#B9DEFC" fill-rule="nonzero"></path>
                <path d="M520.98375,218.355408 L518.40225,218.355408 C517.212,218.355408 516.2475,217.33239 516.2475,216.070342 L516.2475,213.333523 C516.2475,212.072227 517.212,211.049208 518.40225,211.049208 L520.98375,211.049208 C522.174,211.049208 523.13925,212.072227 523.13925,213.333523 L523.13925,216.070342 C523.13925,217.33239 522.174,218.355408 520.98375,218.355408 Z" id="Path" fill="#B9DEFC" fill-rule="nonzero"></path>
                <path d="M532.197,208.027508 L488.3805,208.027508 L488.3805,192.182375 C488.3805,190.438508 489.714,189.024623 491.3595,189.024623 L529.218,189.024623 C530.8635,189.024623 532.197,190.438508 532.197,192.182375 L532.197,208.027508 Z" id="Path" fill="#B9DEFC" fill-rule="nonzero"></path>
                <path d="M529.218,176.391362 L491.3595,176.391362 C489.714,176.391362 488.3805,174.977477 488.3805,173.232858 L488.3805,152.35231 C488.3805,150.608443 489.714,149.193807 491.3595,149.193807 L529.218,149.193807 C530.8635,149.193807 532.197,150.608443 532.197,152.35231 L532.197,173.232858 C532.197,174.977477 530.8635,176.391362 529.218,176.391362 Z" id="Path" fill="#B9DEFC" fill-rule="nonzero"></path>
                <path d="M479.380753,180.007106 L494.738524,179.997345 C499.561418,179.99428 503.473632,183.901524 503.476697,188.724419 C503.476699,188.728115 503.476699,188.731812 503.476697,188.735508 L503.476674,188.77082 C503.473618,193.589384 499.568165,197.494841 494.749601,197.497904 L479.39183,197.507664 C474.568936,197.510729 470.656722,193.603485 470.653657,188.78059 C470.653655,188.776894 470.653655,188.773197 470.653657,188.769501 L470.65368,188.734189 C470.656736,183.915625 474.562189,180.010168 479.380753,180.007106 Z" id="Rectangle" fill="#1D06A0" fill-rule="nonzero" transform="translate(487.065177, 188.752505) rotate(-17.448000) translate(-487.065177, -188.752505) "></path>
                <rect id="Rectangle" fill="#1D06A0" fill-rule="nonzero" x="525.93525" y="200.98364" width="25.40385" height="13.8233003" rx="6.89631"></rect>
                <path d="M518.14875,194.072065 C518.14875,190.25435 521.2365,187.16049 525.045,187.16049 L544.44225,187.16049 C548.25075,187.16049 551.3385,190.25435 551.3385,194.072065 C551.3385,197.889028 548.25075,200.98364 544.44225,200.98364 L525.045,200.98364 C521.2365,200.98364 518.14875,197.889028 518.14875,194.072065 Z" id="Path" fill="#1D06A0" fill-rule="nonzero"></path>
                <path d="M518.14875,180.248915 C518.14875,176.431952 521.2365,173.33734 525.045,173.33734 L544.44225,173.33734 C548.25075,173.33734 551.3385,176.431952 551.3385,180.248915 C551.3385,184.065878 548.25075,187.16049 544.44225,187.16049 L525.045,187.16049 C521.2365,187.16049 518.14875,184.065878 518.14875,180.248915 Z" id="Path" fill="#1D06A0" fill-rule="nonzero"></path>
                <path d="M518.148,166.425013 C518.148,162.60805 521.23575,159.513438 525.04425,159.513438 L544.44225,159.513438 C548.25075,159.513438 551.3385,162.60805 551.3385,166.425013 C551.3385,170.241977 548.25075,173.336588 544.44225,173.336588 L525.04425,173.336588 C521.23575,173.336588 518.148,170.241977 518.148,166.425013 Z" id="Path" fill="#1D06A0" fill-rule="nonzero"></path>
                <path d="M314.39325,113.853447 C313.164,110.921195 316.2705,105.692602 317.97675,103.445118 C320.1705,104.544807 324.55875,106.817095 324.55875,107.110245 L324.55875,113.853447 C321.6825,115.074905 315.62175,116.784947 314.39325,113.853447 Z" id="Path" fill="#3B19FD" fill-rule="nonzero"></path>
                <path d="M332.09325,134.252177 L351.13875,134.001872 L351.6585,173.76128 C351.6585,173.76128 349.98675,179.929457 338.934,180.672855 C333.01275,181.07199 332.61225,174.010833 332.61225,174.010833 L332.09325,134.252177 Z" id="Path" fill="#4E2EFF" fill-rule="nonzero"></path>
                <path d="M332.44125,160.900263 L332.25225,146.45323 L334.13925,145.419688 C339.64275,144.429743 350.32425,144.045642 349.01625,150.433305 C347.823,156.260977 338.2845,159.646483 332.44125,160.900263 Z" id="Path" fill="#1D06A0" fill-rule="evenodd"></path>
                <path d="M336.5115,153.025803 C350.937,152.973938 362.58825,141.178785 362.535927,126.68139 C362.48325,112.183995 350.74725,100.47378 336.32175,100.52622 C321.897,100.579013 310.245,112.374167 310.297323,126.871562 C310.30725,129.506905 310.713,132.061068 311.45775,134.47467 L311.45775,148.785652 C311.45775,151.08049 313.31475,152.941617 315.6045,152.941617 C322.57425,152.9341 329.54625,153.05136 336.5115,153.025803 Z" id="Path" fill="#7F63FF" fill-rule="evenodd"></path>
                <path d="M357.69525,142.004115 C360.76125,137.684287 362.55675,132.392553 362.536669,126.68139 C362.51325,120.305002 360.23025,114.46831 356.45175,109.933505 L337.365,109.125463 L332.61375,117.207383 L338.33325,124.848827 C338.33325,124.848827 347.2305,117.761362 353.856,120.345592 C359.81775,122.671248 358.09875,138.798257 357.69525,142.004115 Z" id="Path" fill="#4E2EFF" fill-rule="evenodd"></path>
                <path d="M328.93725,49.5046915 L329.91675,53.9500482 L330.96675,49.4487675 C347.67075,49.0752643 365.67525,50.7408073 365.67525,50.7408073 C365.67525,50.7408073 366.75825,107.709323 357.114,110.189072 C349.70025,112.095298 337.54425,109.098403 337.54425,109.098403 C337.54425,109.098403 328.92,118.145463 314.2005,112.521493 L305.109,53.941855 C307.248,52.4046215 310.896,51.3489057 315.37575,50.6447443 L317.1315,58.6156432 L319.10475,50.1560107 C322.17975,49.8236237 325.51425,49.6173663 328.93725,49.5046915 Z" id="Path" fill="#1D06A0" fill-rule="evenodd"></path>
                <path d="M346.92825,126.387488 C347.583,124.594012 352.2735,123.340983 353.217,128.225313 C354.396,134.331102 348.50025,133.871833 348.10725,132.42713" id="Path" stroke="#4E2EFF" stroke-width="3.45579" stroke-linecap="round"></path>
                <ellipse id="Oval" fill="#FFF170" fill-rule="nonzero" cx="303.8985" cy="124.67444" rx="7.5597" ry="13.94943"></ellipse>
                <path d="M306.03375,135.157183 C306.45225,134.481435 311.088,126.809925 313.35375,123.059108 C313.635,128.101288 313.851,138.239017 312.46275,138.455497 C310.728,138.725345 305.511,136.002808 306.03375,135.157183 Z" id="Path" fill="#4E2EFF" fill-rule="nonzero"></path>
                <ellipse id="Oval" fill="#FFF170" fill-rule="nonzero" cx="321.1515" cy="124.675192" rx="7.5597" ry="13.94943"></ellipse>
                <rect id="Rectangle" fill="#7BCFF1" fill-rule="nonzero" x="528.5145" y="318.030918" width="4.1523675" height="11.8231153" rx="0.89538"></rect>
                <rect id="Rectangle" fill="#7BCFF1" fill-rule="nonzero" x="483.9975" y="332.623023" width="4.1523675" height="11.8231153" rx="0.89538"></rect>
                <rect id="Rectangle" fill="#7BCFF1" fill-rule="nonzero" x="483.9975" y="318.030918" width="4.1523675" height="11.8231153" rx="0.89538"></rect>
                <path d="M466.726784,320.588982 L550.067791,320.588982 C554.02382,320.588982 557.230816,323.795978 557.230816,327.752007 L557.230816,360.198882 C557.230816,364.154912 554.02382,367.361907 550.067791,367.361907 L466.726784,367.361907 C462.770755,367.361907 459.563759,364.154912 459.563759,360.198882 L459.563759,327.752007 C459.563759,323.795978 462.770755,320.588982 466.726784,320.588982 Z" id="Rectangle" fill="#6EC5E9" fill-rule="nonzero" transform="translate(508.397287, 343.975445) rotate(90.000000) translate(-508.397287, -343.975445) "></path>
                <path d="M468.159475,322.384146 L548.636675,322.384146 C552.510288,322.384146 555.650472,325.52433 555.650472,329.397943 L555.650472,358.553698 C555.650472,362.427312 552.510288,365.567496 548.636675,365.567496 L468.159475,365.567496 C464.285862,365.567496 461.145677,362.427312 461.145677,358.553698 L461.145677,329.397943 C461.145677,325.52433 464.285862,322.384146 468.159475,322.384146 Z" id="Rectangle" stroke="#1D06A0" stroke-width="0.5" transform="translate(508.398075, 343.975821) rotate(90.000000) translate(-508.398075, -343.975821) "></path>
                <ellipse id="Oval" fill="#1D06A0" fill-rule="nonzero" cx="508.39875" cy="382.581797" rx="3.4302675" ry="3.43789032"></ellipse>
                <path d="M500.48925,296.573842 L516.30675,296.573842 L516.30675,299.300888 C516.30675,299.961603 515.772,300.497542 515.11275,300.497542 L501.68325,300.497542 C501.024,300.497542 500.48925,299.961603 500.48925,299.300888 L500.48925,296.573842 Z" id="Path" fill="#1D06A0" fill-rule="nonzero"></path>
                <path d="M44.50125,389.832373 L48.18285,386.093583 C51.398325,382.828343 56.651475,382.811055 59.88825,386.055248 L61.423725,387.59391 C64.6455,390.82307 69.8691,390.82307 73.09095,387.59391 L74.66475,386.016913 C77.88675,382.787753 83.1105,382.787753 86.33175,386.016913 L87.906,387.59391 C91.128,390.82307 96.351,390.82307 99.573,387.59391 L99.91275,387.253405 C100.2105,386.954993 100.485,386.634783 100.734,386.294278 L102.2565,384.212162" id="Path" stroke="#1D06A0" stroke-width="1.5" stroke-linecap="round"></path>
                <rect id="Rectangle" fill="#6EC5E9" fill-rule="evenodd" x="75.66825" y="211.120617" width="174.0465" height="37.8822712" rx="18.8991"></rect>
                <path d="M162.216,220.524718 C161.802,220.524718 161.466,220.861465 161.466,221.276385 L161.466,222.90675 C160.40775,223.121727 159.423,223.538902 158.55225,224.116933 L157.4025,222.963877 C157.10925,222.670727 156.6345,222.670727 156.342,222.963877 L155.058,224.25073 C154.76475,224.544632 154.76475,225.020437 155.058,225.313587 L156.20775,226.466643 C155.63175,227.338577 155.2155,228.326267 155.00025,229.386868 L153.37425,229.386868 C152.9595,229.386868 152.62425,229.723615 152.62425,230.138535 L152.62425,231.95832 C152.62425,232.37324 152.9595,232.709987 153.37425,232.709987 L155.00025,232.709987 C155.2155,233.770588 155.63175,234.758278 156.20775,235.630212 L155.05725,236.783268 C154.76475,237.076418 154.76475,237.552223 155.05725,237.846125 L156.34125,239.132978 C156.6345,239.426128 157.10925,239.426128 157.40175,239.132978 L158.553,237.979922 C159.423,238.557202 160.40775,238.974377 161.466,239.190105 L161.466,240.819718 C161.466,241.23539 161.802,241.571385 162.216,241.571385 L164.03175,241.571385 C164.4465,241.571385 164.78175,241.23539 164.78175,240.819718 L164.78175,239.190105 C165.84,238.974377 166.8255,238.557202 167.6955,237.979922 L168.846,239.132978 C169.13925,239.42688 169.614,239.42688 169.90725,239.132978 L171.19125,237.846125 C171.48375,237.552975 171.48375,237.076418 171.19125,236.783268 L170.04,235.630212 C170.61675,234.758278 171.033,233.770588 171.2475,232.709987 L172.87425,232.709987 C173.28825,232.709987 173.62425,232.37324 173.62425,231.95832 L173.62425,230.138535 C173.62425,229.723615 173.28825,229.386868 172.87425,229.386868 L171.2475,229.386868 C171.033,228.326267 170.61675,227.338577 170.04,226.466643 L171.1905,225.313587 C171.48375,225.020437 171.48375,224.54388 171.1905,224.25073 L169.9065,222.963877 C169.614,222.669975 169.13925,222.669975 168.846,222.963877 L167.6955,224.116933 C166.8255,223.538902 165.84075,223.121727 164.78175,222.90675 L164.78175,221.276385 C164.78175,220.861465 164.4465,220.524718 164.03175,220.524718 L162.216,220.524718 Z M163.1235,237.023802 C166.41675,237.023802 169.086,234.34862 169.086,231.048052 C169.086,227.748235 166.41675,225.073053 163.1235,225.073053 C159.831,225.073053 157.16175,227.748235 157.16175,231.048052 C157.16175,234.34862 159.831,237.023802 163.1235,237.023802 Z" id="Shape" fill="#FFFFFF" fill-rule="evenodd"></path>
                <path d="M116.64525,221.03059 L127.12425,231.294598 L125.55225,232.834012 L116.70825,224.120692 L107.6955,232.948265 L106.12425,231.408852 L115.14075,222.576768 L115.134,222.570003 L116.64525,221.03059 Z M116.703,226.374188 L109.81875,233.116638 L109.81875,241.065513 L114.59775,241.065513 L114.59775,236.019575 L118.6935,236.019575 L118.6935,241.065513 L123.47175,241.065513 L123.47175,233.042223 L116.703,226.374188 Z M112.2,221.03059 L109.236,221.03059 L109.236,226.246405 L112.2,223.342717 L112.2,221.03059 Z" id="Shape" fill="#FFFFFF" fill-rule="evenodd"></path>
                <path d="M209.76525,221.583065 L211.9215,227.981252 L218.65875,228.059425 C219.2385,228.06619 219.4785,228.806582 219.0135,229.1531 L213.60825,233.18504 L215.616,239.631333 C215.7885,240.186063 215.16075,240.643077 214.6875,240.307082 L209.1915,236.40067 L203.69475,240.30633 C203.22225,240.642325 202.59375,240.18456 202.76625,239.630582 L204.774,233.184288 L199.36875,229.152348 C198.90375,228.80583 199.14375,228.065438 199.7235,228.058673 L206.46075,227.9805 L208.617,221.582313 C208.803,221.032093 209.58,221.032093 209.76525,221.583065 Z" id="Path" fill="#FFFFFF" fill-rule="nonzero"></path>
                <rect id="Rectangle" fill="#B9DEFC" fill-rule="nonzero" x="72.9159" y="40.6285605" width="179.5515" height="158.08903" rx="20.0436"></rect>
                <rect id="Rectangle" fill="#6EC5E9" fill-rule="nonzero" x="72.9159" y="148.151245" width="179.52525" height="15.2267372"></rect>
                <polygon id="Path" fill="#6EC5E9" fill-rule="nonzero" points="73.3788 94.6746717 73.3788 148.343672 158.60325 148.343672"></polygon>
                <polygon id="Path" fill="#6EC5E9" fill-rule="nonzero" points="160.827 51.2248807 116.505 148.343672 201.72975 148.343672"></polygon>
                <polygon id="Path" fill="#7BCFF1" fill-rule="nonzero" points="116.36175 74.2491072 85.07925 148.343672 170.304 148.343672"></polygon>
                <polygon id="Path" fill="#7BCFF1" fill-rule="nonzero" points="203.439 51.2248807 159.117 148.343672 244.34175 148.343672"></polygon>
                <polygon id="Path" fill="#7BCFF1" fill-rule="nonzero" points="252.441 80.9334533 167.217 148.343672 252.441 148.343672"></polygon>
                <ellipse id="Oval" fill-opacity="0.3" fill="#002B6C" fill-rule="nonzero" cx="162.6915" cy="180.325585" rx="60.744675" ry="1.6368594"></ellipse>
                <path d="M115.2435,169.42266 C111.111,169.42266 107.7495,166.052938 107.7495,161.911255 L107.7495,92.655695 C107.7495,88.5140117 111.111,85.14429 115.2435,85.14429 L146.457,85.14429 C150.5895,85.14429 153.95175,88.5140117 153.95175,92.655695 L153.95175,161.911255 C153.95175,166.052938 150.5895,169.42266 146.457,169.42266 L115.2435,169.42266 Z" id="Path" fill="#F2F2F2" fill-rule="nonzero"></path>
                <path d="M146.457,167.442018 L115.24425,167.442018 C112.254,167.442018 109.83,165.012632 109.83,162.016488 L109.83,92.7609283 C109.83,89.7640333 112.254,87.3346467 115.24425,87.3346467 L146.457,87.3346467 C149.4465,87.3346467 151.8705,89.7640333 151.8705,92.7609283 L151.8705,162.016488 C151.8705,165.012632 149.4465,167.442018 146.457,167.442018 Z" id="Path" fill="#E6E6E6" fill-rule="nonzero"></path>
                <path d="M147.0825,167.442018 L114.618,167.442018 C112.52925,167.442018 110.83575,165.744755 110.83575,163.650612 L110.83575,91.1260533 C110.83575,89.0326617 112.52925,87.3346467 114.618,87.3346467 L147.0825,87.3346467 C149.17125,87.3346467 150.8655,89.0326617 150.8655,91.1260533 L150.8655,163.650612 C150.8655,165.744755 149.17125,167.442018 147.0825,167.442018 Z" id="Path" fill="#FFFFFF" fill-rule="nonzero"></path>
                <path d="M135.31275,164.931452 L126.38775,164.931452 C126.08925,164.931452 125.84625,164.688663 125.84625,164.388748 C125.84625,164.089585 126.08925,163.846797 126.38775,163.846797 L135.31275,163.846797 C135.61125,163.846797 135.85425,164.089585 135.85425,164.388748 C135.85425,164.688663 135.61125,164.931452 135.31275,164.931452 Z" id="Path" fill="#E6E6E6" fill-rule="nonzero"></path>
                <path d="M141.1905,93.2833367 L120.51,93.2833367 C119.09925,93.2833367 117.9555,92.1377967 117.9555,90.7239117 L117.9555,87.3346467 L143.745,87.3346467 L143.745,90.7239117 C143.745,92.1377967 142.60125,93.2833367 141.1905,93.2833367 Z" id="Path" fill="#F2F2F2" fill-rule="nonzero"></path>
                <path d="M136.89,90.6840733 C137.23725,90.6840733 137.51775,90.4021983 137.51775,90.0549283 C137.51775,89.7076583 137.23725,89.4257833 136.89,89.4257833 C136.5435,89.4257833 136.263,89.7076583 136.263,90.0549283 C136.263,90.4021983 136.5435,90.6840733 136.89,90.6840733 Z" id="Path" fill="#185BFF" fill-rule="nonzero"></path>
                <path d="M140.55675,90.6840733 C140.90325,90.6840733 141.1845,90.4021983 141.1845,90.0549283 C141.1845,89.7076583 140.90325,89.4257833 140.55675,89.4257833 C140.2095,89.4257833 139.929,89.7076583 139.929,90.0549283 C139.929,90.4021983 140.2095,90.6840733 140.55675,90.6840733 Z" id="Path" fill="#185BFF" fill-rule="nonzero"></path>
                <path d="M145.6095,99.4259567 L116.09175,99.4259567 C114.945,99.4259567 114.015,98.49389 114.015,97.3445917 L114.015,97.0341533 C114.015,95.8841033 114.945,94.9527883 116.09175,94.9527883 L145.6095,94.9527883 C146.75625,94.9527883 147.68625,95.8841033 147.68625,97.0341533 L147.68625,97.3445917 C147.68625,98.49389 146.75625,99.4259567 145.6095,99.4259567 Z" id="Path" fill="#4E2EFF" fill-rule="nonzero"></path>
                <polygon id="Path" fill="#4E2EFF" fill-rule="nonzero" points="120.5595 155.201878 115.26375 155.201878 115.26375 160.509397 120.5595 160.509397"></polygon>
                <polygon id="Path" fill="#4E2EFF" fill-rule="nonzero" points="129.18525 155.201878 123.8895 155.201878 123.8895 160.509397 129.18525 160.509397"></polygon>
                <polygon id="Path" fill="#4E2EFF" fill-rule="nonzero" points="137.811 155.201878 132.51525 155.201878 132.51525 160.509397 137.811 160.509397"></polygon>
                <polygon id="Path" fill="#4E2EFF" fill-rule="nonzero" points="146.43675 155.201878 141.141 155.201878 141.141 160.509397 146.43675 160.509397"></polygon>
                <path d="M117.65475,129.497885 L115.671,129.497885 C114.756,129.497885 114.015,128.754487 114.015,127.837453 L114.015,125.849295 C114.015,124.933013 114.756,124.189615 115.671,124.189615 L117.65475,124.189615 C118.569,124.189615 119.31075,124.933013 119.31075,125.849295 L119.31075,127.837453 C119.31075,128.754487 118.569,129.497885 117.65475,129.497885 Z" id="Path" fill="#4E2EFF" fill-rule="nonzero"></path>
                <path d="M146.0295,129.497885 L144.04575,129.497885 C143.13075,129.497885 142.38975,128.754487 142.38975,127.837453 L142.38975,125.849295 C142.38975,124.933013 143.13075,124.189615 144.04575,124.189615 L146.0295,124.189615 C146.94375,124.189615 147.6855,124.933013 147.6855,125.849295 L147.6855,127.837453 C147.6855,128.754487 146.94375,129.497885 146.0295,129.497885 Z" id="Path" fill="#4E2EFF" fill-rule="nonzero"></path>
                <path d="M139.068,129.497885 L137.08425,129.497885 C136.17,129.497885 135.42825,128.754487 135.42825,127.837453 L135.42825,125.849295 C135.42825,124.933013 136.17,124.189615 137.08425,124.189615 L139.068,124.189615 C139.983,124.189615 140.72475,124.933013 140.72475,125.849295 L140.72475,127.837453 C140.72475,128.754487 139.983,129.497885 139.068,129.497885 Z" id="Path" fill="#4E2EFF" fill-rule="nonzero"></path>
                <path d="M117.65475,153.00626 L115.671,153.00626 C114.756,153.00626 114.015,152.263613 114.015,151.34658 L114.015,149.358422 C114.015,148.44214 114.756,147.698742 115.671,147.698742 L117.65475,147.698742 C118.569,147.698742 119.31075,148.44214 119.31075,149.358422 L119.31075,151.34658 C119.31075,152.263613 118.569,153.00626 117.65475,153.00626 Z" id="Path" fill="#4E2EFF" fill-rule="nonzero"></path>
                <path d="M146.0295,153.00626 L144.04575,153.00626 C143.13075,153.00626 142.38975,152.262862 142.38975,151.34658 L142.38975,149.358422 C142.38975,148.441388 143.13075,147.698742 144.04575,147.698742 L146.0295,147.698742 C146.94375,147.698742 147.6855,148.441388 147.6855,149.358422 L147.6855,151.34658 C147.6855,152.262862 146.94375,153.00626 146.0295,153.00626 Z" id="Path" fill="#4E2EFF" fill-rule="nonzero"></path>
                <path d="M139.068,153.00626 L137.08425,153.00626 C136.17,153.00626 135.42825,152.262862 135.42825,151.34658 L135.42825,149.358422 C135.42825,148.441388 136.17,147.698742 137.08425,147.698742 L139.068,147.698742 C139.983,147.698742 140.72475,148.441388 140.72475,149.358422 L140.72475,151.34658 C140.72475,152.262862 139.983,153.00626 139.068,153.00626 Z" id="Path" fill="#4E2EFF" fill-rule="nonzero"></path>
                <path d="M147.6855,145.503123 L114.015,145.503123 L114.015,133.992852 C114.015,132.725542 115.0395,131.698013 116.304,131.698013 L145.3965,131.698013 C146.66025,131.698013 147.6855,132.725542 147.6855,133.992852 L147.6855,145.503123 Z" id="Path" fill="#4E2EFF" fill-rule="nonzero"></path>
                <path d="M145.3965,122.520915 L116.304,122.520915 C115.04025,122.520915 114.015,121.493387 114.015,120.226077 L114.015,105.057443 C114.015,103.790133 115.04025,102.763357 116.304,102.763357 L145.3965,102.763357 C146.661,102.763357 147.68625,103.790133 147.68625,105.057443 L147.68625,120.226077 C147.68625,121.493387 146.661,122.520915 145.3965,122.520915 Z" id="Path" fill="#4E2EFF" fill-rule="nonzero"></path>
                <path d="M178.92675,169.42266 C174.79425,169.42266 171.432,165.376438 171.432,160.401908 L171.432,77.2352533 C171.432,72.2613247 174.79425,68.2148775 178.92675,68.2148775 L210.1395,68.2148775 C214.272,68.2148775 217.63425,72.2613247 217.63425,77.2352533 L217.63425,160.401908 C217.63425,165.376438 214.272,169.42266 210.1395,169.42266 L178.92675,169.42266 Z" id="Path" fill="#F2F2F2" fill-rule="nonzero"></path>
                <path d="M210.1395,167.043635 L178.92675,167.043635 C175.93725,167.043635 173.51325,164.126417 173.51325,160.528188 L173.51325,77.3607817 C173.51325,73.7627788 175.93725,70.8457108 178.92675,70.8457108 L210.1395,70.8457108 C213.12975,70.8457108 215.553,73.7627788 215.553,77.3607817 L215.553,160.528188 C215.553,164.126417 213.12975,167.043635 210.1395,167.043635 Z" id="Path" fill="#E6E6E6" fill-rule="nonzero"></path>
                <path d="M210.76575,167.043635 L178.30125,167.043635 C176.21175,167.043635 174.51825,165.005867 174.51825,162.491542 L174.51825,75.39818 C174.51825,72.8839302 176.21175,70.8457108 178.30125,70.8457108 L210.76575,70.8457108 C212.8545,70.8457108 214.548,72.8839302 214.548,75.39818 L214.548,162.491542 C214.548,165.005867 212.8545,167.043635 210.76575,167.043635 Z" id="Path" fill="#FFFFFF" fill-rule="nonzero"></path>
                <path d="M198.996,164.029452 L190.071,164.029452 C189.7725,164.029452 189.53025,163.737805 189.53025,163.377757 C189.53025,163.017708 189.7725,162.726062 190.071,162.726062 L198.996,162.726062 C199.29525,162.726062 199.5375,163.017708 199.5375,163.377757 C199.5375,163.737805 199.29525,164.029452 198.996,164.029452 Z" id="Path" fill="#E6E6E6" fill-rule="nonzero"></path>
                <path d="M204.87375,77.989175 L184.1925,77.989175 C182.7825,77.989175 181.63875,76.6128733 181.63875,74.9155348 L181.63875,70.8457108 L207.4275,70.8457108 L207.4275,74.9155348 C207.4275,76.6128733 206.2845,77.989175 204.87375,77.989175 Z" id="Path" fill="#F2F2F2" fill-rule="nonzero"></path>
                <path d="M200.57325,74.8677288 C200.91975,74.8677288 201.201,74.529554 201.201,74.1123038 C201.201,73.6950537 200.91975,73.3568788 200.57325,73.3568788 C200.22675,73.3568788 199.9455,73.6950537 199.9455,74.1123038 C199.9455,74.529554 200.22675,74.8677288 200.57325,74.8677288 Z" id="Path" fill="#185BFF" fill-rule="nonzero"></path>
                <path d="M204.23925,74.8677288 C204.5865,74.8677288 204.867,74.529554 204.867,74.1123038 C204.867,73.6950537 204.5865,73.3568788 204.23925,73.3568788 C203.89275,73.3568788 203.6115,73.6950537 203.6115,74.1123038 C203.6115,74.529554 203.89275,74.8677288 204.23925,74.8677288 Z" id="Path" fill="#185BFF" fill-rule="nonzero"></path>
                <rect id="Rectangle" fill="#4E2EFF" fill-rule="nonzero" x="189.98625" y="82.2451117" width="22.626675" height="12.7073008" rx="5.5292625"></rect>
                <rect id="Rectangle" fill="#4E2EFF" fill-rule="nonzero" x="189.98625" y="109.265273" width="22.626675" height="12.7073008" rx="5.5292625"></rect>
                <rect id="Rectangle" fill="#3119BF" fill-rule="nonzero" x="176.91" y="98.6299417" width="22.626675" height="6.95826853" rx="3.47142"></rect>
                <rect id="Rectangle" fill="#3119BF" fill-rule="nonzero" x="176.91" y="125.650855" width="22.626675" height="12.7073008" rx="5.5292625"></rect>
                <rect id="Rectangle" fill="#4E2EFF" fill-rule="nonzero" x="189.98625" y="143.393947" width="22.626675" height="6.95826853" rx="3.47142"></rect>
                <ellipse id="Oval" fill="#FFF170" fill-rule="nonzero" cx="95.3595" cy="62.0701528" rx="11.2617" ry="11.286726"></ellipse>
                <polygon id="Path" fill="#E7C74F" fill-rule="nonzero" points="352.122 310.16623 366.64875 312.836902 362.44275 314.08993 366.64875 314.386838 353.45475 318.581138 356.3865 315.642122 342.92625 314.440207 355.45425 312.836902"></polygon>
                <path d="M256.701,289.442028 C261.903,286.834497 287.47425,294.015168 296.1765,299.384323 L285.54675,307.385063 C283.1685,304.331793 265.3095,294.158737 256.701,289.442028 Z" id="Path" fill="#E7C74F" fill-rule="nonzero"></path>
                <path d="M234.1875,385.574182 C221.22225,385.793668 202.8045,383.901723 195.21675,382.927563 L266.694,382.927563 C261.261,383.719068 247.1535,385.355447 234.1875,385.574182 Z" id="Path" fill="#3119BF" fill-rule="nonzero"></path>
                <path d="M383.80725,385.574182 C370.122,385.793668 350.68275,383.901723 342.67425,382.927563 L418.116,382.927563 C412.3815,383.719068 397.49175,385.355447 383.80725,385.574182 Z" id="Path" fill="#3119BF" fill-rule="nonzero"></path>
                <path d="M228.00825,86.4461767 L231.69,82.7081383 C234.90525,79.4428983 240.159,79.42561 243.39525,82.6698033 L244.93125,84.208465 C248.1525,87.437625 253.37625,87.437625 256.59825,84.208465 L258.17175,82.6314683 C261.39375,79.4023083 266.6175,79.4023083 269.8395,82.6314683 L271.413,84.208465 C274.635,87.437625 279.85875,87.437625 283.08,84.208465 L283.41975,83.86796 C283.7175,83.5695483 283.992,83.2485867 284.241,82.9088333 L285.7635,80.8267167" id="Path" stroke="#1D06A0" stroke-width="0.75" stroke-linecap="round"></path>
            </g>
        </g>
    </g>
</svg>