<?xml version="1.0" encoding="UTF-8"?>
<svg width="32px" height="29px" viewBox="0 0 32 29" version="1.1" xmlns="http://www.w3.org/2000/svg" xmlns:xlink="http://www.w3.org/1999/xlink">
    <!-- Generator: Sketch 57.1 (83088) - https://sketch.com -->
    <title>Logo-Sketch</title>
    <desc>Created with Sketch.</desc>
    <g id="Page-1" stroke="none" stroke-width="1" fill="none" fill-rule="evenodd">
        <g id="Landing-Page" transform="translate(-189.000000, -763.000000)">
            <g id="Hero" transform="translate(-294.000000, -380.012887)">
                <g id="Logos" transform="translate(483.000000, 1142.012887)">
                    <g id="Logo-Sketch" transform="translate(0.000000, 1.000000)">
                        <polygon id="Path" fill="#FFAE00" points="15.999936 28.160064 0 10.079744 6.931136 0.9450752 15.999936 0.00011230464 25.068736 0.9450752 31.999936 10.079744"></polygon>
                        <polygon id="Path" fill="#EC6C00" points="16.000064 28.159936 7.81248e-05 10.079616 32 10.079616"></polygon>
                        <polygon id="Path" fill="#FFAE00" points="16 28.159936 6.47776 10.079616 25.52224 10.079616"></polygon>
                        <polygon id="Path" fill="#FFEFB4" points="16 -2.0141632e-05 6.47776 10.079616 25.52224 10.079616"></polygon>
                        <polygon id="Path" fill="#FFAE00" points="6.931072 0.9449472 3.368352 5.543776 -6.286624e-05 10.079616 6.5424 10.079616"></polygon>
                        <polygon id="Path" fill="#FFAE00" points="25.068992 0.9449472 28.631744 5.543776 32.000128 10.079616 25.457664 10.079616"></polygon>
                        <polygon id="Path" fill="#FED305" points="6.9312 0.9449472 6.47776 10.079616 16 -2.0141632e-05"></polygon>
                        <polygon id="Path" fill="#FED305" points="25.068864 0.9449472 25.522304 10.079616 16.000064 -2.0141632e-05"></polygon>
                    </g>
                </g>
            </g>
        </g>
    </g>
</svg>