<?xml version="1.0" encoding="UTF-8"?>
<svg width="32px" height="32px" viewBox="0 0 32 32" version="1.1" xmlns="http://www.w3.org/2000/svg" xmlns:xlink="http://www.w3.org/1999/xlink">
    <!-- Generator: Sketch 57.1 (83088) - https://sketch.com -->
    <title>Logo-Angle</title>
    <desc>Created with Sketch.</desc>
    <g id="Page-1" stroke="none" stroke-width="1" fill="none" fill-rule="evenodd">
        <g id="Landing-Page" transform="translate(-704.000000, -57.000000)" fill-rule="nonzero">
            <g id="Hero" transform="translate(-294.000000, -380.012887)">
                <g id="Logo" transform="translate(981.000000, 420.012887)">
                    <g id="Logo-Angle" transform="translate(17.000000, 17.000000)">
                        <polygon id="Path" fill="#3C10EE" points="22.1239814 23.2186047 29.3209302 23.2186047 19.6206884 6.25116279 16.0744186 12.1845581 18.8007442 17.1502884"></polygon>
                        <path d="M3.20372093,31.1944186 L0.425786791,26.3720186 C0.162050977,25.9141953 0.160813395,25.3508465 0.422534698,24.8918326 L7.7323907,12.0722605 L13.9550512,0.85856 C14.5221209,-0.163378605 15.9918884,-0.162932093 16.5583628,0.859348837 L19.2262698,5.67403907 C19.4859907,6.14273488 19.4737116,6.71493953 19.1941209,7.17209302 L16.9361116,10.8635535 L5.79834791,31.1673302 C5.24001488,32.1851535 3.78319628,32.2004093 3.20372093,31.1944186 Z" id="Path" fill="#FFFFFF"></path>
                        <path d="M23.7097674,23.2186047 L29.2900465,23.2186047 L31.4867349,27.099386 C32.0482977,28.0916093 31.3315721,29.3209302 30.1914047,29.3209302 L14.4258977,29.3209302 C13.2933953,29.3209302 12.5758512,28.106493 13.1221581,27.1145674 L14.8435349,23.988986 C15.1052651,23.5137488 15.6047628,23.2186047 16.1472744,23.2186047 L23.7097674,23.2186047 Z" id="Path" fill="#2CA4FE"></path>
                    </g>
                </g>
            </g>
        </g>
    </g>
</svg>