<?xml version="1.0" encoding="UTF-8"?>
<svg width="42px" height="42px" viewBox="0 0 42 42" version="1.1" xmlns="http://www.w3.org/2000/svg" xmlns:xlink="http://www.w3.org/1999/xlink">
    <!-- Generator: Sketch 57.1 (83088) - https://sketch.com -->
    <title>Icon-Plugin</title>
    <desc>Created with Sketch.</desc>
    <defs>
        <linearGradient x1="-0.602409639%" y1="-0.602409639%" x2="-0.602409639%" y2="100.60241%" id="linearGradient-1">
            <stop stop-color="#C8C8C8" offset="0%"></stop>
            <stop stop-color="#979797" offset="100%"></stop>
        </linearGradient>
    </defs>
    <g id="Page-1" stroke="none" stroke-width="1" fill="none" fill-rule="evenodd">
        <g id="Landing-Page" transform="translate(-699.000000, -1042.000000)">
            <g id="Plugin" transform="translate(350.000000, 1030.000000)">
                <g id="Icon" transform="translate(337.000000, 0.000000)">
                    <g id="Icon-Plugin" transform="translate(12.000000, 12.000000)">
                        <path d="M0.25,9 C0.25,4.16751 4.16751,0.25 9,0.25 L33,0.25 C37.8325,0.25 41.75,4.16751 41.75,9 L41.75,33 C41.75,37.8325 37.8325,41.75 33,41.75 L9,41.75 C4.16751,41.75 0.25,37.8325 0.25,33 L0.25,9 Z" id="Path" stroke="url(#linearGradient-1)" stroke-width="0.5" fill="#FBFBFB" fill-rule="nonzero"></path>
                        <path d="M21,36.5 C29.2843,36.5 36,29.7843 36,21.5 C36,13.2157 29.2843,6.5 21,6.5 C12.7157,6.5 6,13.2157 6,21.5 C6,29.7843 12.7157,36.5 21,36.5 Z" id="Path" fill="#F0F0F0"></path>
                        <path d="M35.75,21.5 C35.75,29.6462 29.1462,36.25 21,36.25 C12.8538,36.25 6.25,29.6462 6.25,21.5 C6.25,13.3538 12.8538,6.75 21,6.75 C29.1462,6.75 35.75,13.3538 35.75,21.5 Z" id="Path" stroke="#979797" stroke-width="0.5"></path>
                        <path d="M25.5,17.5 C25.5,16.6716 26.1716,16 27,16 C27.8284,16 28.5,16.6716 28.5,17.5 L28.5,20.5 C28.5,21.3284 27.8284,22 27,22 C26.1716,22 25.5,21.3284 25.5,20.5 L25.5,17.5 Z" id="Path" fill="#6A6A6A"></path>
                        <path d="M19.5,25.5 C19.5,24.6716 20.1716,24 21,24 C21.8284,24 22.5,24.6716 22.5,25.5 L22.5,30 L19.5,30 L19.5,25.5 Z" id="Path" fill="#6A6A6A"></path>
                        <path d="M13.5,17.5 C13.5,16.6716 14.1716,16 15,16 C15.8284,16 16.5,16.6716 16.5,17.5 L16.5,20.5 C16.5,21.3284 15.8284,22 15,22 C14.1716,22 13.5,21.3284 13.5,20.5 L13.5,17.5 Z" id="Path" fill="#6A6A6A"></path>
                    </g>
                </g>
            </g>
        </g>
    </g>
</svg>