<?xml version="1.0" encoding="UTF-8"?>
<svg width="50px" height="30px" viewBox="0 0 50 30" version="1.1" xmlns="http://www.w3.org/2000/svg" xmlns:xlink="http://www.w3.org/1999/xlink">
    <!-- Generator: Sketch 57.1 (83088) - https://sketch.com -->
    <title>Logo-Devices</title>
    <desc>Created with Sketch.</desc>
    <g id="Page-1" stroke="none" stroke-width="1" fill="none" fill-rule="evenodd">
        <g id="Landing-Page" transform="translate(-695.000000, -3518.000000)">
            <g id="All-Mockups" transform="translate(-314.000000, 3501.000000)">
                <g id="Logo" transform="translate(1001.000000, 0.000000)">
                    <g id="Logo-Devices" transform="translate(8.000000, 17.000000)">
                        <g id="Group-2" transform="translate(0.000000, 2.000000)">
                            <path d="M4.63715725,1.41512295 C4.63715725,0.633401639 5.27100971,-5.68434189e-14 6.05228021,-5.68434189e-14 L37.8242474,-5.68434189e-14 C38.6059687,-5.68434189e-14 39.2398212,0.633401639 39.2398212,1.41512295 L39.2398212,24.8361066 L4.63715725,24.8361066 L4.63715725,1.41512295 Z" id="Path" fill="#0035B7" fill-rule="nonzero"></path>
                            <polygon id="Path" fill="#5AE8AD" fill-rule="nonzero" points="5.75609168 1.94438525 38.1208868 1.94438525 38.1208868 24.8361066 5.75609168 24.8361066"></polygon>
                            <polygon id="Path" fill="#2061FF" fill-rule="nonzero" points="5.75609168 23.8037295 38.1208868 23.8037295 38.1208868 24.8361066 5.75609168 24.8361066"></polygon>
                            <polygon id="Path" fill="#0035B7" fill-rule="nonzero" points="19.9537556 23.8032787 17.1158458 17.1004918 15.6709687 13.6873361 13.5611327 19.6453689 5.80297693 3.69536885 5.80297693 23.8032787"></polygon>
                            <polygon id="Path" fill="#0035B7" points="38.1380179 14.2459016 33.4833048 7.79151639 27.3616245 13.924918 28.7663786 17.2871311 25.5700671 23.8032787 38.1380179 23.8032787"></polygon>
                            <polygon id="Path" fill="#0035B7" fill-rule="nonzero" points="24.980395 8.22610656 22.5649032 15.7110656 19.9537556 23.8032787 25.5700671 23.8032787 27.3616245 13.924918"></polygon>
                            <polygon id="Path" fill="#0035B7" fill-rule="nonzero" points="25.5700671 23.8032787 28.7663786 17.2871311 27.3616245 13.924918"></polygon>
                            <polygon id="Path" fill="#0035B7" fill-rule="nonzero" points="19.9537556 23.8032787 22.5649032 15.7110656 21.8774032 14.2459016 19.9537556 18.2180738 18.0914195 15.5492213 17.1158458 17.1004918"></polygon>
                            <polygon id="Path" fill="#46BE8C" fill-rule="nonzero" points="5.75609168 1.94438525 38.1208868 1.94438525 38.1208868 3.55831967 5.75609168 3.55831967"></polygon>
                            <rect id="Rectangle" fill-opacity="0.9" fill="#7099FF" fill-rule="nonzero" x="7.63916545" y="20.5713525" width="28.5992787" height="2.5554668" rx="0.943610656"></rect>
                            <path d="M0.29756709,25.7463115 C-0.185260779,25.5538115 -0.0473099589,24.8365574 0.472485123,24.8365574 L43.3066655,24.8365574 C43.8300671,24.8365574 43.9639605,25.5619262 43.475272,25.7490164 L39.0401081,27.445 C38.9864605,27.4652869 38.9292064,27.4761066 38.8715015,27.4761066 L4.72506709,27.4761066 C4.66510807,27.4761066 4.6060507,27.4643852 4.55059988,27.4422951 L0.29756709,25.7463115 Z" id="Path" fill="#0035B7" fill-rule="nonzero"></path>
                            <rect id="Rectangle" fill="#5AE8AD" fill-rule="nonzero" x="18.3073622" y="24.8365574" width="7.26252459" height="1"></rect>
                            <circle id="Oval" fill-opacity="0.2" fill="#0035B7" fill-rule="nonzero" cx="10.7484687" cy="21.8489754" r="1"></circle>
                            <circle id="Oval" fill-opacity="0.2" fill="#0035B7" fill-rule="nonzero" cx="13.23519" cy="21.8489754" r="1"></circle>
                            <circle id="Oval" fill-opacity="0.2" fill="#0035B7" fill-rule="nonzero" cx="15.7214605" cy="21.8489754" r="1"></circle>
                            <circle id="Oval" fill-opacity="0.2" fill="#0035B7" fill-rule="nonzero" cx="18.2086327" cy="21.8489754" r="1"></circle>
                            <circle id="Oval" fill-opacity="0.2" fill="#0035B7" fill-rule="nonzero" cx="20.6949032" cy="21.8489754" r="1"></circle>
                            <circle id="Oval" fill-opacity="0.2" fill="#0035B7" fill-rule="nonzero" cx="23.1816245" cy="21.8489754" r="1"></circle>
                            <circle id="Oval" fill-opacity="0.2" fill="#0035B7" fill-rule="nonzero" cx="25.6683458" cy="21.8489754" r="1"></circle>
                            <circle id="Oval" fill-opacity="0.2" fill="#0035B7" fill-rule="nonzero" cx="28.1550671" cy="21.8489754" r="1"></circle>
                            <circle id="Oval" fill-opacity="0.2" fill="#0035B7" fill-rule="nonzero" cx="30.6417884" cy="21.8489754" r="1"></circle>
                            <circle id="Oval" fill-opacity="0.2" fill="#0035B7" fill-rule="nonzero" cx="33.1285097" cy="21.8489754" r="1"></circle>
                            <circle id="Oval" fill="#0035B7" fill-rule="nonzero" cx="12.3371573" cy="6.75327869" r="2.65500779"></circle>
                        </g>
                        <g id="Group-7" transform="translate(25.000000, 0.000000)">
                            <rect id="Rectangle" fill="#5AE8AD" fill-rule="nonzero" transform="translate(7.369122, 14.946985) rotate(90.000000) translate(-7.369122, -14.946985) " x="-7.55725191" y="7.78283588" width="29.8527481" height="14.3282977" rx="2.82215267"></rect>
                            <rect id="Rectangle" stroke="#0035B7" stroke-width="0.5" transform="translate(7.369111, 14.946985) rotate(90.000000) translate(-7.369111, -14.946985) " x="-7.06100382" y="8.34572519" width="28.860229" height="13.2025191" rx="2.76336641"></rect>
                            <circle id="Oval" fill="#46BE8C" fill-rule="nonzero" cx="7.36922519" cy="26.7471756" r="1.05081985"></circle>
                        </g>
                        <g id="Group-4" transform="translate(34.000000, 0.000000)" fill-rule="nonzero">
                            <path d="M2.45675676,29.9697297 C1.10216216,29.9697297 -4.26325641e-14,28.7713514 -4.26325641e-14,27.2986486 L-4.26325641e-14,2.67108108 C-4.26325641e-14,1.19810811 1.10216216,-4.26325641e-14 2.45675676,-4.26325641e-14 L12.6875676,-4.26325641e-14 C14.0421622,-4.26325641e-14 15.1440541,1.19810811 15.1440541,2.67108108 L15.1440541,27.2986486 C15.1440541,28.7713514 14.0421622,29.9697297 12.6875676,29.9697297 L2.45675676,29.9697297 Z" id="Path" fill="#00257E"></path>
                            <path d="M12.6875676,29.2654054 L2.45675676,29.2654054 C1.47675676,29.2654054 0.682162162,28.4013514 0.682162162,27.3359459 L0.682162162,2.70810811 C0.682162162,1.6427027 1.47675676,0.778918919 2.45675676,0.778918919 L12.6875676,0.778918919 C13.6675676,0.778918919 14.4618919,1.6427027 14.4618919,2.70810811 L14.4618919,27.3359459 C14.4618919,28.4013514 13.6675676,29.2654054 12.6875676,29.2654054 Z" id="Path" fill="#E6E6E6"></path>
                            <path d="M12.8927027,29.2654054 L2.25162162,29.2654054 C1.56702703,29.2654054 1.01189189,28.6616216 1.01189189,27.917027 L1.01189189,2.12702703 C1.01189189,1.38243243 1.56702703,0.778918919 2.25162162,0.778918919 L12.8927027,0.778918919 C13.5772973,0.778918919 14.1324324,1.38243243 14.1324324,2.12702703 L14.1324324,27.917027 C14.1324324,28.6616216 13.5772973,29.2654054 12.8927027,29.2654054 Z" id="Path" fill="#FFFFFF"></path>
                            <path d="M9.03486486,28.3727027 L6.10945946,28.3727027 C6.01162162,28.3727027 5.93216216,28.2862162 5.93216216,28.1797297 C5.93216216,28.0732432 6.01162162,27.9867568 6.10945946,27.9867568 L9.03486486,27.9867568 C9.1327027,27.9867568 9.21216216,28.0732432 9.21216216,28.1797297 C9.21216216,28.2862162 9.1327027,28.3727027 9.03486486,28.3727027 Z" id="Path" fill="#E6E6E6"></path>
                            <path d="M10.9613514,2.62405405 L4.1827027,2.62405405 C3.72027027,2.62405405 3.34540541,2.21648649 3.34540541,1.71378378 L3.34540541,0.508648649 L11.7983784,0.508648649 L11.7983784,1.71378378 C11.7983784,2.21648649 11.4237838,2.62405405 10.9613514,2.62405405 Z" id="Path" fill="#00257E"></path>
                            <path d="M9.55189189,1.97 C9.66540541,1.97 9.75756757,1.86972973 9.75756757,1.74621622 C9.75756757,1.6227027 9.66540541,1.52243243 9.55189189,1.52243243 C9.43810811,1.52243243 9.34621622,1.6227027 9.34621622,1.74621622 C9.34621622,1.86972973 9.43810811,1.97 9.55189189,1.97 Z" id="Path" fill="#FFF170"></path>
                            <path d="M10.7535135,1.97 C10.867027,1.97 10.9591892,1.86972973 10.9591892,1.74621622 C10.9591892,1.6227027 10.867027,1.52243243 10.7535135,1.52243243 C10.6397297,1.52243243 10.5475676,1.6227027 10.5475676,1.74621622 C10.5475676,1.86972973 10.6397297,1.97 10.7535135,1.97 Z" id="Path" fill="#FFF170"></path>
                            <rect id="Rectangle" fill="#B9DEFC" x="6.08162162" y="4.15486486" width="7.41643243" height="3.76291892" rx="1.64097568"></rect>
                            <rect id="Rectangle" fill="#B9DEFC" x="6.08162162" y="12.1559459" width="7.41643243" height="3.76291892" rx="1.64097568"></rect>
                            <rect id="Rectangle" fill="#6EC5E9" x="1.79567568" y="9.00648649" width="7.41643243" height="2.0604973" rx="1.03024865"></rect>
                            <rect id="Rectangle" fill="#6EC5E9" x="1.79567568" y="17.0078378" width="7.41643243" height="3.76291892" rx="1.64097568"></rect>
                            <rect id="Rectangle" fill="#B9DEFC" x="6.08162162" y="22.2621622" width="7.41643243" height="2.0604973" rx="1.03024865"></rect>
                        </g>
                    </g>
                </g>
            </g>
        </g>
    </g>
</svg>