<?xml version="1.0" encoding="UTF-8"?>
<svg width="32px" height="32px" viewBox="0 0 32 32" version="1.1" xmlns="http://www.w3.org/2000/svg" xmlns:xlink="http://www.w3.org/1999/xlink">
    <!-- Generator: Sketch 57.1 (83088) - https://sketch.com -->
    <title>Logo-XD</title>
    <desc>Created with Sketch.</desc>
    <g id="Page-1" stroke="none" stroke-width="1" fill="none" fill-rule="evenodd">
        <g id="Landing-Page" transform="translate(-270.000000, -762.000000)" fill-rule="nonzero">
            <g id="Hero" transform="translate(-294.000000, -380.012887)">
                <g id="Logos" transform="translate(483.000000, 1142.012887)">
                    <g id="Logo-XD" transform="translate(81.000000, 0.000000)">
                        <path d="M26.333312,31.36 L5.6666688,31.36 C2.5333312,31.36 0,28.813696 0,25.664256 L0,5.6957248 C0,2.5463232 2.5333312,0 5.6666688,0 L26.333312,0 C29.466688,0 32,2.5463232 32,5.6957248 L32,25.664256 C32,28.813696 29.466688,31.36 26.333312,31.36 Z" id="Path" fill="#FF26BE"></path>
                        <path d="M25.826688,30.019904 L6.1733568,30.019904 C3.5066944,30.019904 1.3333568,27.835392 1.3333568,25.155072 L1.3333568,6.205056 C1.3333568,3.5247104 3.5066944,1.3402368 6.1733568,1.3402368 L25.813376,1.3402368 C28.493376,1.3402368 30.6534368,3.5247104 30.6534368,6.205056 L30.6534368,25.141696 C30.666688,27.835392 28.493376,30.019904 25.826688,30.019904 Z" id="Path" fill="#2E001F"></path>
                        <path d="M12.653376,14.674816 L16.386688,21.884992 C16.453376,21.992192 16.413376,22.099392 16.306688,22.099392 L13.986688,22.099392 C13.840064,22.099392 13.773376,22.0592 13.706688,21.925184 C12.853376,20.15616 11.986688,18.387136 11.093376,16.484096 L11.066688,16.484096 C10.266688,18.279936 9.386688,20.169536 8.533376,21.93856 C8.466688,22.04576 8.400064,22.086016 8.293376,22.086016 L6.0933696,22.086016 C5.960032,22.086016 5.9467008,21.978752 6.0133696,21.898368 L9.666688,14.902656 L6.1333696,7.82656 C6.0533696,7.71936 6.1333696,7.638976 6.2133696,7.638976 L8.506688,7.638976 C8.640064,7.638976 8.693376,7.665728 8.746688,7.786368 C9.586688,9.555392 10.440064,11.378048 11.240064,13.160448 L11.266688,13.160448 C12.040064,11.391424 12.893376,9.555392 13.720064,7.799744 C13.786688,7.692544 13.826688,7.625536 13.960064,7.625536 L16.106688,7.625536 C16.213376,7.625536 16.253376,7.705984 16.186688,7.813184 L12.653376,14.674816 Z M17.040064,16.859328 C17.040064,13.736704 19.106688,11.2976 22.386688,11.2976 C22.666688,11.2976 22.813376,11.2976 23.080064,11.324416 L23.080064,7.772992 C23.080064,7.692544 23.146688,7.638976 23.213376,7.638976 L25.320064,7.638976 C25.426688,7.638976 25.453376,7.679168 25.453376,7.746176 L25.453376,20.04896 C25.453376,20.410752 25.453376,20.866432 25.520064,21.362304 C25.520064,21.442688 25.493376,21.469504 25.413376,21.509696 C24.293376,22.04576 23.120064,22.2871142 22.000064,22.2871142 C19.106688,22.300416 17.040064,20.504576 17.040064,16.859328 Z M23.080064,13.42848 C22.893376,13.348096 22.626688,13.294464 22.306688,13.294464 C20.626688,13.294464 19.453376,14.594432 19.453376,16.752128 C19.453376,19.218048 20.653376,20.209728 22.160064,20.209728 C22.480064,20.209728 22.826688,20.169536 23.080064,20.062336 L23.080064,13.42848 Z" id="Shape" fill="#FFD9F2"></path>
                    </g>
                </g>
            </g>
        </g>
    </g>
</svg>