<?xml version="1.0" encoding="UTF-8"?>
<svg width="44px" height="39px" viewBox="0 0 44 39" version="1.1" xmlns="http://www.w3.org/2000/svg" xmlns:xlink="http://www.w3.org/1999/xlink">
    <!-- Generator: Sketch 57.1 (83088) - https://sketch.com -->
    <title>Logo-Compositions</title>
    <desc>Created with Sketch.</desc>
    <g id="Page-1" stroke="none" stroke-width="1" fill="none" fill-rule="evenodd">
        <g id="Landing-Page" transform="translate(-698.000000, -2290.000000)" fill-rule="nonzero">
            <g id="Compositions" transform="translate(-330.000000, 1708.000000)">
                <g id="Icon" transform="translate(1017.000000, 568.000000)">
                    <g id="Logo-Compositions" transform="translate(11.000000, 14.000000)">
                        <rect id="Rectangle" fill="#B9DEFC" x="2.84217094e-14" y="9.9475983e-14" width="43.8903667" height="38.5583" rx="4.89954667"></rect>
                        <rect id="Rectangle" fill="#6EC5E9" x="-1.42108547e-14" y="26.225045" width="43.88395" height="3.71383833"></rect>
                        <polygon id="Path" fill="#6EC5E9" points="0.113153333 13.1819783 0.113153333 26.2719783 20.9457967 26.2719783"></polygon>
                        <polygon id="Path" fill="#6EC5E9" points="21.48938 2.58446833 10.6551133 26.2719783 31.48783 26.2719783"></polygon>
                        <polygon id="Path" fill="#7BCFF1" points="10.6200967 8.20013333 2.97326333 26.2719783 23.80598 26.2719783"></polygon>
                        <polygon id="Path" fill="#7BCFF1" points="31.9056467 2.58446833 21.07138 26.2719783 41.9040967 26.2719783"></polygon>
                        <polygon id="Path" fill="#7BCFF1" points="43.8839133 9.83046167 23.05138 26.2719783 43.8839133 26.2719783"></polygon>
                        <ellipse id="Oval" fill-opacity="0.3" fill="#002B6C" cx="21.9451467" cy="34.072445" rx="14.8486983" ry="1"></ellipse>
                        <path d="M10.3467467,31.413195 C9.33658,31.413195 8.51488,30.5913117 8.51488,29.581145 L8.51488,12.689545 C8.51488,11.6793783 9.33658,10.857495 10.3467467,10.857495 L17.9767133,10.857495 C18.98688,10.857495 19.8087633,11.6793783 19.8087633,12.689545 L19.8087633,29.581145 C19.8087633,30.5913117 18.98688,31.413195 17.9767133,31.413195 L10.3467467,31.413195 Z" id="Path" fill="#F2F2F2"></path>
                        <path d="M17.9767133,30.9301117 L10.34693,30.9301117 C9.61598,30.9301117 9.02344667,30.3375783 9.02344667,29.6068117 L9.02344667,12.7152117 C9.02344667,11.9842617 9.61598,11.3917283 10.34693,11.3917283 L17.9767133,11.3917283 C18.70748,11.3917283 19.3000133,11.9842617 19.3000133,12.7152117 L19.3000133,29.6068117 C19.3000133,30.3375783 18.70748,30.9301117 17.9767133,30.9301117 Z" id="Path" fill="#E6E6E6"></path>
                        <path d="M18.1296133,30.9301117 L10.1938467,30.9301117 C9.68326333,30.9301117 9.26929667,30.516145 9.26929667,30.0053783 L9.26929667,12.3164617 C9.26929667,11.8058783 9.68326333,11.3917283 10.1938467,11.3917283 L18.1296133,11.3917283 C18.6401967,11.3917283 19.0543467,11.8058783 19.0543467,12.3164617 L19.0543467,30.0053783 C19.0543467,30.516145 18.6401967,30.9301117 18.1296133,30.9301117 Z" id="Path" fill="#FFFFFF"></path>
                        <path d="M15.2525633,30.3177783 L13.0708967,30.3177783 C12.99793,30.3177783 12.93853,30.2585617 12.93853,30.1854117 C12.93853,30.112445 12.99793,30.0532283 13.0708967,30.0532283 L15.2525633,30.0532283 C15.32553,30.0532283 15.38493,30.112445 15.38493,30.1854117 C15.38493,30.2585617 15.32553,30.3177783 15.2525633,30.3177783 Z" id="Path" fill="#E6E6E6"></path>
                        <path d="M16.6893467,12.8426283 L11.6341133,12.8426283 C11.2892633,12.8426283 11.00968,12.5632283 11.00968,12.2183783 L11.00968,11.3917283 L17.31378,11.3917283 L17.31378,12.2183783 C17.31378,12.5632283 17.0341967,12.8426283 16.6893467,12.8426283 Z" id="Path" fill="#F2F2F2"></path>
                        <path d="M15.6381133,12.2086617 C15.7229967,12.2086617 15.7915633,12.1399117 15.7915633,12.0552117 C15.7915633,11.9705117 15.7229967,11.9017617 15.6381133,11.9017617 C15.5534133,11.9017617 15.4848467,11.9705117 15.4848467,12.0552117 C15.4848467,12.1399117 15.5534133,12.2086617 15.6381133,12.2086617 Z" id="Path" fill="#185BFF"></path>
                        <path d="M16.53443,12.2086617 C16.61913,12.2086617 16.68788,12.1399117 16.68788,12.0552117 C16.68788,11.9705117 16.61913,11.9017617 16.53443,11.9017617 C16.4495467,11.9017617 16.38098,11.9705117 16.38098,12.0552117 C16.38098,12.1399117 16.4495467,12.2086617 16.53443,12.2086617 Z" id="Path" fill="#185BFF"></path>
                        <path d="M17.7695467,14.3408283 L10.5540967,14.3408283 C10.27378,14.3408283 10.0464467,14.113495 10.0464467,13.8331783 L10.0464467,13.7574617 C10.0464467,13.4769617 10.27378,13.2498117 10.5540967,13.2498117 L17.7695467,13.2498117 C18.0498633,13.2498117 18.2771967,13.4769617 18.2771967,13.7574617 L18.2771967,13.8331783 C18.2771967,14.113495 18.0498633,14.3408283 17.7695467,14.3408283 Z" id="Path" fill="#B9DEFC"></path>
                        <polygon id="Path" fill="#7BCFF1" points="11.6462133 27.9447117 10.3516967 27.9447117 10.3516967 29.2392283 11.6462133 29.2392283"></polygon>
                        <polygon id="Path" fill="#7BCFF1" points="13.75473 27.9447117 12.4602133 27.9447117 12.4602133 29.2392283 13.75473 29.2392283"></polygon>
                        <polygon id="Path" fill="#7BCFF1" points="15.8632467 27.9447117 14.56873 27.9447117 14.56873 29.2392283 15.8632467 29.2392283"></polygon>
                        <polygon id="Path" fill="#7BCFF1" points="17.9717633 27.9447117 16.6772467 27.9447117 16.6772467 29.2392283 17.9717633 29.2392283"></polygon>
                        <path d="M10.9361633,21.675445 L10.4512467,21.675445 C10.22758,21.675445 10.0464467,21.4941283 10.0464467,21.2704617 L10.0464467,20.785545 C10.0464467,20.5620617 10.22758,20.380745 10.4512467,20.380745 L10.9361633,20.380745 C11.1596467,20.380745 11.3409633,20.5620617 11.3409633,20.785545 L11.3409633,21.2704617 C11.3409633,21.4941283 11.1596467,21.675445 10.9361633,21.675445 Z" id="Path" fill="#7BCFF1"></path>
                        <path d="M17.8722133,21.675445 L17.3872967,21.675445 C17.16363,21.675445 16.9824967,21.4941283 16.9824967,21.2704617 L16.9824967,20.785545 C16.9824967,20.5620617 17.16363,20.380745 17.3872967,20.380745 L17.8722133,20.380745 C18.0956967,20.380745 18.2770133,20.5620617 18.2770133,20.785545 L18.2770133,21.2704617 C18.2770133,21.4941283 18.0956967,21.675445 17.8722133,21.675445 Z" id="Path" fill="#B9DEFC"></path>
                        <path d="M16.1705133,21.675445 L15.6855967,21.675445 C15.4621133,21.675445 15.2807967,21.4941283 15.2807967,21.2704617 L15.2807967,20.785545 C15.2807967,20.5620617 15.4621133,20.380745 15.6855967,20.380745 L16.1705133,20.380745 C16.39418,20.380745 16.5754967,20.5620617 16.5754967,20.785545 L16.5754967,21.2704617 C16.5754967,21.4941283 16.39418,21.675445 16.1705133,21.675445 Z" id="Path" fill="#B9DEFC"></path>
                        <path d="M10.9361633,27.409195 L10.4512467,27.409195 C10.22758,27.409195 10.0464467,27.2280617 10.0464467,27.004395 L10.0464467,26.5194783 C10.0464467,26.295995 10.22758,26.1146783 10.4512467,26.1146783 L10.9361633,26.1146783 C11.1596467,26.1146783 11.3409633,26.295995 11.3409633,26.5194783 L11.3409633,27.004395 C11.3409633,27.2280617 11.1596467,27.409195 10.9361633,27.409195 Z" id="Path" fill="#7BCFF1"></path>
                        <path d="M17.8722133,27.409195 L17.3872967,27.409195 C17.16363,27.409195 16.9824967,27.2278783 16.9824967,27.004395 L16.9824967,26.5194783 C16.9824967,26.2958117 17.16363,26.1146783 17.3872967,26.1146783 L17.8722133,26.1146783 C18.0956967,26.1146783 18.2770133,26.2958117 18.2770133,26.5194783 L18.2770133,27.004395 C18.2770133,27.2278783 18.0956967,27.409195 17.8722133,27.409195 Z" id="Path" fill="#B9DEFC"></path>
                        <path d="M16.1705133,27.409195 L15.6855967,27.409195 C15.4621133,27.409195 15.2807967,27.2278783 15.2807967,27.004395 L15.2807967,26.5194783 C15.2807967,26.2958117 15.4621133,26.1146783 15.6855967,26.1146783 L16.1705133,26.1146783 C16.39418,26.1146783 16.5754967,26.2958117 16.5754967,26.5194783 L16.5754967,27.004395 C16.5754967,27.2278783 16.39418,27.409195 16.1705133,27.409195 Z" id="Path" fill="#B9DEFC"></path>
                        <path d="M18.2770133,25.5791617 L10.0464467,25.5791617 L10.0464467,22.7717783 C10.0464467,22.4626783 10.29688,22.2120617 10.60598,22.2120617 L17.71748,22.2120617 C18.0263967,22.2120617 18.2770133,22.4626783 18.2770133,22.7717783 L18.2770133,25.5791617 Z" id="Path" fill="#B9DEFC"></path>
                        <path d="M17.71748,19.973745 L10.60598,19.973745 C10.2970633,19.973745 10.0464467,19.7231283 10.0464467,19.4140283 L10.0464467,15.7143617 C10.0464467,15.4052617 10.2970633,15.1548283 10.60598,15.1548283 L17.71748,15.1548283 C18.02658,15.1548283 18.2771967,15.4052617 18.2771967,15.7143617 L18.2771967,19.4140283 C18.2771967,19.7231283 18.02658,19.973745 17.71748,19.973745 Z" id="Path" fill="#B9DEFC"></path>
                        <path d="M25.9137633,31.413195 C24.9035967,31.413195 24.0817133,30.4263117 24.0817133,29.2130117 L24.0817133,8.92846167 C24.0817133,7.71530833 24.9035967,6.72837 25.9137633,6.72837 L33.5435467,6.72837 C34.5537133,6.72837 35.3755967,7.71530833 35.3755967,8.92846167 L35.3755967,29.2130117 C35.3755967,30.4263117 34.5537133,31.413195 33.5435467,31.413195 L25.9137633,31.413195 Z" id="Path" fill="#F2F2F2"></path>
                        <path d="M33.5435467,30.832945 L25.9137633,30.832945 C25.1829967,30.832945 24.5904633,30.1214283 24.5904633,29.2438117 L24.5904633,8.95907833 C24.5904633,8.08151667 25.1829967,7.37003667 25.9137633,7.37003667 L33.5435467,7.37003667 C34.2744967,7.37003667 34.8668467,8.08151667 34.8668467,8.95907833 L34.8668467,29.2438117 C34.8668467,30.1214283 34.2744967,30.832945 33.5435467,30.832945 Z" id="Path" fill="#E6E6E6"></path>
                        <path d="M33.69663,30.832945 L25.7608633,30.832945 C25.2500967,30.832945 24.83613,30.3359283 24.83613,29.7226783 L24.83613,8.480395 C24.83613,7.86716333 25.2500967,7.37003667 25.7608633,7.37003667 L33.69663,7.37003667 C34.2072133,7.37003667 34.62118,7.86716333 34.62118,8.480395 L34.62118,29.7226783 C34.62118,30.3359283 34.2072133,30.832945 33.69663,30.832945 Z" id="Path" fill="#FFFFFF"></path>
                        <path d="M30.81958,30.0977783 L28.6379133,30.0977783 C28.5649467,30.0977783 28.50573,30.026645 28.50573,29.9388283 C28.50573,29.8510117 28.5649467,29.7798783 28.6379133,29.7798783 L30.81958,29.7798783 C30.89273,29.7798783 30.9519467,29.8510117 30.9519467,29.9388283 C30.9519467,30.026645 30.89273,30.0977783 30.81958,30.0977783 Z" id="Path" fill="#E6E6E6"></path>
                        <path d="M32.2563633,9.112345 L27.2009467,9.112345 C26.85628,9.112345 26.5766967,8.77666167 26.5766967,8.36267667 L26.5766967,7.37003667 L32.8806133,7.37003667 L32.8806133,8.36267667 C32.8806133,8.77666167 32.6012133,9.112345 32.2563633,9.112345 Z" id="Path" fill="#F2F2F2"></path>
                        <path d="M31.20513,8.35101667 C31.28983,8.35101667 31.35858,8.268535 31.35858,8.16676667 C31.35858,8.06499833 31.28983,7.98251667 31.20513,7.98251667 C31.12043,7.98251667 31.05168,8.06499833 31.05168,8.16676667 C31.05168,8.268535 31.12043,8.35101667 31.20513,8.35101667 Z" id="Path" fill="#185BFF"></path>
                        <path d="M32.1012633,8.35101667 C32.1861467,8.35101667 32.2547133,8.268535 32.2547133,8.16676667 C32.2547133,8.06499833 32.1861467,7.98251667 32.1012633,7.98251667 C32.0165633,7.98251667 31.9478133,8.06499833 31.9478133,8.16676667 C31.9478133,8.268535 32.0165633,8.35101667 32.1012633,8.35101667 Z" id="Path" fill="#185BFF"></path>
                        <rect id="Rectangle" fill="#B9DEFC" x="28.6171967" y="10.1503783" width="5.530965" height="3.09934167" rx="1.3515975"></rect>
                        <rect id="Rectangle" fill="#B9DEFC" x="28.6171967" y="16.7406617" width="5.530965" height="3.09934167" rx="1.3515975"></rect>
                        <rect id="Rectangle" fill="#7BCFF1" x="25.42078" y="14.1466783" width="5.530965" height="1.69713867" rx="0.848569333"></rect>
                        <rect id="Rectangle" fill="#7BCFF1" x="25.42078" y="20.737145" width="5.530965" height="3.09934167" rx="1.3515975"></rect>
                        <rect id="Rectangle" fill="#B9DEFC" x="28.6171967" y="25.0647283" width="5.530965" height="1.69713867" rx="0.848569333"></rect>
                        <circle id="Oval" fill="#FFF170" cx="5.48621333" cy="5.22965667" r="2.75286"></circle>
                    </g>
                </g>
            </g>
        </g>
    </g>
</svg>