<?xml version="1.0" encoding="UTF-8"?>
<svg width="42px" height="41px" viewBox="0 0 42 41" version="1.1" xmlns="http://www.w3.org/2000/svg" xmlns:xlink="http://www.w3.org/1999/xlink">
    <!-- Generator: Sketch 58 (84663) - https://sketch.com -->
    <title>Logo-Testimonials</title>
    <desc>Created with Sketch.</desc>
    <g id="Page-1" stroke="none" stroke-width="1" fill="none" fill-rule="evenodd">
        <g id="Landing-Page" transform="translate(-699.000000, -5021.000000)">
            <g id="Testimonials" transform="translate(-389.000000, 4682.000000)">
                <g id="Icon" transform="translate(1076.000000, 326.000000)">
                    <g id="Logo-Testimonials" transform="translate(12.000000, 13.000000)">
                        <g id="Group">
                            <path d="M41.30976,14.037312 C41.30976,21.74928 36.13136,26.2952 22.3648,26.2952 C8.598112,26.2952 3.41968,21.74928 3.41968,14.037312 C2.729952,1.304992 11.9016,0.07347664 22.3648,0.07347664 C32.82784,0.07347664 41.30976,1.406168 41.30976,14.037312 Z" id="Path" fill="#84BEED" fill-rule="nonzero"></path>
                            <polygon id="Path" fill="#84BEED" fill-rule="nonzero" points="0.251248 29.90464 6.01984 20.45136 10.95488 24.08"></polygon>
                            <circle id="Oval" fill="#FAFFFE" fill-rule="nonzero" cx="22.3648" cy="10.950624" r="4.48856"></circle>
                            <path d="M20.42704,15.9556 C19.00096,14.748928 18.17072,12.856448 17.96496,11.713776 L22.34672,11.019232 L22.34672,19.31504 L20.42704,19.31504 L20.42704,15.9556 Z" id="Path" fill="#FAFFFE" fill-rule="nonzero"></path>
                            <path d="M24.2664,15.9556 C25.69248,14.748928 26.58144,12.790896 26.7872,11.648224 L22.34672,11.019232 L22.34672,19.31504 L24.2664,19.31504 L24.2664,15.9556 Z" id="Path" fill="#FAFFFE" fill-rule="nonzero"></path>
                            <rect id="Rectangle" fill="#FAFFFE" fill-rule="nonzero" transform="translate(22.364896, 20.451360) rotate(90.000000) translate(-22.364896, -20.451360) " x="21.203616" y="19.566496" width="2.32256" height="1.769728" rx="0.8848608"></rect>
                            <path d="M19.88064,9.690432 C21.03152,11.01744 21.42304,12.284096 21.58352,14.199952 C21.62736,14.724848 21.7456,15.388048 21.7664,15.586704 L22.98976,15.586704 C22.66928,14.233376 23.18048,11.032656 24.18176,10.191536" id="Path" stroke="#90C4EC" stroke-width="0.5" stroke-linecap="round"></path>
                            <path d="M20.08064,10.417248 C20.38288,10.390752 21.00512,10.262 21.07584,9.958944 C21.16432,9.580144 20.84624,9.393024 20.69408,9.46088 C20.54192,9.528736 20.70688,10.57296 21.46048,10.424752 C22.21424,10.276528 22.74528,9.592272 22.48304,9.28664 C22.2208,8.980992 21.66128,9.766704 22.38624,10.203936 C23.1112,10.641168 23.78784,9.817008 23.70992,9.446352 C23.632,9.07568 22.68832,9.574288 23.66624,10.49824 C23.8784,10.698784 24.07888,10.845344 24.26272,10.950656" id="Path" stroke="#96C6ED" stroke-width="0.5"></path>
                            <rect id="Rectangle" fill="#F7F7F7" fill-rule="nonzero" x="19.70944" y="19.00336" width="5.311296" height="1.3003424" rx="0.6501712"></rect>
                            <rect id="Rectangle" fill="#F7F7F7" fill-rule="nonzero" x="19.70944" y="17.70304" width="5.311296" height="1.3003424" rx="0.6501712"></rect>
                            <rect id="Rectangle" fill="#F7F7F7" fill-rule="nonzero" x="19.70944" y="16.40272" width="5.311296" height="1.3003424" rx="0.6501712"></rect>
                            <rect id="Rectangle" fill="#278D89" fill-rule="nonzero" transform="translate(14.250158, 37.745485) rotate(17.390800) translate(-14.250158, -37.745485) " x="11.609982" y="35.586589" width="5.280352" height="4.317792" rx="0.7110992"></rect>
                            <path d="M8.0221248,34.05792 C8.212864,33.4488 8.8612,33.10976 9.470208,33.30048 L15.409168,35.16064 L14.34712,38.55152 C13.936288,39.8632 12.539888,40.59344 11.22816,40.18272 L8.767008,39.41184 C7.548984,39.0304 6.8708384,37.7336 7.2523296,36.51568 L8.0221248,34.05792 Z" id="Path" fill="#E36302" fill-rule="nonzero"></path>
                            <path d="M13.864144,33.42432 C14.136624,32.5544 15.209152,32.11584 16.259728,32.44496 L14.6248,37.66496 L12.722576,37.06912 L13.864144,33.42432 Z" id="Path" fill="#E36302" fill-rule="nonzero"></path>
                            <rect id="Rectangle" fill="#4AB4AA" fill-rule="nonzero" transform="translate(31.915011, 32.910194) scale(-1, 1) rotate(17.390829) translate(-31.915011, -32.910194) " x="28.9858195" y="30.5149703" width="5.8583829" height="4.7904471" rx="0.7889424"></rect>
                            <path d="M38.8248,28.81904 C38.61312,28.14336 37.89376,27.7672 37.21808,27.97872 L30.62912,30.04256 L31.80736,33.80464 C32.2632,35.25984 33.81248,36.07008 35.26768,35.61424 L37.9984,34.75904 C39.34976,34.33584 40.10208,32.89728 39.67888,31.54592 L38.8248,28.81904 Z" id="Path" fill="#FAA241" fill-rule="nonzero"></path>
                            <path d="M32.34336,28.116 C32.04096,27.15088 30.85104,26.66432 29.68544,27.02944 L31.49936,32.82096 L33.60992,32.15984 L32.34336,28.116 Z" id="Path" fill="#FAA241" fill-rule="nonzero"></path>
                        </g>
                    </g>
                </g>
            </g>
        </g>
    </g>
</svg>