<?xml version="1.0" encoding="UTF-8"?>
<svg width="563px" height="386px" viewBox="0 0 563 386" version="1.1" xmlns="http://www.w3.org/2000/svg" xmlns:xlink="http://www.w3.org/1999/xlink">
    <!-- Generator: Sketch 57.1 (83088) - https://sketch.com -->
    <title>Place-Mountains</title>
    <desc>Created with Sketch.</desc>
    <g id="Page-1" stroke="none" stroke-width="1" fill="none" fill-rule="evenodd">
        <g id="Landing-Page" transform="translate(-279.000000, -1728.000000)">
            <g id="Place" transform="translate(279.000000, 1714.000000)">
                <g id="Place-Mountains" transform="translate(0.105469, 14.316895)">
                    <polygon id="Path" fill="#6EC5E9" fill-rule="nonzero" points="327.523363 0 66 326 562 326"></polygon>
                    <polygon id="Path" fill="#7BCFF1" fill-rule="nonzero" points="100.573575 127 0 326 202 326"></polygon>
                    <path d="M122.894531,490.712105 L131.881531,481.506105 C136.685531,476.585105 136.611531,468.689105 131.749531,463.826105 L131.749531,463.826105 C126.873531,458.951105 126.847531,451.020105 131.722531,446.144105 L131.722531,446.144105 C136.597531,441.269105 136.597531,433.365105 131.722531,428.490105 L131.722531,428.490105 C126.847531,423.614105 126.847531,415.710105 131.722531,410.835105 L131.722531,410.835105 C136.597531,405.959105 136.597531,398.055105 131.722531,393.180105 L131.722531,393.180105 C126.847531,388.305105 126.847531,380.400105 131.722531,375.525105 L131.722531,375.525105 C136.597531,370.650105 136.597531,362.746105 131.722531,357.870105 L131.722531,357.870105 C126.847531,352.995105 126.847531,345.091105 131.722531,340.216105 L131.722531,340.216105 C136.597531,335.340105 136.597531,327.436105 131.722531,322.561105 L131.722531,322.561105 C126.847531,317.686105 126.847531,309.781105 131.722531,304.906105 L131.722531,304.906105 C136.597531,300.031105 136.597531,292.126105 131.722531,287.251105 L131.722531,287.251105 C126.847531,282.376105 126.847531,274.471805 131.722531,269.596505 L144.635531,256.683105" id="Path" stroke="#B9DEFC" stroke-width="2" transform="translate(133.765031, 373.697605) rotate(-270.000000) translate(-133.765031, -373.697605) "></path>
                </g>
            </g>
        </g>
    </g>
</svg>