<?xml version="1.0" encoding="UTF-8"?>
<svg width="484px" height="345px" viewBox="0 0 484 345" version="1.1" xmlns="http://www.w3.org/2000/svg" xmlns:xlink="http://www.w3.org/1999/xlink">
    <!-- Generator: Sketch 57.1 (83088) - https://sketch.com -->
    <title>Place-Trees</title>
    <desc>Created with Sketch.</desc>
    <g id="Page-1" stroke="none" stroke-width="1" fill="none" fill-rule="evenodd">
        <g id="Landing-Page" transform="translate(-677.000000, -1822.000000)">
            <g id="Place" transform="translate(279.000000, 1714.000000)">
                <g id="Place-Trees" transform="translate(398.000000, 108.000000)">
                    <path d="M484,206.522 C484,195.502 475.066,186.567 464.045,186.567 L158.904,186.567 C150.597,186.567 143.862,193.302 143.862,201.609 C143.862,209.916 137.128,216.65 128.821,216.65 L40.5552,216.65 C18.4638,216.65 0.555176,234.559 0.555176,256.65 L0.555176,263.829 C0.555176,285.92 18.4638,303.829 40.5552,303.829 L302.017,303.829 C323.377,303.829 340.693,286.513 340.693,265.153 C340.693,243.793 358.009,226.478 379.369,226.478 L464.045,226.478 C475.066,226.478 484,217.543 484,206.522 Z" id="Path" fill="#B9DEFC"></path>
                    <path d="M434.257,193.012 C437.382,193.012 440.308,191.404 441.728,188.619 C447.635,177.029 455.139,155.504 450.807,138.798 C445.246,117.346 431.37,11.3764 430.019,1.00301 C429.952,0.492022 429.527,0.185565 429.012,0.185565 C428.502,0.185565 428.08,0.483678 428.007,0.988361 C426.523,11.2759 411.159,117.336 405.595,138.798 C401.264,155.504 408.767,177.029 414.675,188.619 C416.094,191.404 419.02,193.012 422.146,193.012 L428.28,193.012 L434.257,193.012 Z" id="Path" fill="#B9DEFC"></path>
                    <path d="M384.709,193.012 C387.835,193.012 390.761,191.404 392.18,188.619 C398.088,177.029 405.591,155.504 401.26,138.798 C395.698,117.346 381.823,11.3764 380.471,1.00301 C380.405,0.492022 379.979,0.185565 379.464,0.185565 C378.954,0.185565 378.533,0.483678 378.46,0.988361 C376.976,11.2759 361.612,117.336 356.048,138.798 C351.716,155.504 359.22,177.029 365.128,188.619 C366.547,191.404 369.473,193.012 372.598,193.012 L378.732,193.012 L384.709,193.012 Z" id="Path" fill="#B9DEFC"></path>
                    <path d="M335.162,193.012 C338.287,193.012 341.214,191.404 342.633,188.619 C348.541,177.029 356.044,155.504 351.713,138.798 C346.151,117.346 332.276,11.3764 330.924,1.00301 C330.858,0.492022 330.432,0.185565 329.917,0.185565 C329.407,0.185565 328.985,0.483678 328.913,0.988361 C327.428,11.2759 312.065,117.336 306.5,138.798 C302.169,155.504 309.673,177.029 315.58,188.619 C316.999,191.404 319.926,193.012 323.051,193.012 L329.185,193.012 L335.162,193.012 Z" id="Path" fill="#B9DEFC"></path>
                    <g id="Line" transform="translate(195.000000, 325.000000)" stroke-linecap="round" stroke-width="2">
                        <path d="M33.8042,9.4366 L33.8042,9.4366 C41.4678,-3.1424 59.7304,-3.14252 67.394,9.4365 L67.3944,9.4371 C75.058,22.0159 93.3204,22.016 100.984,9.4373 L100.986,9.4347 C108.649,-3.14374 126.911,-3.14399 134.575,9.4344 L134.578,9.4396 C142.242,22.0177 160.503,22.0178 168.167,9.4398 L168.171,9.4335 C175.835,-3.14459 194.096,-3.14447 201.76,9.4337 L201.762,9.4374 C205.538,15.6345 211.886,18.7784 218.272,18.8691" id="Path" stroke="#BBDFFC"></path>
                        <path d="M0,9.4344 L0.00317,9.4396 C7.66687,22.0177 25.9283,22.0178 33.5921,9.4398 L33.5959,9.4335 C41.2597,-3.14459 59.5213,-3.14447 67.185,9.4337 L67.1872,9.4374 C70.963,15.6345 77.3114,18.7784 83.6974,18.8691" id="Path" stroke="#B7DEFD"></path>
                    </g>
                </g>
            </g>
        </g>
    </g>
</svg>